<?xml version="1.0" encoding="utf-8"?>
<!-- Generator: Adobe Illustrator 21.0.2, SVG Export Plug-In . SVG Version: 6.00 Build 0)  -->
<svg version="1.1" id="BACKGROUND" xmlns="http://www.w3.org/2000/svg" xmlns:xlink="http://www.w3.org/1999/xlink" x="0px" y="0px"
	 viewBox="0 0 1891.4 594.7" style="enable-background:new 0 0 1891.4 594.7;" xml:space="preserve">
<style type="text/css">
	.st0{fill:#1C1B49;}
</style>
<g>
	<path class="st0" d="M462.6,181.6c-0.8-2.2-1.6-4.3-2.3-6.1c0.6,0.4,1.3,0.7,2,0.8c-0.6,2,1.1,5.2,1.1,5.2
		C463.1,181.5,462.9,181.6,462.6,181.6z"/>
	<path class="st0" d="M0.1,34.5l0-4.1C0,31.8,0,33.2,0.1,34.5z"/>
	<path class="st0" d="M274.2,245.5c0,0,0.2-1.7,1-1.5c0,0,1.5-0.3,2.6,0c-0.2,0.5-0.1,0.9,0,1.3c-0.7,0.7-2.5,2.5-3.6,2
		c0,0-0.3-0.4-0.7-0.9C273.8,246.3,274.1,246.1,274.2,245.5z"/>
	<path class="st0" d="M1884,584.6c-1.3,0.9-3.2,2.2-5.4,3.6c-0.5-4-1.5-10.7-3.3-12.3c-2.5-2.2-7.5-0.4-7.5,4.2
		c0,2.4-14.6,4.4-11.8,3.7c1-3.9,1.8-7.5,1.9-9.7c0.3-5.3-2-9.1-7.1-8c-3.6,0.8-5.2,6.1-5.6,10.5c-0.6-1.4-0.9-2.9-0.5-4.6
		c1.5-6.5,3.8-7.3,8.1-9c4.3-1.7,10.3-5.7,9.6-10c-0.9-5.1-5.3-5.8-10-3.6c-4.8,2.2-15.1,11-20.4,14.3c-0.8,0.5-1.6,1-2.5,1.7
		c0-3.7,0-11,0.2-15.9c4.1-2.9,10-5.5,13.5-6.9c4.3-1.7,4.1-7,1-8.5c-2.1-1-8.7,0.5-12.6,1.6c0.5-2.6,1-4.9,1.3-6.4
		c0.8-3.8-3.2-7.3-7.8-4.8c-4.5,2.5-5.6,21.1-6.4,23.9c-0.8,2.8-7.5-3.5-10.3-4.8c-2.8-1.3-8.3,3.7-3.8,7.8c4.5,4,8,3.5,10.5,6.1
		c1.2,1.2,1.7,5.1,2.1,9.2c-0.3,0.1-0.6,0.2-0.9,0.4c-0.2,0.1-0.4,0.3-0.6,0.5c-0.1-0.3-0.2-0.6-0.2-0.9c-1-5-2.7-8.3-6.8-7.8
		c-1.5,0.2-2.8,1.3-3.7,2.8c-2.5-0.3-5.6-0.3-7.8-3c-4.2-5.2-3.4-7.5-2.2-11.9c1.2-4.5,1.8-11.7-2.1-13.7c-4.6-2.4-7.8,0.6-8.9,5.8
		c-1.2,5.2-0.5,18.7-1.2,24.9c-0.1,0.9-0.2,1.9-0.2,3c-3-2.3-8.8-6.7-12.4-9.9c0.2-5.1,1.8-11.3,2.8-14.9c1.2-4.5-3.1-7.5-6.1-6
		c-2.1,1-4.9,7.2-6.4,10.9c-1.7-2-3.3-3.8-4.3-4.9c-2.5-2.9-7.7-1.9-8.5,3.2c-2.5-1.8-4.7-4.4-4-6.1c1.1-2.6,8.4-12.5,6.4-17.2
		c-2-4.8-7.3-4.5-9.1-1.1c-0.6,1.2-1.5,2.9-2.4,4.8c-3.7,0.7-10.4,3-10.1,0.5c0.3-2.9,6.2-20.5,2.9-24.5c-3.3-4-8.3-2.2-9,1.6
		c-0.3,1.5-0.7,3.8-1.2,6.4c-3.2-2.4-8.8-6.3-11.1-6.1c-2.9,0.3-4.9,3.9-3.2,7c-2.4,0.5-4.4,0.6-4.3-0.8c0.3-2.9,6-20.6,2.6-24.6
		c-3.3-4-8.3-2.1-9,1.7c-0.3,1.5-0.6,3.9-1.1,6.4c-3.3-2.4-8.9-6.2-11.2-6c-3.4,0.3-5.5,5.2-2.1,8.3c1.7,1.6-2.7,6.6-5.3,11.1
		c0,0-4.2-6.5-5.8-8.1c-3.7-3.8-8-4.7-10.6-0.3c-1.9,3.2,0.9,7.9,3.8,11.2c-1.4-0.5-2.7-1.3-3.7-2.8c-3.7-5.6-2.7-7.7-1-12.1
		c1.7-4.3,2.9-11.5-0.7-13.9c-4.3-2.8-7.8-0.1-9.5,4.9c-1.6,5-2.3,18.6-3.6,24.6c-0.2,0.9-0.4,1.9-0.5,3c-2.7-2.5-8.1-7.5-11.4-11
		c0.7-5,2.9-11,4.2-14.5c1.7-4.3-2.3-7.8-5.5-6.6c-2.2,0.8-5.6,6.7-7.5,10.3c-1.5-2.1-2.9-4-3.8-5.3c-2.2-3.1-7.6-2.6-8.8,2.4
		c-1.3,5,11.5,18.5,13,21c1.5,2.4-7.7,3.1-10.5,4.2c-2.8,1.1-3,8.6,3.1,8.1c6-0.5,8.1-3.4,11.6-3.5c1.7,0,4.9,2.3,8.1,4.8
		c-0.1,0.3-0.3,0.6-0.4,0.9c-0.1,0.2-0.1,0.5-0.1,0.8c-0.3-0.1-0.5-0.3-0.8-0.4c-4.3-2.7-7.9-3.7-10.3-0.4c-0.5,0.7-0.8,1.7-0.7,2.7
		c-8.9-3.3-17.4-6.3-25.4-8.8c-0.2-0.1-0.4-0.1-0.6-0.2c-9.3-2.9-18-5.1-25.9-6.6c-2.7-4.7-6.8-6.2-6.5-13.9
		c0.4-11.1,7.8-13.4,14.8-18c7-4.6,6.6-14,5.7-21.3c-0.8-7.3-6.2-8.7-4.5-13c1.6-4.3,9.5-3.3,10.7-7.7c0.1-0.4,0.2-0.9,0.3-1.4
		c0-0.1,0-0.2,0-0.3c0.1-0.5,0.1-1,0.1-1.5c0-0.1,0-0.2,0-0.3c0-0.6,0-1.2-0.1-1.8c0,0,0,0,0,0c0-0.6-0.1-1.3-0.2-1.9
		c0-0.1,0-0.1,0-0.2c-0.1-0.7-0.2-1.3-0.4-1.9c0,0,0-0.1,0-0.1c-0.5-2-1.1-3.8-2-4.9c0,0,0,0,0,0c-0.4-0.6-0.9-1.1-1.5-1.3
		c-3.3-1.3-11.5-0.7-11.5,7.1c0,7.8-4.1,10.3-8.2,11.2c-4.1,0.9-9.9-3.3-17.3,11.8c-7.4,15.1-0.8,27.7-4.1,39.7
		c-0.3,1.2-0.7,2.1-1.2,2.8c-0.4-0.8-1-1.3-1.8-1.5c-1.4-0.3-3.5-1.6-5.1-3.1c0.4-1.4,0.8-3,1-4.9c0.3-2.4,0.3-4.6,0.2-6.6
		c2-3.7,3.9-8,2.7-10.7c-1.4-3.3-4.4-4.1-6.6-3.2c-1.4-3.6-2.6-7.1-1.9-11.7c1.6-11.3,13.6-8.4,14.4-24c0.8-15.6-9.3-20-8.1-33.4
		c1.2-13.4,5.1-9.1,3.8-28.1c-1.1-15.8-9.3-13.1-15.8-22.7c-6.4-9.6,3.9-18.9-2.6-30.6c-4.7-8.6-11.9-10.9-16.8-6.6c0,0,0,0-0.1,0.1
		c-0.6,0.5-1.1,1.1-1.6,1.8c0,0,0,0.1-0.1,0.1c-0.4,0.6-0.8,1.3-1.1,2.1c-0.1,0.2-0.2,0.4-0.3,0.6c-0.4,0.9-0.7,1.8-0.9,2.8
		c-3.2,12.8,3.6,16.4,1.2,24.9c-2.4,8.5-11.6,13.4-8.8,29.8c2.8,16.4,11.7,13.1,11.7,24.4c0,11.3-9.6,15.7-8,30.4
		c1.5,13.6,12.6,17.6,13.3,27.5c-0.2,1.1-0.4,2.3-0.7,3.5c-3.2-2.4-8.8-6.3-11.1-6.1c-2.9,0.3-4.9,3.9-3.2,7
		c-0.9,0.2-1.8,0.3-2.5,0.3c-0.5-1.1-0.9-2.4-1.2-3.8c0.8-3.1,2.1-8.2,2.7-12.7c1.5-3.2,2.8-7.1,1.9-13.9
		c-2-14.7-8.8-15.6-13.3-21.8c-4.4-6.2,5.2-18.1,1.2-28.6c-4-10.5-7.2-3.1-12.5-8.8c-5.2-5.7,2.8-20.4-3.2-31.5
		c-6-11.1-12.8-4.5-18.1-7.5c-5.2-3-4.4-17-9.3-21.6c-4.6-4.4-21.6-6.7-24.2-2.6c0,0,0,0,0,0c-0.1,0.2-0.2,0.4-0.3,0.7
		c-0.8,3.7-4,17.1,2,27.7c6,10.6,12.4,4.5,16.5,10.1c4,5.6-8.8,14.1-1.6,23.2c7.2,9.1,14.9,4.6,18.5,9.2c3.6,4.5-9.2,13-5.6,24.5
		c3.6,11.6,14.1,4,15.7,12.2c1.6,8.2-8.4,8.7-5.6,25.1c1.8,10.2,7.1,11,10.9,12.6c-0.8,1.2-2.3,3.6-2.3,3.6s-4.2-6.5-5.8-8.1
		c-3.7-3.8-8-4.7-10.6-0.3c-1.9,3.2,0.9,7.9,3.8,11.2c-1.4-0.5-2.7-1.3-3.7-2.8c-3.7-5.6-2.7-7.7-1-12.1c1.7-4.3,2.9-11.5-0.7-13.9
		c-4.3-2.8-7.8-0.1-9.5,4.9c-1.6,5-2.3,18.6-3.6,24.6c-0.2,0.9-0.4,1.9-0.5,3c-2.7-2.5-8.1-7.5-11.4-11c0.7-5,2.9-11,4.2-14.5
		c1.7-4.3-2.3-7.8-5.5-6.6c-2.2,0.8-5.6,6.7-7.5,10.3c-1.5-2.1-2.9-4-3.8-5.3c-2-2.9-6.7-2.7-8.4,1.3c-0.4-0.9-0.7-1.7-1.1-2.5
		c-3-6.5-8.4-6.2-8.2-10.7c0.2-4.5,7.8-6,7.6-10.4c0-0.4-0.1-0.9-0.2-1.4c0-0.1,0-0.2-0.1-0.3c-0.1-0.5-0.2-1-0.4-1.5
		c0-0.1-0.1-0.2-0.1-0.3c-0.2-0.5-0.4-1.1-0.6-1.6c0,0,0,0,0,0c-0.2-0.6-0.5-1.2-0.8-1.7c0-0.1-0.1-0.1-0.1-0.2
		c-0.3-0.6-0.6-1.1-0.9-1.7c0,0,0-0.1-0.1-0.1c-1-1.7-2.2-3.1-3.3-4c0,0,0,0,0,0c-0.6-0.4-1.2-0.7-1.8-0.8
		c-3.5-0.2-10.9,2.9-8.5,10.1c2.4,7.2-0.7,10.8-4.2,12.9c-3.6,2.1-10.2-0.1-12.4,16.2c-2.2,16.3,7.7,25.9,8.4,38.1
		c0.4,6.8-4.5,6.2-9.1,7.2c1-2.6,1.5-5.9,0.5-11.3c-3.1-15.5-13.1-17.2-15.1-28.1c-2-10.9,10.1-12,6-26.7
		c-4-14.7-14.7-15.7-17.7-28.5c-3-12.8,2-10-5.1-27.2c-5.9-14.3-12.7-9.3-21.6-16.2c-8.9-6.9-2.2-18.7-11.7-27.6
		c-7-6.5-14.4-6.4-17.6-1c0,0,0,0-0.1,0.1c-0.4,0.7-0.7,1.4-0.9,2.2c0,0,0,0.1,0,0.1c-0.2,0.7-0.3,1.5-0.4,2.3
		c0,0.2-0.1,0.4-0.1,0.6c-0.1,0.9-0.1,1.9,0,2.9c0.9,12.8,8.4,14.1,8.8,22.8c0.4,8.6-6.7,16,0.9,30.3c7.6,14.3,14.8,8.6,18.3,19.1
		c3.5,10.5-4.1,17.5,1.9,30.6c6,13.1,19,12.4,21.5,23.7c1.6,7-3.2,11.7-5.5,19c-4-7.8-9.3-8.8-12.8-15.5c-4.5-8.6,3-12.3-3.4-25.3
		c-6.4-13-13-11.8-19-16.2c-6-4.4-0.7-18.4-7.6-26.9c-7-8.5-7.7-0.7-14.3-4.4c-6.6-3.7-3.6-19.8-12.6-28.3c-9-8.5-13.3-0.3-19.1-1.4
		c-5.8-1.2-9.3-14.4-15.2-17.2c-5.6-2.7-22.1,0.4-23.2,5c0,0,0,0,0,0c-0.1,0.2-0.1,0.5-0.1,0.7c0.4,3.7,1.5,17.1,10.3,25.1
		c8.8,8,12.9,0.4,18.4,4.4c5.5,4-3.9,15.8,5.6,22c9.5,6.2,15.2-0.2,19.9,2.8c4.7,3.1-4.6,14.9,2.3,24.5c6.9,9.6,14.3-0.5,18.3,6.6
		c4,7.1-5.2,10.7,2.5,25c1.3,2.4,2.5,4,3.8,5.2c-3.7,3.6-9.8,12.3-13.3,16c-0.6,0.6-1.1,1.3-1.8,2c-0.9-3.1-2.5-9.3-3.4-13.5
		c2.8-3.4,7.3-6.9,9.9-8.9c3.2-2.5,1.8-6.9-1.1-7.5c-2-0.4-7.2,2.4-10.3,4.2c-0.2-2.3-0.3-4.3-0.4-5.7c-0.2-3.4-4.4-5.5-7.7-2.3
		c-3.3,3.2,0,19.1,0,21.7c0,2.5-7.2-1.3-9.8-1.7c-2.6-0.4-6.2,5.1-1.4,7.5c4.7,2.4,7.6,1.2,10.3,2.7c1.3,0.8,2.6,4,3.9,7.4
		c-0.2,0.2-0.5,0.3-0.7,0.5c-0.1,0.2-0.3,0.4-0.4,0.6c-0.1-0.2-0.3-0.4-0.4-0.7c-2-4-4.2-6.4-7.5-5.1c-1.2,0.5-2,1.7-2.5,3.2
		c-2.2,0.3-4.8,1-7.2-0.8c-4.8-3.5-4.6-5.5-4.6-9.6c0-4.1-1.2-10.3-4.9-11.1c-4.4-1-6.5,2.3-6.3,6.9c0.2,4.6,3.8,16,4.6,21.3
		c0.1,0.8,0.3,1.7,0.5,2.6c-3-1.2-8.9-3.7-12.8-5.5c-1-4.3-1-10-1-13.2c0-4.1-4.3-5.7-6.6-3.7c-1.5,1.3-2.5,7.2-3,10.7
		c-1.9-1.3-3.6-2.4-4.7-3.2c-2.8-1.9-7,0.1-6.5,4.7c0.5,4.5,15.2,11.7,17.2,13.2c2,1.6-5.4,4.9-7.4,6.7c-2,1.8,0.2,8,5,5.7
		c4.8-2.3,5.6-5.3,8.5-6.5c0.5-0.2,1.3-0.2,2.2-0.1c-2.5,2.8-5.9,6.4-8.8,8.9c-0.1,0.1-0.2,0.2-0.3,0.3c-0.8-1.6-2.3-2.8-4.9-1.1
		c0,0-2.6,3.1-1.2,5.9c-1.9,1.4-3.8,2.8-5.2,3.9c-0.3-0.2-0.6-0.4-1-0.7c0-0.5-0.1-0.9-0.1-1.3c-0.2-2.6-0.2-6.8-0.1-10.9
		c1.2-0.9,2.4-2.3,0.9-4.1c0,0-0.1-0.7-0.9-1.2c0-2.3-0.2-4.2-0.4-5.6c-0.7-3.4-2.4-5.8-4.9-5.9c0-0.1,0-0.1-0.1-0.2
		c0,0,0.2-1.6-2.2-2.9c0,0,5.2-5-1.2-7.3c0,0-4.8-0.5-5.2,2.9c0,0-6.3,1.7-8.8,0.5l-0.6-0.1c0.3-2.5,0.4-4.7,0.1-6.4
		c0.4-2.6,1.1-6.6,1.9-11.8l2.1-1c0,0,4,5.9,8.8,3.2c0,0,5.1,2.6,6.4-7.1c0,0-2.9-6.9-7.7-6.2c0,0-4.2,2.5-6.5,4.6
		c0,0-1.1,0.9-2.4,1.6c0.7-4.7,1.4-10,2.1-15.9c1.1,0.3,2.1,0.8,2.9,1.7c0,0,3.5,6,6.2,5.2c0,0,6,0.4,4.5-3.4c0,0,0.2-1.6-2.1-2.9
		c0,0,5.4-4.7-0.9-7.3c0,0-4.8-0.7-5.4,2.6c0,0-2.4,0.5-4.8,0.7c1-8.5,1.9-17.9,2.7-27.9c1.5,0.1,3.1,0.6,4.4,1.8c0,0,3.7,5.9,6.3,5
		c0,0,6,0.2,4.3-3.6c0,0,0.2-1.6-2.2-2.9c0,0,5.2-5-1.2-7.3c0,0-4.8-0.5-5.2,2.9c0,0-3.3,0.9-6.1,0.9c0.3-3.9,0.5-8,0.7-12
		c0.5,0.3,0.9,0.6,1.3,1c0,0,3.7,5.9,6.3,5c0,0,6,0.2,4.3-3.6c0,0,0.2-1.6-2.2-2.9c0,0,5.2-5-1.2-7.3c0,0-4.8-0.5-5.2,2.9
		c0,0-1.4,0.4-3.1,0.7c0.2-4.9,0.4-9.8,0.4-14.7c2-0.2,4.7-0.1,6.5,1.8c0,0,3.7,5.9,6.3,5c0,0,6,0.2,4.3-3.6c0,0,0.2-1.6-2.2-2.9
		c0,0,5.2-5-1.2-7.3c0,0-4.8-0.5-5.2,2.8c0,0-5.7,1.6-8.4,0.7c0,0-1.7-8.7,0.3-10.5s10.8,0.2,7.1-7.7c-3.3-6.8-9.7-1.2-9.7-1.2
		s2.5-9.4-3-8.9c-7.9,0.7-3.8,9.1-3.8,9.1s-6.2-10.6-10.7,0.8c-2,5.2,5.1,5.3,5.7,7.9c0.8,3.6,0.2,6.9,0.2,8.2
		c0,2.3-1.3,4.5-1.3,4.5c-1-1.6-2.6-3.2-5.3-3.4c0,0-3.5-4.9-9.3,2.1c0,0-0.6,7,4.3,9.1c0,0,5.1,0.4,8.2,0c0,0,0.7-0.1,1.6,0
		c-0.3,2.9-0.6,5.8-1,8.9c0,0,0.1,0.8,0.2,2.1c-2.8,0.4-8.1-1.5-8.1-1.5c-1.1-3.4-5.8-3.4-5.8-3.4c-6,1.8,0.2,7.3,0.2,7.3
		c-2.1,1-1.7,2.7-1.7,2.7c-0.9,3.6,5.1,4,5.1,4c2.8,1.2,5.4-4.4,5.4-4.4c1.3-1.5,3.4-1.6,5.2-1.4c0.3,3.7,0.5,9,0.5,14.9
		c-1.7-0.9-3.1-2.1-3.1-2.1c-2.6-2.4-7.2-5.5-7.2-5.5c-5-1.4-6.8,5.2-6.8,5.2c2.8,10,7.5,8,7.5,8c5.3,3.4,8.4-2,8.4-2l1.2,0.7
		c-0.1,4.7-0.4,9.7-1,14.4c-1.6-0.3-6.3-1.4-7.9-4.8c0,0-1.4-6.7-4.4-7c0,0-5.8-2.7-5.5,1.3c0,0-0.8,1.3,1.1,3.4
		c0,0-6.9,2.1-1.5,6.8c0,0,4.5,2.5,6.2-0.3c0,0,6.8,1.1,8.8,3.3l2.5,1.4c-0.8,4.4-2,8.4-3.6,11.7c0,0,2.4,6.4-0.9,11.7
		c0,0-2.4,2.3-9.5-5.4c0,0-2.8-3-7.2-7.3c0.3-0.2,0.5-0.3,0.5-0.3l-0.8-2.8c-1.7-2.5-1.5-9.6-1.5-9.6c2.9-1.2,1.4-6.3,1.4-6.3
		c-3.5-6.4-6.7,0.3-6.7,0.3c-1.6-2.3-3-1.8-3-1.8c-3.7-1-2.2,5.4-2.2,5.4c-0.2,3.1,5.8,5.8,5.8,5.8c1.8,1.4,2.6,3.7,2.9,5.8
		c-4-3.9-8.9-8.5-13.9-12.9c-0.9-3.1-0.8-8.1-0.8-8.1c2.9-1.2,1.4-6.3,1.4-6.3c-3.5-6.4-6.7,0.3-6.7,0.3c-1.6-2.3-3-1.8-3-1.8
		c-3.7-1-2.2,5.4-2.2,5.4c0,0.4,0.1,0.8,0.2,1.2c-2.2-1.7-4.4-3.2-6.4-4.5c-1.1-3-0.9-8.5-0.9-8.5c2.9-1.2,1.4-6.3,1.4-6.3
		c-3.5-6.4-6.7,0.3-6.7,0.3c-1.6-2.3-3-1.8-3-1.8c-3.7-1-2.2,5.4-2.2,5.4c-0.2,3.1,5.8,5.8,5.8,5.8c1,0.8,1.6,1.8,2.1,2.9
		c-1.6-0.8-3.1-1.5-4.4-1.9c0,0-2.3-2.6-5.5-5.2c-1.3-2.9-1.1-8.9-1.1-8.9c2.9-1.2,1.4-6.3,1.4-6.3c-3.5-6.4-6.7,0.3-6.7,0.3
		c-1.6-2.3-3-1.8-3-1.8c-3.7-1-2.2,5.4-2.2,5.4c-0.2,3.1,5.8,5.8,5.8,5.8c1,0.7,1.6,1.8,2.1,2.9c-2.6-1.4-5.3-2.3-7.8-1.8
		c-1.3-1.6-2.3-3.1-2.3-3.1c-1.6-1.4,0.2-3.9,0.2-3.9c1.9-3.1-3.9-4.5-3.9-4.5c-5.3-1.4-3.4,5-3.4,5c-2.9-3.6-6.3,0.9-6.3,0.9
		c-1.1,2.5,4.4,4.7,4.4,4.7c-1.9-0.2-3.4,1.2-3.4,1.2c-3.6,4.1,2.5,8.7,2.5,8.7c2.8,3.2,5.5-5.1,5.5-5.1c1.4-1.1,4.6,0.2,6.9,1.4
		c0.6,1.8,1.5,3.9,3,6c-0.4-0.1-0.6-0.2-0.6-0.2c-3.2-1.2-8.3-2.1-8.3-2.1c-4.8,0.9-3.8,8.1-3.8,8.1c6.3,8.4,9.5,4.4,9.5,4.4
		c5.8,0.9,6.4-5.7,6.4-5.7l1,0.1c0.4,0.4,0.9,0.7,1.4,1.1c0,0,1.6,0.8,4.2,2.1c-2.8,2.1-2,7.3-2,7.3c6.3,8.4,9.5,4.4,9.5,4.4
		c4,0.6,5.5-2.3,6.1-4.2c4.9,2.9,9.8,6.2,13.7,9.4c-1.9,0.6-3.6,0.9-3.6,0.9c-2.4-2.7-6.2-0.3-6.2-0.3c-4.2,4.7,3.3,6.8,3.3,6.8
		c-1.3,2-0.2,3.4-0.2,3.4c0.8,3.9,5.9,1.3,5.9,1.3c2.8-0.3,2.5-6.9,2.5-6.9c0.2-1,0.7-1.8,1.4-2.4c1.8,1.8,4.9,4.8,8.3,8.4l-0.9,0.5
		c-1.5,2.1-7.9,3.2-7.9,3.2c-2.4-2.7-6.2-0.3-6.2-0.3c-2.6,2.9-0.7,4.8,1.1,5.9c-2.4,1.5-3.5,5.4-0.6,8.2c1.8,1.7-2.8,6.9-5.6,11.6
		c0,0-4.4-6.8-6-8.4c-3.8-4-8.3-4.9-11.1-0.3c-2,3.3,0.9,8.3,4,11.7c-1.5-0.5-2.8-1.3-3.9-2.9c-3.9-5.8-2.8-8.1-1.1-12.6
		c1.7-4.5,3-12-0.8-14.5c-4.5-3-8.2-0.1-9.9,5.1c-1.7,5.2-2.4,19.4-3.7,25.7c-0.2,0.9-0.4,2-0.5,3.1c-2.8-2.6-8.4-7.8-11.9-11.5
		c0.7-5.2,3-11.5,4.4-15.2c1.7-4.5-2.4-8.1-5.8-6.9c-2.3,0.8-5.8,7-7.8,10.7c-1.6-2.2-3-4.2-3.9-5.5c-2.3-3.3-7.9-2.8-9.2,2.5
		c-1.3,5.2,12,19.3,13.6,21.9c1.6,2.6-8.1,3.2-11,4.4c-2.9,1.2-3.1,9,3.2,8.4c6.3-0.5,8.4-3.6,12.1-3.7c1.8-0.1,5.1,2.4,8.5,5
		c-0.1,0.3-0.3,0.6-0.4,1c-0.1,0.2-0.1,0.5-0.1,0.8c-0.3-0.1-0.5-0.3-0.8-0.4c-4.5-2.8-8.3-3.8-10.8-0.4c-0.9,1.2-1,3-0.5,4.8
		c-2,1.7-4.2,4-7.8,3.8c-5.1-0.4-7.1-1.7-8.8-4c0,0-4.4-6.7-3.2-30.8c1.2-24.1-7.1-31.8-13.7-32.6c0,0-10.5-2.2-22.8,3.7
		s-20.8,18.9-23.4,19.5c1-3.9,2.4-10.6,1.3-12.6c-1.6-3-6.9-3.1-8.5,1.2c-0.8,2.2-12.3-0.7-12.3-0.7s4.4-6.4,5.3-8.4
		c2.1-4.8,1.3-9.2-3.8-10c-3.7-0.5-7,3.8-8.9,7.8c-0.1-1.5,0.2-3,1.2-4.5c3.8-5.6,6.1-5.5,10.8-5.6c4.6-0.1,11.7-1.7,12.5-6
		c1-5.1-2.9-7.3-8.1-6.9c-5.3,0.4-18.1,4.9-24.2,6.1c-0.9,0.2-1.9,0.4-3,0.7c1.3-3.5,3.9-10.3,5.8-14.8c4.9-1.2,11.3-1.5,15-1.6
		c4.6-0.1,6.3-5.1,4-7.6c-1.6-1.7-8.3-2.6-12.3-3c1.4-2.2,2.6-4.2,3.5-5.5c2.1-3.3-0.4-8-5.6-7.3c-5.1,0.7-12.7,17.7-14.4,20
		c-1.7,2.3-5.8-6-7.9-8.2c-2.1-2.2-9.1,0.5-6.3,5.9c2.8,5.4,6.2,6.2,7.7,9.4c0.7,1.6-0.3,5.4-1.3,9.4c-0.3,0-0.6,0-1,0
		c-0.2,0-0.5,0.1-0.7,0.2c0-0.3,0-0.6,0.1-0.9c0.9-5.1,0.4-8.7-3.5-9.7c-1.4-0.4-3,0.2-4.4,1.3c-2.2-1.2-5.1-2.3-6.2-5.5
		c-2.1-6.4-0.6-8.2,2.2-11.9c2.7-3.7,5.8-10.3,2.9-13.6c-3.4-3.9-7.5-2.2-10.4,2.2c-2.9,4.4-7.2,17.3-10,22.8
		c-0.4,0.8-0.8,1.8-1.3,2.8c-2-3.2-5.8-9.4-8.1-13.7c2-4.6,5.7-9.9,7.9-12.9c2.7-3.7-0.2-8.1-3.6-7.8c-2.3,0.2-7.1,5-9.9,7.9
		c-0.9-2.5-1.7-4.7-2.2-6.1c-1.3-3.6-6.6-4.5-9.1,0c-2.6,4.5,6.2,20.9,7,23.7c0.8,2.8-8.3,0.9-11.3,1.3c-3,0.4-5.1,7.5,0.8,8.6
		c6,1.1,8.7-1.2,12.2-0.3c0.6,0.1,1.3,0.7,2.1,1.4c-4.2,0.9-9.7,2-14.1,2.4c-4.5,0.4-13.7,0.5-18,0.5c0.6-0.9,1.2-1.8,1.6-2.6
		c3.2-5.3,11.8-15.8,14-20.6c2.2-4.8,1.4-9.2-3.7-10c-4.3-0.7-8.2,5.4-9.9,9.7c-1.7,4.3-2.4,6.6-8.9,8.2c-6.5,1.6-9.7-6.9-13.9-1.6
		c-1.6,2.1-1.5,3.8-0.6,5.3c-0.5,0.4-1.1,0.7-1.7,1.1c-0.4-4-1.4-10.7-3.1-12.3c-2.2-2-6.2-0.9-7.3,2.4c-2-1.4-3.5-2.8-2.4-3.6
		c2.3-1.7,19.1-9.7,19.7-14.9c0.6-5.1-4.2-7.5-7.4-5.4c-1.3,0.9-3.2,2.2-5.4,3.6c-0.5-4-1.5-10.7-3.3-12.3c-2.5-2.2-7.5-0.4-7.5,4.2
		c0,1.6-2.9,2.2-6.4,2.8c3.3-5.2,5.5-5.1,9-19.5c3.7-15.4-4.9-15.3-8.2-26.4c-3.3-11,9.4-16.8,6.8-29.9c-1.9-9.6-8.1-14-14-11.3
		c0,0-0.1,0-0.1,0c-0.7,0.3-1.4,0.7-2.1,1.3c0,0-0.1,0.1-0.1,0.1c-0.6,0.5-1.2,1-1.7,1.7c-0.2,0.2-0.3,0.3-0.4,0.5
		c-0.6,0.7-1.2,1.5-1.7,2.4c-6.9,11.2-1.5,16.8-6.4,24.1c-2.4,3.7-6.2,6-9.7,9.5c-0.4,0.1-0.8,0.2-1.1,0.3c0.5-2.6,1-4.9,1.3-6.4
		c0.8-3.8-3.2-7.3-7.8-4.8c-4.5,2.5-5.6,21.1-6.4,23.9c-0.8,2.8-7.5-3.5-10.3-4.8c-0.8-0.3-1.7-0.2-2.6,0.2
		c-0.2-0.4-0.4-0.7-0.7-1.2c-3.3-7,8.8-18.6,6.4-31c-2.4-12.4-10.9-8.2-15-12.6c-4.1-4.4,0.9-17.6-2.3-23.4
		c-3.1-5.6-18.6-13-22.3-9.8c0,0,0,0,0,0c-0.2,0.2-0.4,0.3-0.5,0.6c-1.9,3.3-9,15.1-6.4,27c2.5,11.9,10.5,8,12.6,14.6
		c2.1,6.6-12.7,10.8-8.5,21.6c3.9,10.1,11.6,9.1,14.3,13.3c-0.1,1.4-0.2,2.9-0.2,4.5c-2.2,3.1-7.7,6.4-10.4,11.8
		c-0.4-0.3-0.8-0.7-1.2-1c2-3.8,1.6-8.2,0.3-12.4c0.3-1.4,0.7-2.7,1-3.7c1.2-4.2-2.5-7-5.5-6.2c-3-3.7-6.6-4.1-6.4-7.9
		c0.2-4.5,7.8-6,7.6-10.4c0-0.4-0.1-0.9-0.2-1.4c0-0.1,0-0.2-0.1-0.3c-0.1-0.5-0.2-1-0.4-1.5c0-0.1-0.1-0.2-0.1-0.3
		c-0.2-0.5-0.4-1.1-0.6-1.6c0,0,0,0,0,0c-0.2-0.6-0.5-1.2-0.8-1.7c0-0.1-0.1-0.1-0.1-0.2c-0.3-0.6-0.6-1.1-0.9-1.7
		c0,0,0-0.1-0.1-0.1c-1-1.7-2.2-3.1-3.3-4c0,0,0,0,0,0c-0.6-0.4-1.2-0.7-1.8-0.8c-3.5-0.2-10.9,2.9-8.5,10.1
		c2.4,7.2-0.7,10.8-4.2,12.9c-3.6,2.1-10.2-0.1-12.4,16.2c-0.7,5.3-0.2,9.9,1,14.1c-1,2.5-1.4,5.5-1.4,7.9c0,2.8,0,4.8-1.3,6.9
		c-2.6-7.1-6.9-10.6-10-14.8c0-0.3,0-0.7,0-1c0,0,0,0,0,0c0-0.6-0.1-1.3-0.2-1.9c0-0.1,0-0.1,0-0.2c-0.1-0.6-0.2-1.3-0.4-1.9
		c0,0,0-0.1,0-0.1c-0.5-1.9-1.1-3.7-2-4.8c0,0,0,0,0,0c-0.4-0.5-0.7-0.8-1.2-1.1c0.4-8.4,9.9-10.5,6.2-23.9
		c-4-14.7-14.7-15.7-17.7-28.5c-3-12.8,2-10-5.1-27.2c-5.9-14.3-12.7-9.3-21.6-16.2c-8.9-6.9-2.2-18.7-11.7-27.6
		c-7-6.5-14.4-6.4-17.6-1c0,0,0,0-0.1,0.1c-0.4,0.7-0.7,1.4-0.9,2.2c0,0,0,0.1,0,0.1c-0.2,0.7-0.3,1.5-0.4,2.3
		c0,0.2-0.1,0.4-0.1,0.6c-0.1,0.9-0.1,1.9,0,2.9c0.1,1.7,0.4,3.1,0.7,4.4c-3.6-2.2-7.4-2.1-10.3,0.6c0,0,0,0-0.1,0.1
		c-0.6,0.5-1.1,1.1-1.5,1.8c0,0,0,0.1-0.1,0.1c-0.4,0.6-0.8,1.3-1.1,2.1c-0.1,0.2-0.2,0.4-0.3,0.6c-0.3,0.8-0.6,1.7-0.9,2.8
		c-3,12.5,3.7,16,1.5,24.3c-0.8,3.2-2.7,5.8-4.4,8.8c-1.2-5.7-2.7-12.1-7.4-16.5c-9-8.5-13.3-0.3-19.1-1.4
		c-5.8-1.2-9.3-14.4-15.2-17.2c-2.4-1.1-6.8-1.2-11.2-0.6c-0.7-2.1-1.6-3.9-2.8-5c-4.5-4.2-21.2-6.3-23.7-2.3c0,0,0,0,0,0
		c-0.1,0.2-0.2,0.4-0.3,0.7c-0.7,3.7-3.7,16.7,2.3,27c6,10.3,12.2,4.2,16.2,9.7c4,5.5-8.4,13.9-1.3,22.6c7.2,8.8,14.6,4.4,18.2,8.7
		c3.6,4.4-8.9,12.8-5.2,24c3.7,11.2,13.8,3.8,15.4,11.8c1.7,8-8.1,8.6-5.2,24.6c0.5,2.6,1.2,4.6,2.1,6.1c-4.6,2.3-13,8.7-17.5,11.2
		c-0.7,0.4-1.5,0.9-2.3,1.4c0.1-3.3,0.4-9.7,0.8-13.9c3.7-2.4,9-4.4,12.1-5.5c3.8-1.4,3.8-6,1.2-7.4c-1.8-1-7.6,0.1-11.1,0.9
		c0.5-2.2,1-4.2,1.4-5.6c0.8-3.3-2.6-6.5-6.6-4.5c-4.1,2-5.7,18.3-6.5,20.7c-0.8,2.4-6.5-3.4-8.8-4.6c-2.4-1.2-7.4,2.9-3.6,6.7
		c3.8,3.7,6.9,3.4,9,5.7c1,1.1,1.3,4.6,1.5,8.2c-0.3,0.1-0.5,0.1-0.8,0.3c-0.2,0.1-0.4,0.2-0.5,0.4c-0.1-0.3-0.1-0.5-0.2-0.8
		c-0.7-4.4-2.1-7.4-5.6-7.1c-1.3,0.1-2.5,1-3.3,2.3c-2.2-0.4-4.9-0.5-6.7-2.9c-3.5-4.7-2.7-6.7-1.5-10.5c1.3-3.9,2-10.2-1.3-12.1
		c-3.9-2.3-6.9,0.2-8.1,4.7c-1.2,4.5-1.2,16.4-2,21.7c-0.1,0.8-0.2,1.7-0.3,2.7c-2.5-2.1-7.4-6.2-10.5-9.1c0.4-4.4,2-9.8,3-12.9
		c1.3-3.9-2.4-6.7-5.1-5.5c-1.9,0.8-4.6,6.1-6.1,9.3c-1.4-1.8-2.7-3.4-3.6-4.5c-2.1-2.6-6.7-2-7.6,2.5c-0.9,4.4,10.9,15.7,12.4,17.8
		c1.4,2.1-6.6,3-9.1,4.2c-2.4,1.1-2.2,7.7,3.1,7c5.3-0.7,6.9-3.4,10-3.6c0.5,0,1.3,0.2,2.1,0.6c-3.2,1.9-7.5,4.3-11,5.9
		c-0.1,0.1-0.3,0.1-0.4,0.2c-0.3-1.8-1.3-3.4-4.3-2.5c0,0-3.4,2.2-2.9,5.2c-2.2,0.8-4.4,1.5-6.1,2.1c-0.2-0.3-0.5-0.6-0.8-0.9
		c0.1-0.4,0.2-0.9,0.3-1.3c0.6-2.6,1.9-6.5,3.2-10.5c1.5-0.5,3-1.5,2.1-3.7c0,0,0.1-0.7-0.5-1.4c0.6-2.2,1.1-4.1,1.3-5.4
		c0.4-3.4-0.5-6.2-2.9-7.1c0-0.1,0-0.1,0-0.2c0,0,0.6-1.5-1.2-3.4c0,0,6.4-3.2,1-7.4c0,0-4.4-1.9-5.8,1.1c0,0-6.5-0.2-8.6-2.2
		l-0.6-0.2c1.1-2.2,1.8-4.4,2-6c1.2-2.4,3-6,5.3-10.7l2.3-0.3c0,0,2.1,6.8,7.5,5.7c0,0,4.1,4,8.2-4.8c0,0-0.7-7.5-5.5-8.2
		c0,0-4.8,1.1-7.5,2.4c0,0-1.3,0.6-2.8,0.8c2-4.3,4.3-9.2,6.8-14.5c0.9,0.6,1.8,1.4,2.3,2.6c0,0,1.5,6.8,4.3,6.9
		c0,0,5.6,2.2,5.3-1.8c0,0,0.7-1.5-1.1-3.4c0,0,6.6-2.8,1.3-7.3c0,0-4.4-2.1-5.9,0.8c0,0-2.4-0.2-4.7-0.8c3.5-7.8,7.2-16.5,11-25.8
		c1.4,0.6,2.8,1.5,3.6,3.1c0,0,1.7,6.7,4.5,6.7c0,0,5.6,2,5.2-2.1c0,0,0.6-1.5-1.2-3.4c0,0,6.4-3.2,1-7.3c0,0-4.4-1.9-5.8,1.1
		c0,0-3.5-0.1-6.1-1c1.5-3.7,2.9-7.4,4.3-11.2c0.4,0.4,0.7,0.8,0.9,1.3c0,0,1.7,6.7,4.5,6.7c0,0,5.6,2,5.2-2.1c0,0,0.6-1.5-1.2-3.4
		c0,0,6.4-3.2,1-7.3c0,0-4.4-1.9-5.9,1.1c0,0-1.4-0.1-3.1-0.3c1.7-4.6,3.3-9.2,4.9-13.9c1.9,0.4,4.5,1.3,5.6,3.7
		c0,0,1.7,6.7,4.5,6.7c0,0,5.6,2,5.2-2.1c0,0,0.6-1.5-1.2-3.4c0,0,6.5-3.2,1.1-7.3c0,0-4.4-1.9-5.9,1.1c0,0-5.9-0.2-8.2-1.9
		c1.1-3.4,2.1-6.7,3.1-10.1c1.7,0.1,5.9,0.7,7.5,3.9c0,0,1.7,6.7,4.5,6.7c0,0,5.6,2,5.2-2.1c0,0,0.6-1.5-1.2-3.4c0,0,6.4-3.2,1-7.3
		c0,0-4.4-1.9-5.8,1.1c0,0-6.5-0.2-8.6-2.2l-1.5-0.6c0.7-2.5,1.4-4.9,2-7.4c1.2-0.1,2.3,0.1,2.8,0.8c0,0,4.6,4.3,6.4,5.9
		c0,0,6.2,1.9,4.6-3.3c0,0,0.7-4.3-1.2-4.3c0,0,3.6-6.3,0-7.3c0,0-5.4-2.2-7.5,0.4c0,0-0.8,2.8-3.6,3c0,0-0.1,0.1-0.3,0.1
		c0.7-2.9,1.4-5.9,2-8.7c1.3-1,2.9-1.6,4.5-1.2c0,0,5.4,3.4,7.1,0.9c0,0,4.7-3.5,1.7-6c0,0-0.6-1.6-3-1.4c0,0,1.8-7.9-4.2-6.2
		c0,0-3.9,2.5-2.8,5.9c0,0-1,1.4-2.4,2.9c1-5.4,1.8-10.8,2.3-15.9c0.5,0.2,0.9,0.5,1.3,1c0,0,3.5,5.9,6.1,4.7c0,0,5.7-0.3,4.1-4.1
		c0,0,0.1-1.7-2.1-2.8c0,0,5-5.5-1.2-7.5c0,0-4.6-0.2-5,3.4c0,0-1.3,0.5-2.9,0.9c0.2-3.2,0.3-6.3,0.2-9.3c1.3,1.6,3.2,3.6,4.8,2.9
		c0,0,5.7-0.3,4.2-4c0,0,0.2-1.7-2.1-2.8c0,0,5-5.5-1.2-7.5c0,0-4.6-0.2-5,3.4c0,0-0.4,0.2-1.1,0.4c-0.5-4.4-1.3-8.4-2.5-12.2
		c0,0,0-0.9,0-2.4c1.9-0.5,5.1-1,7.2,1.1c0,0,3.5,5.9,6.1,4.7c0,0,5.7-0.3,4.1-4c0,0,0.2-1.7-2.1-2.8c0,0,5-5.5-1.2-7.5
		c0,0-4.6-0.2-5,3.3c0,0-6,2.3-8.5,1.2l-0.6,0c0.1-2.9,0.3-6.7,0.8-10.8c1.5-0.6,5.6-1.7,8.1,0.9c0,0,3.5,5.9,6.1,4.7
		c0,0,5.7-0.3,4.1-4c0,0,0.1-1.7-2.1-2.8c0,0,5-5.5-1.2-7.5c0,0-4.6-0.1-5,3.4c0,0-6,2.3-8.5,1.2l-1,0c0.3-2.6,2.8-6.5,2.8-6.5
		s4.1-3.6,5.7-2.3c0,0,5.5,2.4,7.6,3.3c0,0,6.2-0.5,3.3-4.9c0,0-0.6-4.5-2.4-3.7c0,0,0.7-3.8-0.1-5.8c1.6-0.4,4-1.6,1.9-4.7
		c0,0-0.6-4.5-2.4-3.7c0,0,1.4-7.5-2.1-7.1c0,0-5.6,0-6.8,3.3c0,0,0,0.8-0.3,1.7c-0.6-1.4-1.4-3.2-2.4-4.7c0.2-0.3,0.4-0.5,0.4-0.5
		c0.7-1.9,3.5-0.3,3.5-0.3c3.4,1.6,2.7-4.7,2.7-4.7c-0.5-5.9-5.6-3-5.6-3c2.2-3.6-2.9-6.7-2.9-6.7c-2.6-0.8-2.6,5.4-2.6,5.4
		c-0.5-2.1-2.3-3.5-2.3-3.5c-4.8-3.4-6.9,3.8-6.9,3.8c-1.9,3.4,6.4,5.2,6.4,5.2c0.4,0.4,0.7,0.9,0.9,1.5c-1.1,0.6-2.2,1.6-3.3,3.3
		c-0.1-0.1-0.1-0.2-0.1-0.2c1.2-3.2-2.7-6.4-2.7-6.4c-6-2.8-4.2,5.4-4.2,5.4c-2.4-0.7-3,0.8-3,0.8c-2.9,2,1.7,6.4,1.7,6.4
		c1.3,2.2,4.9,1.2,6.4,0.7c-0.5,3.7-1.4,9.2-2.3,15.6c-0.9-1.8-1.6-3.5-1.6-3.5c1.8-2.8-1.5-6.8-1.5-6.8c-5.4-4.2-5.2,4.1-5.2,4.1
		c-2.2-1.3-3.1,0-3.1,0c-3.3,1.1,0.5,6.5,0.5,6.5c1.1,3.1,6.9,2.3,6.9,2.3c1.3,0.2,2.4,1,3.3,2.1c-0.9,6-1.8,12.5-2.6,18.7
		c-1.1-1.9-0.8-3.9-0.8-3.9c-0.6-3.6-6.1-5.7-6.1-5.7c-3.4-1.7-3.2,6.1-3.2,6.1c-1.6-1.4-2.9,2.7-2.9,2.7c-3.5,3.1,2.4,6,2.4,6
		c2.2-0.1,7.9-0.3,7.9-0.3c0.5-0.2,1.2,0.1,1.8,0.6c-0.5,4.2-1,8.2-1.4,11.7c-2.7-1.1-6.3-4-6.3-4c0.1-3.6-4.4-5.2-4.4-5.2
		c-6.3-0.4-2.3,6.9-2.3,6.9c-2.4,0.2-2.5,1.9-2.5,1.9c-0.3,0.4-0.4,0.7-0.5,1.1c-5.6-3.6-6.6,0.5-6.6,0.5c-3.9,1.5-2.6,6.9-2.6,6.9
		l-2.9,1.4c-2.7-4-4.9-6.9-4.9-6.9c-0.1-0.1-0.1-0.2-0.2-0.3c0.6,0.4,1.5,0.8,2.5,0.8c0,0,0.1-7.1,3.8-8.7c0,0,5.9-0.6,6-3.8
		c0,0,2-6.1-1.6-6.4c0,0-1.3-1-3,0.7c0,0-2.4-8-6.3-2.7c0,0-1.9,4.7,0.7,6.9c0,0-0.5,7.4-2.3,9.4l-0.8,2c-2.3-4-4.9-7.1-7.4-9.4
		c0.4-2.2,1.3-5.4,3.6-6.4c0,0,5.9-0.6,6-3.8c0,0,2-6.1-1.6-6.4c0,0-1.3-1-3,0.7c0,0-2.4-8-6.3-2.7c0,0-1.9,4.7,0.7,6.9
		c0,0-0.5,7-2.2,9.2c-4-3.1-7.1-4.3-7.1-4.3c-1.6-0.5-3-0.7-4.2-0.7c0.1-0.4,0.2-0.7,0.2-0.7c-2-0.6-3-6.4-3-6.4
		c-0.5-3.5-2-8.8-2-8.8c-2.5-4.3-6.8-0.7-6.8-0.7c-2.9,9.1,1,10.8,1,10.8c1.8,6,6.3,4.1,6.3,4.1l0.7,2.1c-2.6,0.7-4.2,2.3-5.2,3.7
		c-2.3-1.2-5.6-3.3-5.9-5.5c0,0,3.1-8.6-0.6-8.7c0,0-6.7-2-6.7,4.2c0,0,0.2,2.4,1.5,4c0,0-4.8-3.3-5.6-0.5c0,0-0.4,6.4,3.6,6.3
		c0,0-3.9,2.5-1.8,5.6c-0.2,0.2-0.5,0.4-0.6,0.8c0,0-4.1,5.8,0.7,9.1c0,0,1.9,1.1,3.7,0.6c0,0-4.4,3.2-2.6,5.5c0,0,4.8,3.9,6.3-0.3
		c0,0,0.5,6.8,5,4.4c0,0,4.9-2.5,2-5.2c0,0-2.6-2.2-1.6-3.8c0,0,1.5-7,4.2-7.5c0.8,0.3,1.5,0.4,1.5,0.4c1-2,5.7-0.9,5.7-0.9
		c2.3-0.2,4.8,1.2,7,3c-0.6,1.4-2.7,6.1-6,6.1c0,0-5.9-1.7-6.9,1.2c0,0-3.7,4.8-0.3,6.5c0,0,0.9,1.5,3.1,0.5c0,0,0,8.3,5.3,4.9
		c0,0,3.2-3.6,1.3-6.6c0,0,2.6-6.6,4.9-7.7l1.7-2c1.6,1.6,2.6,2.9,2.6,2.9c1.2,1.1,3.3,4.2,5.6,7.8c-1.8,1.2-4.8,1.1-4.8,1.1
		c-3.1-0.2-7.9,0.5-7.9,0.5c-4.2,2.4-1.8,9.6-1.8,9.6c7.4,6.7,9.5,1.5,9.5,1.5c5.5-0.9,4.6-8,4.6-8l2.8-0.7c1.4,2.4,2.8,4.7,4,6.8
		c-0.5-0.6-1.1-1.2-2-1.5c0,0-2.2,6.5-6.2,6.5c0,0-5.9-1.7-6.9,1.2c0,0-3.7,4.8-0.3,6.5c0,0,0.9,1.5,3.1,0.5c0,0,0,8.3,5.3,4.9
		c0,0,3.2-3.6,1.3-6.6c0,0,2.6-6.6,4.9-7.7l1.8-2c0,0,0,0,0,0c1.4,2.4,2.3,4,2.3,4c1.2,1.3,2.5,3.8,3.7,6.7c-1,1.4-3.3,2.1-3.3,2.1
		c-2.2,0.6-5.5,2.4-5.5,2.4c-2.5,2.9,0.4,7.8,0.4,7.8c6.4,3.4,7-1.2,7-1.2c3.7-2.1,1.8-7.3,1.8-7.3l0.9-0.6c1.1,2.9,2.2,5.9,3.2,8.9
		c-0.8,0.5-1.6,0.7-1.6,0.7c-2.2,0.6-5.5,2.3-5.5,2.3c-2.5,2.9,0.4,7.8,0.4,7.8c1.2,0.6,2.1,1,2.9,1.1c-0.7,2.6,3.8,4.6,3.8,4.6
		c1.3,1.2,3.2,0.3,4.6-0.6c1.5,7.5-1.6,7.7-1.6,7.7c2.8,0.6,5.1,0.5,7,0.1c-0.9,2.8-1.9,5.6-3,8.5c-0.5-1.8-1.6-3.8-4-4.9
		c0,0-1.9-5.7-9.5-0.8c0,0-2.7,6.5,1.4,9.9c0,0,4.8,1.9,7.9,2.4c0,0,0.6,0.1,1.5,0.4c-1.1,2.7-2.3,5.4-3.6,8.2c0,0-0.2,0.7-0.4,2
		c-2.8-0.5-7.3-3.9-7.3-3.9c0-3.6-4.5-5-4.5-5c-6.3-0.1-2,7-2,7c-2.4,0.3-2.4,2-2.4,2c-2,3.2,3.6,5.4,3.6,5.4c2.4,2,6.5-2.6,6.5-2.6
		c1.6-1,3.7-0.5,5.4,0.3c-0.9,3.6-2.2,8.8-4,14.4c-1.3-1.3-2.3-3-2.3-3c-1.8-3.1-5.2-7.4-5.2-7.4c-4.3-2.9-8.1,2.8-8.1,2.8
		c-0.4,10.3,4.8,9.9,4.8,9.9c4,4.9,8.6,0.7,8.6,0.7l0.9,1c-1.5,4.5-3.3,9.1-5.3,13.4c-1.5-0.8-5.6-3.2-6-7c0,0,0.7-6.8-2-8
		c0,0-4.7-4.3-5.7-0.5c0,0-1.1,1.1,0,3.6c0,0-7.2-0.1-3.5,6.1c0,0,3.6,3.7,6,1.6c0,0,6.1,3.1,7.4,5.8l2,2.1c-2.1,3.9-4.4,7.4-7,10
		c0,0,0.4,6.8-4.4,10.9c0,0-3,1.5-7.4-8.1c0,0-1.8-3.7-4.6-9.1c0.4-0.1,0.6-0.2,0.6-0.2l0.1-3c-0.8-2.9,1.5-9.6,1.5-9.6
		c3.1-0.3,3.2-5.6,3.2-5.6c-1.4-7.2-6.5-1.8-6.5-1.8c-0.8-2.7-2.3-2.6-2.3-2.6c-3.2-2-3.8,4.5-3.8,4.5c-1.1,2.9,3.8,7.2,3.8,7.2
		c1.3,1.9,1.3,4.3,1,6.4c-2.7-5-5.9-10.8-9.3-16.5c0-3.2,1.7-7.9,1.7-7.9c3.1-0.3,3.2-5.6,3.2-5.6c-1.4-7.2-6.5-1.8-6.5-1.8
		c-0.8-2.7-2.3-2.6-2.3-2.6c-3.2-2-3.8,4.5-3.8,4.5c-0.2,0.4-0.2,0.8-0.2,1.2c-1.6-2.3-3.2-4.3-4.8-6.2c-0.1-3.2,1.7-8.4,1.7-8.4
		c3.1-0.3,3.2-5.6,3.2-5.6c-1.4-7.2-6.5-1.8-6.5-1.8c-0.8-2.7-2.3-2.6-2.3-2.6c-3.2-2-3.8,4.5-3.8,4.5c-1.1,2.9,3.8,7.2,3.8,7.2
		c0.7,1,1,2.2,1.1,3.4c-1.3-1.3-2.5-2.4-3.6-3.2c0,0-1.4-3.2-3.6-6.6c-0.3-3.2,1.6-8.8,1.6-8.8c3.1-0.3,3.2-5.6,3.2-5.6
		c-1.4-7.2-6.5-1.8-6.5-1.8c-0.8-2.7-2.3-2.6-2.3-2.6c-3.2-2-3.8,4.5-3.8,4.5c-1.1,2.9,3.8,7.2,3.8,7.2c0.7,1,1,2.2,1.1,3.4
		c-2-2.1-4.4-3.8-6.9-4.1c-0.8-1.9-1.2-3.7-1.2-3.7c-1.1-1.8,1.4-3.7,1.4-3.7c2.7-2.4-2.3-5.5-2.3-5.5c-4.6-2.9-4.8,3.8-4.8,3.8
		c-1.7-4.4-6.3-1.1-6.3-1.1c-1.8,2,2.8,5.8,2.8,5.8c-1.8-0.7-3.7,0.1-3.7,0.1c-4.7,2.8-0.2,9.1-0.2,9.1c1.7,3.9,6.7-3.2,6.7-3.2
		c1.6-0.6,4.3,1.6,6.2,3.4c0,1.9,0.3,4.1,1.1,6.6c-0.3-0.2-0.6-0.4-0.6-0.4c-2.7-2.1-7.3-4.5-7.3-4.5c-4.8-0.6-6,6.6-6,6.6
		c3.5,9.9,7.8,7,7.8,7c5.3,2.6,7.8-3.6,7.8-3.6l1,0.4c0.3,0.5,0.6,1,1,1.5c0,0,1.3,1.3,3.4,3.3c-3.3,1.1-4.1,6.4-4.1,6.4
		c3.5,9.9,7.8,7,7.8,7c3.6,1.8,5.9-0.5,7-2.2c3.7,4.2,7.5,8.9,10.2,13.1c-2,0-3.7-0.3-3.7-0.3c-1.4-3.3-5.9-2.2-5.9-2.2
		c-5.4,3.2,1.1,7.5,1.1,7.5c-1.9,1.6-1.2,3.2-1.2,3.2c-0.4,4,5.2,3,5.2,3c2.8,0.6,4.5-5.9,4.5-5.9c0.5-0.9,1.2-1.5,2.1-1.9
		c1.2,2.2,3.2,6,5.4,10.5l-1,0.3c-2,1.6-8.6,0.7-8.6,0.7c-1.4-3.3-5.9-2.2-5.9-2.2c-3.3,2-2.1,4.4-0.7,6c-2.8,0.6-5,4.1-3,7.6
		c0.7,1.3-10.9,15.6-10.9,15.6s-0.6-15.2-1.1-16.1c-2.4-5-6.5-7.2-10.5-3.7c-2.9,2.6-1.6,8.2,0.3,12.4c-1.2-0.9-2.3-2.1-2.8-4
		c-1.9-6.7-0.3-8.6,2.8-12.3c3-3.8,6.5-10.5,3.6-14c-3.4-4.2-7.7-2.6-11,1.9c-3.2,4.5-8.2,17.7-11.3,23.4c-0.5,0.8-1,1.8-1.5,2.8
		c-1.9-3.4-5.7-10-7.9-14.6c2.3-4.8,6.3-10.1,8.8-13.1c3-3.8,0.1-8.5-3.4-8.3c-2.4,0.1-7.6,4.9-10.6,7.8c-0.9-2.6-1.6-4.9-2.1-6.5
		c-1.2-3.8-6.7-5-9.5-0.4c-2.9,4.6,5.6,22.1,6.4,25c0.7,2.9-8.7,0.6-11.8,0.9c-3.2,0.3-5.7,7.6,0.5,9c6.2,1.4,9.1-0.9,12.7,0.2
		c1.7,0.5,4.1,3.8,6.6,7.4c-0.2,0.3-0.5,0.5-0.7,0.8c-0.1,0.2-0.2,0.5-0.3,0.8c-0.2-0.2-0.4-0.4-0.6-0.7c-3.5-4.1-6.7-6.2-10.1-3.7
		c-1.2,0.9-1.9,2.6-1.9,4.5c-2.4,1-5.2,2.6-8.6,1.2c-4.8-1.9-6.3-3.7-7.2-6.4c0.7-0.5,2.3-1.7,0.2-3.4c0,0-0.5-0.2-1.2-0.3
		c-0.1-0.4-0.2-0.9-0.4-1.3c0.2,0.1,0.3,0.1,0.5,0.1c0,0,2.7,1,2.5-1c0,0,0.3-0.7-0.6-1.6c0,0,3.1-1.5,0.5-3.6c0,0-2.1-0.9-2.8,0.6
		c0,0-0.7,0-1.5-0.2c0.8-2.2,1.6-4.5,2.3-6.7c0.9,0.2,2.2,0.6,2.7,1.8c0,0,0.8,3.3,2.2,3.2c0,0,2.7,0.9,2.5-1c0,0,0.3-0.7-0.6-1.6
		c0,0,3.1-1.5,0.5-3.6c0,0-2.1-0.9-2.8,0.5c0,0-2.9-0.1-4-0.9c0.5-1.6,1-3.2,1.5-4.9c0.8,0,2.8,0.3,3.6,1.9c0,0,0.8,3.3,2.2,3.2
		c0,0,2.7,0.9,2.5-1c0,0,0.3-0.7-0.6-1.6c0,0,3.1-1.5,0.5-3.6c0,0-2.1-0.9-2.8,0.6c0,0-3.2-0.1-4.2-1.1l-0.7-0.3
		c0.3-1.2,0.7-2.4,1-3.6c0.6,0,1.1,0,1.3,0.4c0,0,2.2,2.1,3.1,2.9c0,0,3,0.9,2.2-1.6c0,0,0.4-2.1-0.6-2.1c0,0,1.7-3.1,0-3.6
		c0,0-2.6-1.1-3.6,0.2c0,0-0.4,1.3-1.7,1.5c0,0-0.1,0-0.2,0.1c0.3-1.4,0.7-2.8,1-4.2c0.6-0.5,1.4-0.8,2.2-0.6c0,0,2.6,1.6,3.4,0.4
		c0,0,2.3-1.7,0.8-2.9c0,0-0.3-0.8-1.4-0.7c0,0,0.9-3.8-2-3c0,0-1.9,1.2-1.3,2.9c0,0-0.5,0.7-1.2,1.4c0.5-2.7,0.9-5.2,1.1-7.7
		c0.2,0.1,0.5,0.3,0.7,0.5c0,0,1.7,2.9,3,2.3c0,0,2.8-0.1,2-2c0,0,0.1-0.8-1-1.4c0,0,2.4-2.7-0.6-3.6c0,0-2.2-0.1-2.4,1.6
		c0,0-0.6,0.2-1.4,0.4c0.1-1.6,0.1-3.1,0.1-4.5c0.6,0.8,1.6,1.8,2.4,1.4c0,0,2.8-0.1,2-2c0,0,0.1-0.8-1-1.4c0,0,2.4-2.7-0.6-3.6
		c0,0-2.2-0.1-2.4,1.6c0,0-0.2,0.1-0.5,0.2c-0.2-2.1-0.6-4.1-1.2-5.9c0,0,0-0.5,0-1.2c0.9-0.3,2.5-0.5,3.5,0.6c0,0,1.7,2.8,2.9,2.3
		c0,0,2.8-0.1,2-2c0,0,0.1-0.8-1-1.4c0,0,2.4-2.7-0.6-3.6c0,0-2.2-0.1-2.4,1.6c0,0-2.9,1.1-4.1,0.6l-0.3,0c0.1-1.4,0.2-3.2,0.4-5.2
		c0.7-0.3,2.7-0.8,3.9,0.4c0,0,1.7,2.8,2.9,2.3c0,0,2.8-0.1,2-2c0,0,0.1-0.8-1-1.4c0,0,2.4-2.7-0.6-3.6c0,0-2.2-0.1-2.4,1.6
		c0,0-2.9,1.1-4.1,0.6l-0.5,0c0.2-1.3,3.3-4.9,4.1-4.3c0,0,2.7,1.2,3.7,1.6c0,0,3-0.3,1.6-2.4c0,0-0.3-2.2-1.2-1.8
		c0,0,0.3-1.8-0.1-2.8c0.8-0.2,2-0.8,1-2.3c0,0-0.3-2.2-1.2-1.8c0,0,0.7-3.6-1-3.4c0,0-2.7,0-3.3,1.6c0,0,0,0.4-0.1,0.8
		c-0.3-0.7-0.7-1.5-1.2-2.3c0.1-0.1,0.2-0.2,0.2-0.2c0.3-0.9,1.7-0.1,1.7-0.1c1.6,0.8,1.3-2.3,1.3-2.3c-0.2-2.8-2.7-1.5-2.7-1.5
		c1.1-1.8-1.4-3.3-1.4-3.3c-1.2-0.4-1.3,2.6-1.3,2.6c-0.2-1-1.1-1.7-1.1-1.7c-2.3-1.6-3.3,1.9-3.3,1.9c-0.9,1.6,3.1,2.5,3.1,2.5
		c0.2,0.2,0.3,0.4,0.4,0.8c-0.5,0.3-1,0.8-1.6,1.6c0-0.1-0.1-0.1-0.1-0.1c0.6-1.6-1.3-3.1-1.3-3.1c-2.9-1.4-2,2.6-2,2.6
		c-1.1-0.4-1.4,0.4-1.4,0.4c-1.4,1,0.8,3.1,0.8,3.1c0.6,1.1,2.4,0.6,3.1,0.3c-0.3,1.8-0.7,4.5-1.1,7.5c-0.4-0.9-0.8-1.7-0.8-1.7
		c0.9-1.3-0.7-3.3-0.7-3.3c-2.6-2.1-2.5,2-2.5,2c-1.1-0.6-1.5,0-1.5,0c-1.6,0.6,0.2,3.2,0.2,3.2c0.5,1.5,3.4,1.1,3.4,1.1
		c0.6,0.1,1.2,0.5,1.6,1c-0.4,2.9-0.8,6-1.2,9c-0.5-0.9-0.4-1.8-0.4-1.8c-0.3-1.8-2.9-2.8-2.9-2.8c-1.7-0.8-1.5,2.9-1.5,2.9
		c-0.8-0.7-1.4,1.3-1.4,1.3c-1.7,1.5,1.2,2.9,1.2,2.9c1.1,0,3.8-0.1,3.8-0.1c0.3-0.1,0.6,0.1,0.9,0.3c-0.3,2.1-0.5,4-0.7,5.7
		c-1.3-0.5-3-1.9-3-1.9c0.1-1.7-2.1-2.5-2.1-2.5c-3-0.2-1.1,3.3-1.1,3.3c-1.1,0.1-1.2,0.9-1.2,0.9c-0.1,0.2-0.2,0.4-0.2,0.5
		c-2.7-1.7-3.2,0.2-3.2,0.2c-1.9,0.7-1.3,3.4-1.3,3.4l-1.4,0.7c-1.3-1.9-1.2-6.6,0.6-7.3c0,0,2.9-0.3,2.9-1.8c0,0,0.9-2.9-0.8-3.1
		c0,0-0.6-0.5-1.4,0.3c0,0-1.2-3.9-3.1-1.3c0,0-0.9,2.3,0.4,3.4c0,0-0.2,3.6-1.1,4.5l-0.4,1c-1.1-1.9-2.4-3.4-3.6-4.6
		c0.2-1.1,0.6-2.6,1.7-3.1c0,0,2.9-0.3,2.9-1.8c0,0,0.9-2.9-0.8-3.1c0,0-0.6-0.5-1.4,0.3c0,0-1.2-3.9-3-1.3c0,0-0.9,2.3,0.3,3.4
		c0,0-0.2,3.4-1.1,4.5c-1.9-1.5-3.4-2.1-3.4-2.1c-0.8-0.2-1.4-0.3-2.1-0.3c0-0.2,0.1-0.3,0.1-0.3c-1-0.3-1.4-3.1-1.4-3.1
		c-0.3-1.7-1-4.3-1-4.3c-1.2-2.1-3.3-0.4-3.3-0.4c-1.4,4.4,0.5,5.2,0.5,5.2c0.9,2.9,3.1,2,3.1,2l0.4,1c-1.2,0.4-2,1.1-2.5,1.8
		c-1.1-0.6-2.7-1.6-2.9-2.7c0,0,1.5-4.2-0.3-4.2c0,0-3.2-1-3.2,2.1c0,0,0.1,1.2,0.7,1.9c0,0-2.3-1.6-2.7-0.2c0,0-0.2,3.1,1.7,3.1
		c0,0-1.9,1.2-0.9,2.7c-0.1,0.1-0.2,0.2-0.3,0.4c0,0-2,2.8,0.3,4.4c0,0,0.9,0.5,1.8,0.3c0,0-0.7,0.5-1.1,1.2
		c-0.6-0.4-1.4-0.7-2.2-0.8c-1.6-0.1-3.9-0.3-6.5-0.6c2.1-3.5,5.4-9.4,5-11.6c-1.5-10-11.4-0.1-15.2-0.4c-3.8-0.3-4.8-5.4-4.8-5.4
		c3.2-2.4,6.1-4.7,7.6-6.4c3.5-4,4.1-8.4-0.6-10.6c-3.3-1.6-7.8,1.5-10.9,4.7c0.4-1.4,1.1-2.8,2.5-4c5.3-4.2,7.5-3.3,11.9-2.1
		c4.4,1.3,11.7,1.9,13.7-1.9c2.5-4.5-0.5-7.8-5.7-9c-5.1-1.2-18.7-0.8-24.9-1.5c-0.9-0.1-1.9-0.2-3-0.3c2.3-2.9,6.8-8.7,10-12.3
		c5,0.3,11.2,1.9,14.8,3c4.4,1.3,7.5-3,6.1-6.1c-1-2.1-7.1-5-10.8-6.6c2-1.7,3.8-3.2,5-4.2c2.9-2.5,2-7.7-3.1-8.6
		c-5.1-0.9-17.5,13.1-19.8,14.7c-2.3,1.7-3.7-7.5-5.1-10.2c-1.4-2.7-8.8-2.2-7.8,3.7c1,6,4.1,7.8,4.5,11.3c0.2,1.7-1.9,5.1-4.1,8.5
		c-0.3-0.1-0.6-0.2-0.9-0.3c-0.2,0-0.5,0-0.8,0c0.1-0.3,0.2-0.5,0.4-0.8c2.3-4.6,3-8.2-0.4-10.3c-1.3-0.8-3-0.7-4.6-0.1
		c-1.8-1.8-4.2-3.7-4.2-7.2c-0.1-6.7,1.9-8,5.7-10.7c3.7-2.7,8.6-8.1,6.9-12c-2.1-4.7-6.5-4.4-10.6-1c-4.1,3.3-12,14.3-16.4,18.7
		c-0.6,0.6-1.3,1.4-2.1,2.2c-0.9-3.6-2.7-10.7-3.6-15.5c3.3-3.8,8.4-7.7,11.4-9.9c3.7-2.7,2.2-7.8-1-8.5c-2.3-0.5-8.3,2.6-11.8,4.6
		c-0.1-2.6-0.2-5-0.3-6.5c-0.2-3.8-4.9-6.3-8.7-2.8c-3.8,3.5-0.4,21.8-0.4,24.7c-0.1,2.9-8.2-1.6-11.1-2.2c-3-0.6-7.2,5.6-1.8,8.5
		c5.4,2.8,8.7,1.5,11.7,3.4c0.5,0.3,1.1,1,1.6,2c-4.2-0.4-9.8-1-14.1-1.9c-4.4-0.9-13.2-3.6-17.3-4.9c0.9-0.7,1.7-1.3,2.3-1.9
		c4.7-4.1,16.1-11.5,19.6-15.4c3.5-3.9,4.1-8.3-0.5-10.6c-3.9-2-9.5,2.7-12.4,6.3c-2.9,3.6-4.3,5.5-11,5.1
		c-6.7-0.4-7.1-9.5-12.7-5.7c-2.2,1.5-2.6,3.2-2.2,4.9c-0.6,0.2-1.3,0.3-2,0.5c0.8-4,1.9-10.7,0.7-12.7c-1.5-2.5-5.7-2.8-7.7,0.1
		c-1.5-2-2.5-3.7-1.1-4.2c2.7-1,21.1-3.5,23.3-8.2c2.1-4.7-1.7-8.4-5.4-7.4c-1.5,0.4-3.8,1.1-6.3,1.8c0.8-4,1.8-10.7,0.6-12.7
		c-1.8-2.9-7-2.7-8.4,1.7c-0.7,2.3-12.3,0-12.3,0s4-6.6,4.8-8.7c1.9-4.9,0.8-9.3-4.3-9.7c-3.7-0.3-6.8,4.2-8.5,8.3
		c-0.2-1.5,0-3,0.9-4.6c3.4-5.8,5.8-5.8,10.4-6.2c4.6-0.4,11.6-2.4,12.2-6.7c0.7-5.1-3.3-7.1-8.5-6.4c-5.2,0.7-17.7,5.9-23.8,7.4
		c-0.9,0.2-1.9,0.5-2.9,0.8c1.1-3.6,3.3-10.5,5-15.1c4.8-1.5,11.2-2.2,14.9-2.5c4.6-0.4,6-5.5,3.6-7.8c-1.7-1.6-8.4-2.1-12.5-2.3
		c1.2-2.3,2.4-4.3,3.2-5.7c1.9-3.4-0.9-8-6-6.9c-5.1,1-11.7,18.4-13.3,20.8c-1.6,2.4-6.1-5.7-8.4-7.7c-2.3-2-9.1,1.1-6,6.3
		c3.1,5.2,6.6,5.8,8.2,9c0.8,1.5,0,5.4-0.8,9.4c-0.3,0-0.6,0-1,0.1c-0.2,0.1-0.5,0.2-0.7,0.3c0-0.3,0-0.6,0-0.9
		c0.6-5.1-0.1-8.7-4.1-9.5c-1.5-0.3-3,0.4-4.4,1.6c-2.3-1-5.2-2-6.5-5.2c-2.5-6.2-1-8.1,1.5-12c2.5-3.9,5.2-10.6,2.2-13.7
		c-3.6-3.7-7.6-1.8-10.3,2.8c-2.7,4.6-6.2,17.7-8.7,23.3C56.3,65,55.9,66,55.5,67c-1.9-2.7-5.3-7.6-7.8-11.5c3-3.1,4-7.4,4.1-11.8
		c0.7-1.2,1.4-2.3,2-3.2c2.4-3.6-0.3-7.5-3.4-7.6c-1.7-4.4-5.1-5.9-3.8-9.4c1.6-4.3,9.2-3.4,10.4-7.7c0.1-0.4,0.2-0.9,0.2-1.4
		c0-0.1,0-0.2,0-0.3c0-0.5,0.1-1,0.1-1.5c0-0.1,0-0.2,0-0.3c0-0.6,0-1.1-0.1-1.7c0,0,0,0,0,0c0-0.6-0.1-1.3-0.2-1.9
		c0-0.1,0-0.1,0-0.2c-0.1-0.6-0.2-1.3-0.4-1.9c0,0,0-0.1,0-0.1c-0.5-1.9-1.1-3.7-2-4.8c0,0,0,0,0,0c-0.4-0.6-0.9-1-1.4-1.2
		C50-0.8,42,0,42.1,7.6c0.1,7.6-3.9,10.1-7.9,11c-4,0.9-9.7-3.1-16.8,11.7c-2.3,4.8-3.1,9.4-3.3,13.7c-1.7,2.1-3,4.8-3.7,7.1
		c-0.9,2.7-1.5,4.6-3.3,6.2c-0.4-9.9-6-15.4-6.9-22.8l0,52.3v507.9h1889.5c0,0,1.2,0.5,1.8-4.6C1892,584.9,1887.2,582.5,1884,584.6z
		 M498.1,93.3c0.9-0.4,1.7-0.5,2.3-0.1c0,0,2.4,1,4.6,2c-1.7,0.3-3.8,1.1-4.5,3c0,0,0.1,3-2.4,4.3c0,0-2.7,2.8-3.9,3.3
		C495.1,101.3,496.4,97,498.1,93.3z M404.1,142.6c0,0-0.6-0.8-1.4-1.8c0.6-0.1,1.2-0.6,1.3-1.7c0,0,0.3-3.5,2.1-3.1
		c0,0,2.9-0.6,5.4-0.1c-0.3,1.1-0.3,2,0.1,2.7C410.1,140.1,406.3,143.7,404.1,142.6z M463,160c-2.4-0.3-2.8,1.4-2.8,1.4
		c-1.8,1.8,0.1,4,1.5,5.2c-0.4,2.4,0.9,4.9,0.9,4.9l-2.8,2.9c-1.4-3.8-2.4-6.4-2.4-6.4c-1.3-3.3-3.4-6.9-5.5-10.2l0,0
		c0.4-2.3,4.2-2.9,4.2-2.9c2.3-0.3,5.8-1.5,5.8-1.5c1.6-1.4,1.5-3.7,1.1-5.4c1.1,1.1,2.6,1.7,2.6,1.7c2.3,2.1,6.6-2.3,6.6-2.3
		c1.6-0.8,3.4-0.4,5,0.4c-0.2,1.8-0.3,3.5-0.4,4.9c0,0,0.7,4.7,0.6,13.1l-0.2-0.1c-2.6-0.4-7.4-5.8-7.4-5.8c0.7-3.4-3.6-5.9-3.6-5.9
		C460.1,152.1,463,160,463,160z M463.9,174.8c0.9-1.5,2.7-2.5,2.7-2.5c2-1.1,4.9-3.6,4.9-3.6c0.4-0.7,0.5-1.5,0.5-2.2
		c2.2,0.6,4.4,2.6,5.3,3.7c-0.2,3.9-0.6,8.4-1.3,13.5c-2.7-1.1-6.1-3.9-6.1-3.9c0.1-3.6-4.4-5.2-4.4-5.2
		C465,174.6,464.4,174.6,463.9,174.8z M465.7,189.5c2.3,0.2,5.3-2.8,5.3-2.8c1.5-0.8,3.2-0.5,4.7,0.2c-0.8,5.3-2,11.2-3.6,17.5
		c-0.1,0-0.1,0-0.2,0C470.5,201.5,468.1,195.7,465.7,189.5z M319.8,223.3c0.4-0.2,0.8-0.2,1.1,0c0,0,1.2,0.5,2.2,1
		c-0.8,0.2-1.8,0.5-2.2,1.5c0,0,0,1.4-1.2,2.1c0,0-1.3,1.4-1.9,1.6C318.4,227.2,319,225.1,319.8,223.3z M309.1,267.1
		c-1.3-0.5-2.9-1.9-2.9-1.9c0.1-1.7-2.1-2.5-2.1-2.5c-0.4,0-0.6,0-0.9,0.1c0.4-0.7,1.3-1.2,1.3-1.2c1-0.5,2.4-1.7,2.4-1.7
		c0.2-0.3,0.3-0.7,0.3-1c1.1,0.3,2.1,1.3,2.6,1.8C309.6,262.5,309.5,264.7,309.1,267.1z M297.4,254.5c0.2-1.1,2-1.4,2-1.4
		c1.1-0.1,2.8-0.7,2.8-0.7c0.8-0.7,0.7-1.8,0.5-2.6c0.6,0.5,1.3,0.9,1.3,0.9c1.1,1,3.2-1.1,3.2-1.1c0.8-0.4,1.7-0.2,2.4,0.2
		c-0.1,0.9-0.2,1.7-0.2,2.3c0,0,0.3,2.3,0.3,6.3l-0.1-0.1c-1.2-0.2-3.6-2.8-3.6-2.8c0.3-1.7-1.7-2.9-1.7-2.9c-3-0.8-1.6,3-1.6,3
		c-1.2-0.1-1.3,0.7-1.3,0.7c-0.9,0.9,0.1,1.9,0.7,2.5c-0.2,1.2,0.4,2.4,0.4,2.4l-1.4,1.4c-0.7-1.8-1.2-3.1-1.2-3.1
		C299.5,257.9,298.5,256.1,297.4,254.5L297.4,254.5z M304,287c-0.2-0.9-0.7-1.8-1.9-2.3c0,0-0.9-2.8-4.6-0.4c0,0-1.3,3.2,0.7,4.8
		c0,0,2.3,0.9,3.8,1.2c0,0,0.3,0.1,0.7,0.2c-0.3,0.7-0.6,1.4-0.9,2c-0.1,0-0.1,0-0.2,0c-1.7,0-3,0.5-3.9,1.3
		c-0.3-0.2-0.5-0.3-0.5-0.3c0-1.7-2.2-2.4-2.2-2.4c-3-0.1-1,3.4-1,3.4c-1.1,0.2-1.2,1-1.2,1c-1,1.5,1.8,2.6,1.8,2.6
		c0.3,0.3,0.8,0.3,1.2,0.1c0,0.7,0,1.4,0.1,2.2c-0.6-0.9-1.2-1.5-1.2-1.5c-2.1-1.4-3.9,1.4-3.9,1.4c-0.2,5,2.3,4.8,2.3,4.8
		c1.9,2.4,4.2,0.3,4.2,0.3l0.4,0.5c-0.7,2.2-1.6,4.4-2.6,6.5c-0.7-0.4-2.7-1.5-2.9-3.4c0,0,0.3-3.3-1-3.9c0,0-2.3-2.1-2.7-0.2
		c0,0-0.5,0.5,0,1.7c0,0-2.2,0-2.2,1.5c-0.3-0.3-0.6-0.5-0.9-0.6c0-0.2,0-0.4,0-0.4c-0.7-3.5-3.1-0.8-3.1-0.8
		c-0.4-1.3-1.1-1.3-1.1-1.3c-1.6-1-1.8,2.2-1.8,2.2c-0.1,0.3-0.1,0.7,0,1.1c-0.1,0.1-0.2,0.1-0.2,0.2c-0.1,0.1-0.1,0.3-0.2,0.4
		c-0.6-1-1.2-2.1-1.8-3.1c0-1.6,0.8-3.9,0.8-3.9c1.5-0.1,1.6-2.7,1.6-2.7c-0.7-3.5-3.1-0.8-3.1-0.8c-0.4-1.3-1.1-1.3-1.1-1.3
		c-1.6-1-1.8,2.2-1.8,2.2c-0.1,0.2-0.1,0.4-0.1,0.6c-0.8-1.1-1.6-2.1-2.3-3c-0.1-1.6,0.8-4.1,0.8-4.1c1.5-0.1,1.6-2.7,1.6-2.7
		c-0.7-3.5-3.1-0.8-3.1-0.8c-0.4-1.3-1.1-1.3-1.1-1.3c-1.6-1-1.8,2.2-1.8,2.2c-0.6,1.4,1.8,3.5,1.8,3.5c0.3,0.5,0.5,1.1,0.5,1.7
		c-0.6-0.6-1.2-1.2-1.7-1.5c0,0-0.7-1.5-1.8-3.2c-0.2-1.5,0.8-4.3,0.8-4.3c1.5-0.1,1.6-2.7,1.6-2.7c-0.7-3.5-3.1-0.9-3.1-0.9
		c-0.4-1.3-1.1-1.3-1.1-1.3c-1.6-1-1.8,2.2-1.8,2.2c-0.6,1.4,1.8,3.5,1.8,3.5c0.3,0.5,0.5,1,0.5,1.6c-1-1-2.1-1.8-3.4-2
		c-0.4-0.9-0.6-1.8-0.6-1.8c-0.5-0.9,0.7-1.8,0.7-1.8c1.3-1.2-1.1-2.7-1.1-2.7c-0.4-0.3-0.8-0.3-1.1-0.3c-0.7-1.5-2.1-2.5-3.8-2.7
		c-1.6-0.1-3.9-0.4-6.5-0.6c2.2-3.4,5.6-9.3,5.2-11.6c-0.5-2.9-4.3-4.6-7.2-2.6c-0.7-2.4-1-4.3,0.4-4.3c2.9,0,21,4.2,24.7,0.6
		c1.9-1.9,2.2-4.1,1.5-5.8c0.5,0,0.9-0.2,1.1-0.9c0,0,0.3,3.3,2.4,2.1c0,0,2.4-1.2,1-2.5c0,0-1.3-1.1-0.8-1.9c0,0,0.7-3.4,2-3.6l0,0
		c0.4,0.2,0.7,0.2,0.7,0.2c0.5-1,2.8-0.4,2.8-0.4c1.1-0.1,2.3,0.6,3.4,1.4c-0.3,0.7-1.3,2.9-2.9,2.9c0,0-2.9-0.8-3.3,0.6
		c0,0-1.8,2.3-0.2,3.1c0,0,0.4,0.7,1.5,0.2c0,0,0,4,2.6,2.4c0,0,1.5-1.7,0.6-3.2c0,0,1.3-3.2,2.4-3.7l0.8-1c0.8,0.8,1.3,1.4,1.3,1.4
		c0.6,0.5,1.6,2,2.7,3.8c-0.9,0.6-2.3,0.5-2.3,0.5c-1.5-0.1-3.8,0.3-3.8,0.3c-2,1.2-0.9,4.6-0.9,4.6c3.6,3.2,4.6,0.7,4.6,0.7
		c2.6-0.4,2.2-3.9,2.2-3.9l1.4-0.4c0.7,1.2,1.4,2.4,2,3.4c-0.2-0.3-0.6-0.6-1-0.8c0,0-1.1,3.1-3,3.2c0,0-2.9-0.8-3.3,0.6
		c0,0-1.8,2.3-0.2,3.1c0,0,0.4,0.7,1.5,0.2c0,0,0,4,2.6,2.4c0,0,1.5-1.7,0.6-3.2c0,0,1.3-3.2,2.4-3.7l0.9-1l0,0
		c0.7,1.1,1.1,1.9,1.1,1.9c0.6,0.6,1.2,1.8,1.8,3.2c-0.5,0.7-1.6,1-1.6,1c-1.1,0.3-2.7,1.1-2.7,1.1c-1.2,1.4,0.2,3.8,0.2,3.8
		c3.1,1.6,3.4-0.6,3.4-0.6c1.8-1,0.9-3.5,0.9-3.5l0.4-0.3c0.5,1.4,1.1,2.9,1.5,4.3c-0.4,0.2-0.8,0.3-0.8,0.3
		c-1.1,0.3-2.7,1.1-2.7,1.1c-1.2,1.4,0.2,3.8,0.2,3.8c0.6,0.3,1,0.4,1.4,0.5c-0.3,1.3,1.8,2.3,1.8,2.3c0.6,0.6,1.5,0.2,2.2-0.3
		c0.7,3.6-0.8,3.7-0.8,3.7c1.3,0.3,2.4,0.3,3.4,0.1C305,284.3,304.5,285.6,304,287z M307.1,277.1c-0.7-1.4-1.8-4.2-3-7.2
		c1.1,0.1,2.6-1.3,2.6-1.3c0.7-0.4,1.5-0.2,2.3,0.1C308.5,271.3,307.9,274.1,307.1,277.1C307.1,277.1,307.1,277.1,307.1,277.1z
		 M1676.6,506.6c0.2,0.3,0.3,0.5,0.4,0.7C1676.9,507,1676.7,506.7,1676.6,506.6z"/>
	<path class="st0" d="M424.4,121.4c0,0,1.5,5.2,1,6.2c0,0,1.4,2.8,3.5,0.6c0,0-1.3-6.1,0.4-7.1c0,0,3.9-4.4,5.4-6.1
		c0,0,1.9-6.7-2.6-5.9c0,0-3.7-1.7-3.8,0.5c0,0-5.3-5.4-6.3-1.5c0,0-2.1,5.8,0,8.7C421.9,116.7,424.2,118.1,424.4,121.4z"/>
	<path class="st0" d="M284,236.9c0,0,0.7,2.5,0.5,3c0,0,0.7,1.4,1.7,0.3c0,0-0.6-2.9,0.2-3.4c0,0,1.9-2.1,2.6-3c0,0,0.9-3.2-1.3-2.9
		c0,0-1.8-0.8-1.8,0.3c0,0-2.6-2.6-3.1-0.7c0,0-1,2.8,0,4.2C282.9,234.7,284,235.4,284,236.9z"/>
</g>
</svg>
