<svg xmlns="http://www.w3.org/2000/svg" viewBox="0 0 337.2 213"><path d="M199.1 115c-6.5-5.1-11.9-11.5-18.5-16.4-6.9-3.8-13.9-6.4-21.2-5.1-7.1-.6-14.4 2.2-21.3 5-4.5.9-11.4-1.9-13.4 6.7-.2 3.6.8 6.8 2.3 9.4-6.4 2.8-12.2-5.6-18.6-5.2-1.7-1-4.1-.2-5.9-.9-1.4 3.9 1.6 7.8 2.6 11.4 1 0 1.4 1.5 1.8 2.5.8 1.8-.5 2.6-.4 4.3-1 5.1-2.4 10.5-.8 16 1.4 1.8 3.6.4 5.1-.7 5.8-3.8 10.6-10.9 17.6-11.3-.4 1.1-1.3 3.1-1.1 4.5.2 1.9 1.2 2.8 1.9 4.2 2.1 1.2 4.5-1.5 6.6-.3 5.6.5 10.2-4.9 15.9-3.1l.3-.4 5.8 1.4c3.1 2.5 6 8.9 9.6 6.2 1.9-2 1.5-5.6 2.4-8.1 9-1.8 17-7 26.1-9.9 1.3-.8 2.7-1.9 2.9-4.3-.6-2.3 1.7-3.9.3-5.9zm138.1 81.2l-.1.2c0 .2-.1.4-.3.5l-1.7 1.1c-.9.9-2.2 1.1-3.1 2.2-2.3.9-4.2 2.4-6.4 3.6-3.2 1.2-5.9 3.4-9.6 3.5-.4 1.1-1.4 1.7-2.2 2.7-.5.9-1.3 1.5-2.1 2.1-.5.2-1.1.5-1.6.8-.6.2-1.4.6-1.9-.1-.2-.4-.3-.9.1-1.2-.4-2.1 2.2-2.3 3-3.7-2.1.2-3.7-.2-5.6-.5-1.2-.4-2.6-.6-3.8-1-.7-.2-1.4-.3-2-.5v.3c.1.2.2.4.1.6-.2.4-.5.7-.8.9-1.7.7-3.3 1.7-5.3 1.7l-.2-.1c-.7-.1-1.3-.5-1.9-1-.1-.1-.3-.2-.4-.4 0-.1-.1-.1-.1-.2-.7-1.2 0-2.5.5-3.5h-.5c-.2 0-.3.1-.3.1l-.6.2c-1 .5-1.7 1.5-2.7 2.1-.3.2-.6.4-.9.7l-.4.3h-.1c-.4.2-.8.3-1.3.1-.7-.2-.5-1.2-1-1.6.2-.4-.2-.9-.1-1.3.3-.9-.9-.9-1.3-1.3-.1-.5-.6-.6-.7-1.1-.6-.4-.9-1-1.3-1.6-.1-.1-.1-.2-.2-.3-.9-.5-1.3-1.5-1.6-2.5-.1-.2.3-.3.1-.6-.1-.4.4-.4.6-.5 1.9-.2 3.8-.3 5.5.2.6 0 1.3.2 1.9.4l1.2.3c.3 0 .6.1.8 0-.5-.9-1.1-2.1-.9-3.2.2-1 .8-1.7 1.4-2.5 1.2-.7 2.4-1.5 3.9-1.7.2-.2.6-.4.8-.4l.1-.1c-.1-.5.5-.2.5-.6.1-.3.5-.1.7-.2.2-.4.7-.1 1-.4.7.2.8-.6 1.5-.3 0-.5.6-.3.9-.4 0-.1-.1-.2-.1-.3.3-.4.8-.2 1.3-.3-.1-.1-.2-.2-.2-.4.1-.3.7-.2.9-.3l-.1-.3c.2-.4.7 0 1.1-.3l-.4-.4c.3-.3.8-.1 1.2-.2-.1-.2-.4-.2-.4-.4.1-.5.7-.2 1.1-.4 0-.8.9-.4 1.3-.8 3.9-1 7.6.1 11.3.6 2 .6 4.2.8 6.2 1.5 4.9 1.5 9.2 4.7 13.8 7-.1.2.4.5.3.9 0 .3-.4.4-.4.7.2-.1.4 0 .6 0 .4.1.8.5.9.9-.1.2 0 .5 0 .7zm-167.6 0l-.1.2c0 .2-.1.4-.3.5l-1.7 1.1c-.9.9-2.2 1.1-3.1 2.2-2.3.9-4.2 2.4-6.4 3.6-3.2 1.2-5.9 3.4-9.6 3.5-.4 1.1-1.4 1.7-2.2 2.7-.5.9-1.3 1.5-2.1 2.1-.5.2-1.1.5-1.6.8-.6.2-1.4.6-1.9-.1-.2-.4-.3-.9.1-1.2-.4-2.1 2.2-2.3 3-3.7-2.1.2-3.7-.2-5.6-.5-1.2-.4-2.6-.6-3.8-1-.7-.2-1.4-.3-2-.5v.3c.1.2.2.4.1.6-.2.4-.5.7-.8.9-1.7.7-3.3 1.7-5.3 1.7l-.2-.1c-.7-.1-1.3-.5-1.9-1-.1-.1-.3-.2-.4-.4 0-.1-.1-.1-.1-.2-.7-1.2 0-2.5.5-3.5h-.5c-.2 0-.3.1-.3.1l-.6.2c-1 .5-1.7 1.5-2.7 2.1-.3.2-.6.4-.9.7l-.4.3h-.1c-.4.2-.8.3-1.3.1-.7-.2-.5-1.2-1-1.6.2-.4-.2-.9-.1-1.3.3-.9-.9-.9-1.3-1.3-.1-.5-.6-.6-.7-1.1-.6-.4-.9-1-1.3-1.6-.1-.1-.1-.2-.2-.3-.9-.5-1.3-1.5-1.6-2.5-.1-.2.3-.3.1-.6-.1-.4.4-.4.6-.5 1.9-.2 3.8-.3 5.5.2.6 0 1.3.2 1.9.4l1.2.3c.3 0 .6.1.8 0-.5-.9-1.1-2.1-.9-3.2.2-1 .8-1.7 1.4-2.5 1.2-.7 2.4-1.5 3.9-1.7.2-.2.6-.4.8-.4l.1-.1c-.1-.5.5-.2.5-.6.1-.3.5-.1.7-.2.2-.4.7-.1 1-.4.7.2.8-.6 1.5-.3 0-.5.6-.3.9-.4 0-.1-.1-.2-.1-.3.3-.4.8-.2 1.3-.3-.1-.1-.2-.2-.2-.4.1-.3.7-.2.9-.3l-.1-.3c.2-.4.7 0 1.1-.3l-.4-.4c.3-.3.8-.1 1.2-.2-.1-.2-.4-.2-.4-.4.1-.5.7-.2 1.1-.4 0-.8.9-.4 1.3-.8 3.9-1 7.6.1 11.3.6 2 .6 4.2.8 6.2 1.5 4.9 1.5 9.2 4.7 13.8 7-.1.2.4.5.3.9 0 .3-.4.4-.4.7.2-.1.4 0 .6 0 .4.1.8.5.9.9-.2.2-.1.5 0 .7-.1 0 0 0 0 0zM58.2 48.5l-.1.2c0 .2-.1.4-.3.5l-1.7 1.1c-.9.9-2.2 1.1-3.1 2.2-2.3.9-4.2 2.4-6.4 3.6-3.2 1.2-5.9 3.4-9.6 3.5-.4 1.1-1.4 1.7-2.2 2.7-.5.9-1.3 1.5-2.1 2.1-.5.2-1.1.5-1.6.8-.6.2-1.4.6-1.9-.1-.2-.4-.3-.9.1-1.2-.4-2.1 2.2-2.3 3-3.7-2.1.2-3.7-.2-5.6-.5-1.2-.4-2.6-.6-3.8-1-.7-.2-1.4-.3-2-.5v.3c.1.2.2.4.1.6-.2.4-.5.7-.8.9-1.7.7-3.3 1.7-5.3 1.7l-.2-.1c-.7-.1-1.3-.5-1.9-1-.1-.1-.3-.2-.4-.4 0-.1-.1-.1-.1-.2-.7-1.2 0-2.5.5-3.5h-.5c-.2 0-.3.1-.3.1l-.6.2c-1 .5-1.7 1.5-2.7 2.1-.3.2-.6.4-.9.7l-.2.4h-.1c-.4.2-.8.3-1.3.1-.7-.2-.5-1.2-1-1.6.2-.5-.2-.9-.1-1.3.3-.9-.9-.9-1.3-1.3-.1-.5-.6-.6-.7-1.1-.6-.4-.9-1-1.3-1.6-.1-.1-.1-.2-.2-.3-.9-.5-1.3-1.5-1.6-2.5-.1-.2.3-.3.1-.6-.1-.4.4-.4.6-.5 1.9-.2 3.8-.3 5.5.2.6 0 1.3.2 1.9.4.5.1.9.2 1.3.3.3 0 .6.1.8 0-.5-.9-1.1-2.1-.9-3.2.2-1 .8-1.7 1.4-2.5 1.2-.7 2.4-1.5 3.9-1.7.2-.2.6-.4.8-.4l.1-.1c-.1-.5.5-.2.5-.6.1-.3.5-.1.7-.2.2-.4.7-.1 1-.4.7.2.8-.6 1.5-.3 0-.5.6-.3.9-.4 0-.1-.1-.2-.1-.3.3-.4.8-.2 1.3-.3-.1-.1-.2-.2-.2-.4.1-.3.7-.2.9-.3l-.1-.3c.2-.4.7 0 1.1-.3l-.6-.5c.3-.3.8-.1 1.2-.2-.1-.2-.4-.2-.4-.4.1-.5.7-.2 1.1-.4 0-.8.9-.4 1.3-.8 3.9-1 7.6.1 11.3.6 2 .6 4.2.8 6.2 1.5 4.9 1.5 9.2 4.7 13.8 7-.1.2.4.5.3.9 0 .3-.4.4-.4.7.2-.1.4 0 .6 0 .4.1.8.5.9.9-.2.3-.1.5-.1.7 0 .1 0 0 0 0zm156.7-35.8l-.1.2c0 .2-.1.4-.3.5l-1.7 1.1c-.9.9-2.2 1.1-3.1 2.2-2.3.9-4.2 2.4-6.4 3.6-3.2 1.2-5.9 3.4-9.6 3.5-.4 1.1-1.4 1.7-2.2 2.7-.5.9-1.3 1.5-2.1 2.1-.5.2-1.1.5-1.6.8-.6.2-1.4.6-1.9-.1-.2-.4-.3-.9.1-1.2-.4-2.1 2.2-2.3 3-3.7-2.1.2-3.7-.2-5.6-.5-1.2-.4-2.6-.6-3.8-1-.7-.2-1.4-.3-2-.5v.3c.1.2.2.4.1.6-.2.4-.5.7-.8.9-1.7.7-3.3 1.7-5.3 1.7l-.2-.1c-.7-.1-1.3-.5-1.9-1-.1-.1-.3-.2-.4-.4 0-.1-.1-.1-.1-.2-.7-1.2 0-2.5.5-3.5h-.5c-.2 0-.3.1-.3.1l-.6.2c-1 .5-1.7 1.5-2.7 2.1-.3.2-.6.4-.9.7l-.4.3h-.1c-.4.2-.8.3-1.3.1-.7-.2-.5-1.2-1-1.6.2-.4-.2-.9-.1-1.3.3-.9-.9-.9-1.3-1.3-.1-.5-.6-.6-.7-1.1-.6-.4-.9-1-1.3-1.6-.1-.1-.1-.2-.2-.3-.9-.5-1.3-1.5-1.6-2.5-.1-.2.3-.3.1-.6-.1-.4.4-.4.6-.5 1.9-.2 3.8-.3 5.5.2.6 0 1.3.2 1.9.4l1.2.3c.3 0 .6.1.8 0-.5-.9-1.1-2.1-.9-3.2.2-1 .8-1.7 1.4-2.5 1.2-.7 2.4-1.5 3.9-1.7.2-.2.6-.4.8-.4l.1-.1c-.1-.5.5-.2.5-.6.1-.3.5-.1.7-.2.2-.4.7-.1 1-.4.7.2.8-.6 1.5-.3 0-.5.6-.3.9-.4 0-.1-.1-.2-.1-.3.3-.4.8-.2 1.3-.3-.1-.1-.2-.2-.2-.4.1-.3.7-.2.9-.3l-.1-.3c.2-.4.7 0 1.1-.3l-.4-.4c.3-.3.8-.1 1.2-.2-.1-.2-.4-.2-.4-.4.1-.5.7-.2 1.1-.4 0-.8.9-.4 1.3-.8 3.9-1 7.6.1 11.3.6 2 .6 4.2.8 6.2 1.5 4.9 1.5 9.2 4.7 13.8 7-.1.2.4.5.3.9 0 .3-.4.4-.4.7.2-.1.4 0 .6 0 .4.1.8.5.9.9-.1.3-.1.5 0 .7z" fill="#272666"/></svg>