<svg data-name="Layer 1" viewBox="0 0 172 200" xmlns="http://www.w3.org/2000/svg"><defs><style>.cls-1{fill:#fff}</style></defs><path class="cls-1" d="M0 0h172v200H0z"/><path d="M20 174.04v-15.51h3l4.3 12 4.42-12h2.73v15.51h-2.02v-12.6L28.16 173h-2.13l-4.11-11.59v12.63zm18.03 0v-15.51h2.2v15.51zm5.75 0v-15.51h2.06v7.63l6.28-7.63h2.21l-6.07 7.4 7.14 8.11h-2.78l-6.78-7.86v7.86zm13.64 0v-15.51h8.66v1.65h-6.46v5h5.42v1.62h-5.42v5.62h6.91v1.64zm18.41 0v-15.51h2.2v15.51zm10.09 0l-5.86-15.51h2.2l4.78 12.73 4.64-12.7h1.93l-5.63 15.51zm6.54 0l6.15-15.51h2.18l6 15.51h-2.37l-1.69-4.28h-6.52l-1.71 4.28zm4.38-5.93h5.3l-2.65-6.7zm11.96 5.93v-15.51h2.12l7.8 12v-12h1.89v15.51h-2.15l-7.82-12v12zm21.86.39a6.73 6.73 0 0 1-5.28-2.22 9.9 9.9 0 0 1 0-11.85 7.4 7.4 0 0 1 10.55 0 9.86 9.86 0 0 1-.01 11.9 6.69 6.69 0 0 1-5.26 2.17zm0-1.65a4.25 4.25 0 0 0 3.61-1.72 9.44 9.44 0 0 0 0-9.56 4.68 4.68 0 0 0-7.23 0 9.44 9.44 0 0 0 0 9.56 4.27 4.27 0 0 0 3.62 1.72zm13.64 1.26l-5.86-15.51h2.2l4.79 12.7 4.64-12.7H152l-5.62 15.51zM20 20.1h132v132H20zm0 159.55h132v.25H20z" fill="#737a8d"/><path class="cls-1" d="M30 142.11V68.26h14.46l20.46 57.13L86 68.26h13v73.85h-9.83v-60l-20.33 55H58.72L38.98 81.98v60.13zm87.92 0V68.26h10.48v73.85z"/></svg>