<svg version="1.1" id="layer_1" xmlns="http://www.w3.org/2000/svg" x="0" y="0" viewBox="0 0 419.9 669.2" xml:space="preserve" enable-background="new 0 0 419.9 669.2"><style>.st5{fill:#0d203d}.st8{opacity:.5;fill:#fff7cc}.st10{fill:#3d79a6}.st17{fill:#feaa0f}.st21{fill:#004060}.st25{fill:#b9bc39}.st35{fill:#00ebaa}.st37{opacity:.78;fill:#22567d}.st38{fill:#fff7cc}.st42{fill:#1e6284}.st47{fill:#9e4015}.st48{fill:#2568a5}.st49,.st82{opacity:.39;fill:#22567d}.st82{opacity:.75}.st101{fill:#bfffd8}</style><path fill="#22567d" d="M368 665.1l-117.9-7.4 40.2-643.3 129.6 8.1z"/><defs><filter id="Adobe_OpacityMaskFilter" filterUnits="userSpaceOnUse" x="271.2" y="35.5" width="127.3" height="603.6"><feFlood result="back" flood-color="#fff" flood-opacity="1"/><feBlend in="SourceGraphic" in2="back"/></filter></defs><mask maskUnits="userSpaceOnUse" x="271.2" y="35.5" width="127.3" height="603.6" id="SVGID_1_"><g filter="url(#Adobe_OpacityMaskFilter)"><defs><filter id="Adobe_OpacityMaskFilter_1_" filterUnits="userSpaceOnUse" x="271.2" y="35.5" width="127.3" height="603.6"><feFlood result="back" flood-color="#fff" flood-opacity="1"/><feBlend in="SourceGraphic" in2="back"/></filter></defs><linearGradient id="SVGID_2_" gradientUnits="userSpaceOnUse" x1="290.061" y1="332.299" x2="379.752" y2="332.299" gradientTransform="matrix(.998 .06247 -.06247 .998 21.32 -12.452)"><stop offset="0" stop-color="#fff"/><stop offset="1"/></linearGradient><path mask="url(#SVGID_1_)" fill="url(#SVGID_2_)" d="M271.2 639.1l37.7-603.6 89.6 5.6-85.5-2.3z"/></g></mask><path fill="#247696" d="M271.2 639.1l37.7-603.6 89.6 5.6-85.5-2.3z"/><path transform="matrix(.998 .06247 -.06247 .998 19 -8.787)" class="st5" d="M32.8 17.1h234.4v564.8H32.8z"/><linearGradient id="SVGID_3_" gradientUnits="userSpaceOnUse" x1="32.769" y1="504.899" x2="241.03" y2="504.899"><stop offset="0" stop-color="#2477a0"/><stop offset="1" stop-color="#247696"/></linearGradient><path d="M240.4 514.4c-69.2-4.3-138.4-8.7-207.7-13 .1-2 .1-4.1.2-6.1 69.4 4.3 138.7 8.7 208.1 13-.2 2.1-.4 4.1-.6 6.1z" fill="url(#SVGID_3_)"/><linearGradient id="SVGID_4_" gradientUnits="userSpaceOnUse" x1="271.95" y1="542.215" x2="16.698" y2="405.197" gradientTransform="matrix(.998 .06247 -.06247 .998 21.32 -12.452)"><stop offset=".06" stop-color="#22567d"/><stop offset=".619" stop-color="#14466a"/><stop offset="1" stop-color="#131f49"/></linearGradient><path d="M246.7 508.7c2.9-28.7 5.8-57.3 8.7-86-75.4-4.7-150.7-9.4-226.1-14.2-.7 28.8-1.4 57.6-2 86.4 1.9.1 3.8.2 5.6.4 69.4 4.3 138.7 8.7 208.1 13-.2 2-.4 4-.6 6.1-69.2-4.3-138.4-8.7-207.7-13-1.9-.1-3.8-.2-5.6-.4-.2 7.1-.3 14.2-.5 21.4 72.4 4.5 144.8 9.1 217.3 13.6.7-7.1 1.4-14.2 2.2-21.3-1.9-.1-3.8-.2-5.6-.4.2-2 .4-4 .6-6.1 1.8.3 3.7.4 5.6.5z" fill="url(#SVGID_4_)"/><path class="st8" d="M60.6 445.4c0 1.4-1.2 2.5-2.5 2.4-1.3-.1-2.4-1.3-2.3-2.7 0-1.4 1.2-2.5 2.5-2.4 1.4.1 2.4 1.3 2.3 2.7zm-6.9 4.5c-1.3-.1-2.4 1-2.5 2.4 0 1.4 1 2.6 2.3 2.7 1.3.1 2.4-1 2.5-2.4.1-1.5-.9-2.7-2.3-2.7zm8.7.5c-1.3-.1-2.4 1-2.5 2.4 0 1.4 1 2.6 2.3 2.7 1.3.1 2.4-1 2.5-2.4.1-1.4-1-2.6-2.3-2.7zm-8.2-14.7c-1.3-.1-2.4 1-2.5 2.4 0 1.4 1 2.6 2.3 2.7 1.3.1 2.4-1 2.5-2.4.1-1.4-1-2.6-2.3-2.7zm12.8 7.6c-1.3-.1-2.4 1-2.5 2.4-.1 1.4 1 2.6 2.3 2.7 1.3.1 2.4-1 2.5-2.4.1-1.4-1-2.6-2.3-2.7zm-4.1-7c-1.3-.1-2.5 1-2.5 2.4s1 2.6 2.3 2.7c1.3.1 2.4-1 2.5-2.4.1-1.5-1-2.7-2.3-2.7zm12.8 7.5c-1.3-.1-2.5 1-2.5 2.4-.1 1.4 1 2.6 2.3 2.7 1.3.1 2.4-1 2.5-2.4.1-1.4-1-2.6-2.3-2.7zm-4.6 7.1c-1.3-.1-2.4 1-2.5 2.4-.1 1.4 1 2.6 2.3 2.7 1.3.1 2.4-1 2.5-2.4 0-1.4-1-2.6-2.3-2.7zm.5-14.1c-1.3-.1-2.5 1-2.5 2.4-.1 1.4 1 2.6 2.3 2.7 1.3.1 2.5-1 2.5-2.4.1-1.4-1-2.6-2.3-2.7zm12.8 7.6c-1.3-.1-2.5 1-2.5 2.4-.1 1.4 1 2.6 2.3 2.7 1.3.1 2.5-1 2.5-2.4s-1-2.6-2.3-2.7zm-4.7 7.1c-1.3-.1-2.4 1-2.5 2.4-.1 1.4 1 2.6 2.3 2.7 1.3.1 2.4-1 2.5-2.4.1-1.4-.9-2.6-2.3-2.7zm.6-14.2c-1.3-.1-2.5 1-2.5 2.4-.1 1.4 1 2.6 2.3 2.7 1.3.1 2.5-1 2.5-2.4.1-1.4-1-2.6-2.3-2.7zm12.8 7.6c-1.3-.1-2.5 1-2.5 2.4-.1 1.4 1 2.6 2.3 2.7s2.5-1 2.5-2.4-1-2.6-2.3-2.7zm-4.7 7.1c-1.3-.1-2.5 1-2.5 2.4-.1 1.4 1 2.6 2.3 2.7 1.3.1 2.4-1 2.5-2.4 0-1.4-1-2.6-2.3-2.7zm.6-14.1c-1.3-.1-2.5 1-2.5 2.4-.1 1.4 1 2.6 2.3 2.7 1.3.1 2.5-1 2.5-2.4.1-1.4-.9-2.6-2.3-2.7zm12.7 7.6c-1.3-.1-2.5 1-2.5 2.4-.1 1.4 1 2.6 2.3 2.7 1.3.1 2.5-1 2.5-2.4.1-1.5-.9-2.7-2.3-2.7zm-4.7 7.1c-1.3-.1-2.5 1-2.5 2.4-.1 1.4 1 2.6 2.3 2.7 1.3.1 2.5-1 2.5-2.4.1-1.4-.9-2.6-2.3-2.7zm.7-14.2c-1.3-.1-2.5 1-2.5 2.4-.1 1.4 1 2.6 2.3 2.7 1.3.1 2.5-1 2.5-2.4.1-1.4-.9-2.6-2.3-2.7zm12.7 7.6c-1.3-.1-2.5 1-2.5 2.4-.1 1.4.9 2.6 2.3 2.7 1.3.1 2.5-1 2.5-2.4.1-1.4-.9-2.6-2.3-2.7zm-4.7 7.1c-1.3-.1-2.5 1-2.5 2.4-.1 1.4.9 2.6 2.3 2.7 1.3.1 2.5-1 2.5-2.4.1-1.4-1-2.6-2.3-2.7zm.7-14.1c-1.3-.1-2.5 1-2.5 2.4-.1 1.4 1 2.6 2.3 2.7 1.3.1 2.5-1 2.5-2.4.1-1.4-.9-2.6-2.3-2.7zm12.7 7.6c-1.3-.1-2.5 1-2.5 2.4-.1 1.4.9 2.6 2.3 2.7 1.3.1 2.5-1 2.5-2.4.1-1.5-1-2.7-2.3-2.7zm-4.7 7.1c-1.3-.1-2.5 1-2.5 2.4-.1 1.4.9 2.6 2.3 2.7 1.3.1 2.5-1 2.5-2.4 0-1.5-1-2.7-2.3-2.7zm.7-14.2c-1.3-.1-2.5 1-2.5 2.4-.1 1.4.9 2.6 2.3 2.7 1.3.1 2.5-1 2.5-2.4.1-1.4-.9-2.6-2.3-2.7zm12.7 7.6c-1.3-.1-2.5 1-2.6 2.4-.1 1.4.9 2.6 2.3 2.7 1.3.1 2.5-1 2.6-2.4 0-1.4-1-2.6-2.3-2.7zm-4.8 7.1c-1.3-.1-2.5 1-2.5 2.4-.1 1.4.9 2.6 2.3 2.7 1.3.1 2.5-1 2.5-2.4.1-1.4-.9-2.6-2.3-2.7zm.8-14.1c-1.3-.1-2.5 1-2.6 2.4-.1 1.4.9 2.6 2.3 2.7 1.3.1 2.5-1 2.6-2.4.1-1.5-.9-2.6-2.3-2.7zm12.7 7.5c-1.3-.1-2.5 1-2.6 2.4-.1 1.4.9 2.6 2.3 2.7 1.3.1 2.5-1 2.6-2.4 0-1.4-1-2.6-2.3-2.7zm-4.8 7.1c-1.3-.1-2.5 1-2.5 2.4-.1 1.4.9 2.6 2.2 2.7 1.3.1 2.5-1 2.5-2.4.1-1.4-.9-2.6-2.2-2.7zm.8-14.1c-1.3-.1-2.5 1-2.6 2.4-.1 1.4.9 2.6 2.3 2.7 1.3.1 2.5-1 2.6-2.4.1-1.4-.9-2.6-2.3-2.7zm12.7 7.6c-1.3-.1-2.5 1-2.6 2.4-.1 1.4.9 2.6 2.2 2.7 1.3.1 2.5-1 2.6-2.4.1-1.4-.9-2.6-2.2-2.7zm-4.8 7.1c-1.3-.1-2.5 1-2.6 2.4-.1 1.4.9 2.6 2.2 2.7 1.3.1 2.5-1 2.6-2.4.1-1.4-.9-2.6-2.2-2.7zm.8-14.1c-1.3-.1-2.5 1-2.6 2.4-.1 1.4.9 2.6 2.3 2.7 1.3.1 2.5-1 2.6-2.4.1-1.5-.9-2.7-2.3-2.7zm7.8 14.6c-1.3-.1-2.5 1-2.6 2.4-.1 1.4.9 2.6 2.2 2.7 1.3.1 2.5-1 2.6-2.4.1-1.4-.9-2.6-2.2-2.7zm.9-14.1c-1.3-.1-2.5 1-2.6 2.4-.1 1.4.9 2.6 2.2 2.7 1.3.1 2.5-1 2.6-2.4.2-1.4-.8-2.6-2.2-2.7zm-92.1 15.2c-1.3-.1-2.4 1-2.5 2.4 0 1.4 1 2.6 2.3 2.7 1.3.1 2.4-1 2.5-2.4.1-1.4-.9-2.6-2.3-2.7zm8.7.5c-1.3-.1-2.4 1-2.5 2.4-.1 1.4 1 2.6 2.3 2.7 1.3.1 2.4-1 2.5-2.4 0-1.4-1-2.6-2.3-2.7zm8.6.6c-1.3-.1-2.4 1-2.5 2.4-.1 1.4 1 2.6 2.3 2.7 1.3.1 2.4-1 2.5-2.4.1-1.4-.9-2.6-2.3-2.7zm8.7.5c-1.3-.1-2.4 1-2.5 2.4-.1 1.4 1 2.6 2.3 2.7 1.3.1 2.4-1 2.5-2.4 0-1.4-1-2.6-2.3-2.7zm8.6.6c-1.3-.1-2.4 1-2.5 2.4-.1 1.4 1 2.6 2.3 2.7 1.3.1 2.4-1 2.5-2.4.1-1.5-1-2.7-2.3-2.7zm8.6.5c-1.3-.1-2.5 1-2.5 2.4-.1 1.4.9 2.6 2.3 2.7 1.3.1 2.4-1 2.5-2.4.1-1.4-.9-2.6-2.3-2.7zm8.7.5c-1.3-.1-2.5 1-2.5 2.4-.1 1.4.9 2.6 2.3 2.7 1.3.1 2.5-1 2.5-2.4s-1-2.6-2.3-2.7zm8.6.6c-1.3-.1-2.5 1-2.5 2.4-.1 1.4.9 2.6 2.3 2.7 1.3.1 2.5-1 2.5-2.4.1-1.4-.9-2.6-2.3-2.7zm8.7.5c-1.3-.1-2.5 1-2.5 2.4-.1 1.4.9 2.6 2.2 2.7 1.3.1 2.5-1 2.5-2.4.1-1.4-.9-2.6-2.2-2.7zm8.6.6c-1.3-.1-2.5 1-2.5 2.4-.1 1.4.9 2.6 2.2 2.7 1.3.1 2.5-1 2.5-2.4.1-1.5-.9-2.7-2.2-2.7zm8.7.5c-1.3-.1-2.5 1-2.6 2.4-.1 1.4.9 2.6 2.2 2.7 1.3.1 2.5-1 2.6-2.4.1-1.4-.9-2.6-2.2-2.7zM57.4 471c-1.3-.1-2.4 1-2.5 2.4 0 1.4 1 2.6 2.3 2.7 1.3.1 2.4-1 2.5-2.4 0-1.4-1-2.6-2.3-2.7zm-4.1-7c-1.3-.1-2.4 1-2.5 2.4 0 1.4 1 2.6 2.3 2.7 1.3.1 2.4-1 2.5-2.4 0-1.4-1-2.6-2.3-2.7zm12.7 7.6c-1.3-.1-2.4 1-2.5 2.4-.1 1.4 1 2.6 2.3 2.7 1.3.1 2.4-1 2.5-2.4s-1-2.6-2.3-2.7zm-4.1-7c-1.3-.1-2.4 1-2.5 2.4 0 1.4 1 2.6 2.3 2.7 1.3.1 2.4-1 2.5-2.4.1-1.5-1-2.7-2.3-2.7zm12.7 7.5c-1.3-.1-2.4 1-2.5 2.4-.1 1.4 1 2.6 2.3 2.7 1.3.1 2.4-1 2.5-2.4 0-1.4-1-2.6-2.3-2.7zm-4.1-7c-1.3-.1-2.4 1-2.5 2.4-.1 1.4 1 2.6 2.3 2.7 1.3.1 2.4-1 2.5-2.4.1-1.4-1-2.6-2.3-2.7zm12.7 7.6c-1.3-.1-2.4 1-2.5 2.4-.1 1.4 1 2.6 2.3 2.7 1.3.1 2.4-1 2.5-2.4 0-1.5-1-2.7-2.3-2.7zm-4.1-7.1c-1.3-.1-2.4 1-2.5 2.4-.1 1.4 1 2.6 2.3 2.7 1.3.1 2.4-1 2.5-2.4.1-1.4-.9-2.6-2.3-2.7zm12.7 7.6c-1.3-.1-2.4 1-2.5 2.4-.1 1.4 1 2.6 2.3 2.7 1.3.1 2.4-1 2.5-2.4 0-1.4-1-2.6-2.3-2.7zm-4-7c-1.3-.1-2.4 1-2.5 2.4-.1 1.4 1 2.6 2.3 2.7 1.3.1 2.4-1 2.5-2.4 0-1.4-1-2.6-2.3-2.7zm12.6 7.5c-1.3-.1-2.4 1-2.5 2.4-.1 1.4.9 2.6 2.3 2.7 1.3.1 2.4-1 2.5-2.4 0-1.4-1-2.6-2.3-2.7zm-4-7c-1.3-.1-2.4 1-2.5 2.4-.1 1.4 1 2.6 2.3 2.7 1.3.1 2.4-1 2.5-2.4 0-1.4-1-2.6-2.3-2.7zm12.6 7.6c-1.3-.1-2.4 1-2.5 2.4-.1 1.4.9 2.6 2.3 2.7 1.3.1 2.4-1 2.5-2.4 0-1.4-1-2.6-2.3-2.7zm-4-7c-1.3-.1-2.4 1-2.5 2.4-.1 1.4.9 2.6 2.3 2.7 1.3.1 2.4-1 2.5-2.4 0-1.5-1-2.7-2.3-2.7zm12.6 7.5c-1.3-.1-2.4 1-2.5 2.4-.1 1.4.9 2.6 2.2 2.7 1.3.1 2.4-1 2.5-2.4.1-1.4-.9-2.6-2.2-2.7zm-4-7c-1.3-.1-2.4 1-2.5 2.4-.1 1.4.9 2.6 2.3 2.7 1.3.1 2.4-1 2.5-2.4 0-1.4-1-2.6-2.3-2.7zm12.6 7.6c-1.3-.1-2.4 1-2.5 2.4-.1 1.4.9 2.6 2.2 2.7 1.3.1 2.4-1 2.5-2.4.1-1.5-.9-2.7-2.2-2.7zm-4-7.1c-1.3-.1-2.5 1-2.5 2.4-.1 1.4.9 2.6 2.2 2.7 1.3.1 2.5-1 2.5-2.4.2-1.4-.8-2.6-2.2-2.7zm12.5 7.6c-1.3-.1-2.5 1-2.5 2.4-.1 1.4.9 2.6 2.2 2.7 1.3.1 2.4-1 2.5-2.4.2-1.4-.8-2.6-2.2-2.7zm-3.8-7c-1.3-.1-2.5 1-2.5 2.4-.1 1.4.9 2.6 2.2 2.7 1.3.1 2.5-1 2.5-2.4.1-1.5-.9-2.6-2.2-2.7zm12.4 7.5c-1.3-.1-2.5 1-2.5 2.4-.1 1.4.9 2.6 2.2 2.7 1.3.1 2.5-1 2.5-2.4.2-1.4-.8-2.6-2.2-2.7zm-3.8-7c-1.3-.1-2.5 1-2.5 2.4-.1 1.4.9 2.6 2.2 2.7 1.3.1 2.5-1 2.5-2.4.1-1.4-.9-2.6-2.2-2.7zm8.6.5c-1.3-.1-2.5 1-2.6 2.4-.1 1.4.9 2.6 2.2 2.7 1.3.1 2.5-1 2.6-2.4.1-1.4-.9-2.6-2.2-2.7zm-95.3 8.3c-1.3-.1-2.4 1-2.5 2.4 0 1.4 1 2.6 2.3 2.7 1.3.1 2.4-1 2.5-2.4.1-1.5-1-2.7-2.3-2.7zm8.6.5c-1.3-.1-2.4 1-2.5 2.4 0 1.4 1 2.6 2.3 2.7 1.3.1 2.4-1 2.5-2.4 0-1.4-1-2.6-2.3-2.7zm8.6.5c-1.3-.1-2.4 1-2.5 2.4-.1 1.4 1 2.6 2.3 2.7 1.3.1 2.4-1 2.5-2.4 0-1.4-1-2.6-2.3-2.7zm8.6.6c-1.3-.1-2.4 1-2.5 2.4-.1 1.4 1 2.6 2.3 2.7 1.3.1 2.4-1 2.5-2.4 0-1.4-1-2.6-2.3-2.7zm8.5.5c-1.3-.1-2.4 1-2.5 2.4-.1 1.4 1 2.6 2.3 2.7 1.3.1 2.4-1 2.5-2.4.1-1.4-1-2.6-2.3-2.7zm8.6.6c-1.3-.1-2.4 1-2.5 2.4-.1 1.4.9 2.6 2.3 2.7 1.3.1 2.4-1 2.5-2.4 0-1.5-1-2.7-2.3-2.7zm8.6.5c-1.3-.1-2.4 1-2.5 2.4-.1 1.4.9 2.6 2.2 2.7 1.3.1 2.4-1 2.5-2.4.1-1.4-.9-2.6-2.2-2.7zm8.6.5c-1.3-.1-2.4 1-2.5 2.4-.1 1.4.9 2.6 2.2 2.7 1.3.1 2.4-1 2.5-2.4.1-1.4-.9-2.6-2.2-2.7zm8.5.6c-1.3-.1-2.4 1-2.5 2.4-.1 1.4.9 2.6 2.2 2.7 1.3.1 2.4-1 2.5-2.4.1-1.5-.9-2.7-2.2-2.7zm8.6.5c-1.3-.1-2.4 1-2.5 2.4-.1 1.4.9 2.6 2.2 2.7 1.3.1 2.4-1 2.5-2.4.1-1.4-.9-2.6-2.2-2.7zm8.6.5c-1.3-.1-2.4 1-2.5 2.4-.1 1.4.9 2.6 2.2 2.7 1.3.1 2.4-1 2.5-2.4.1-1.4-.9-2.6-2.2-2.7zm8.6.6c-1.3-.1-2.5 1-2.5 2.4-.1 1.4.9 2.6 2.2 2.7 1.3.1 2.4-1 2.5-2.4.1-1.5-.9-2.6-2.2-2.7zm6.6-35.4c-1.3-.1-2.5 1-2.6 2.4-.1 1.4.9 2.6 2.2 2.7 1.3.1 2.5-1 2.6-2.4.2-1.4-.8-2.6-2.2-2.7zm3.9 7.7c-1.3-.1-2.5 1-2.6 2.4-.1 1.4.9 2.6 2.2 2.7 1.3.1 2.5-1 2.6-2.4.1-1.5-.9-2.6-2.2-2.7zm.9-14.2c-1.3-.1-2.5 1-2.6 2.4-.1 1.4.9 2.6 2.2 2.7 1.3.1 2.5-1 2.6-2.4.2-1.4-.8-2.6-2.2-2.7zm-5.7 20.6c-1.3-.1-2.5 1-2.6 2.4-.1 1.4.9 2.6 2.2 2.7 1.3.1 2.5-1 2.6-2.4.1-1.4-.9-2.6-2.2-2.7zm-1 14.2c-1.3-.1-2.5 1-2.6 2.4-.1 1.4.9 2.6 2.2 2.7 1.3.1 2.5-1 2.6-2.4.2-1.5-.8-2.6-2.2-2.7zm4.8-6.5c-1.3-.1-2.5 1-2.6 2.4-.1 1.4.9 2.6 2.2 2.7 1.3.1 2.5-1 2.6-2.4.1-1.4-.9-2.6-2.2-2.7zm-1 14.1c-1.3-.1-2.5 1-2.5 2.4-.1 1.4.9 2.6 2.2 2.7 1.3.1 2.5-1 2.5-2.4.1-1.4-.8-2.6-2.2-2.7zm6.8-35.3c-1.3-.1-2.5 1-2.6 2.4-.1 1.4.9 2.6 2.2 2.7 1.3.1 2.5-1 2.6-2.4.2-1.5-.8-2.6-2.2-2.7zm-1 14.1c-1.3-.1-2.5 1-2.6 2.4-.1 1.4.9 2.6 2.2 2.7 1.3.1 2.5-1 2.6-2.4.1-1.4-.8-2.6-2.2-2.7zm-1 14.1c-1.3-.1-2.5 1-2.6 2.4-.1 1.4.9 2.6 2.2 2.7 1.3.1 2.5-1 2.6-2.4.1-1.4-.8-2.6-2.2-2.7zm5.8-20.6c-1.3-.1-2.5 1-2.6 2.4-.1 1.4.9 2.6 2.2 2.7 1.3.1 2.5-1 2.6-2.4.2-1.4-.8-2.6-2.2-2.7zm1-14.1c-1.3-.1-2.5 1-2.6 2.4-.1 1.4.9 2.6 2.2 2.7 1.3.1 2.5-1 2.6-2.4.2-1.4-.8-2.6-2.2-2.7zm-2 28.2c-1.3-.1-2.5 1-2.6 2.4-.1 1.4.9 2.6 2.2 2.7 1.3.1 2.5-1 2.6-2.4.1-1.4-.9-2.6-2.2-2.7zm-1 14.1c-1.3-.1-2.5 1-2.6 2.4-.1 1.4.9 2.6 2.2 2.7 1.3.1 2.5-1 2.6-2.4.1-1.4-.9-2.6-2.2-2.7zm6.9-35.3c-1.3-.1-2.5 1-2.6 2.4-.1 1.4.9 2.6 2.2 2.7 1.3.1 2.5-1 2.6-2.4.1-1.4-.9-2.6-2.2-2.7zm-1 14.1c-1.3-.1-2.5 1-2.6 2.4-.1 1.4.9 2.6 2.2 2.7 1.3.1 2.5-1 2.6-2.4.1-1.4-.9-2.6-2.2-2.7zm-1.1 14.1c-1.3-.1-2.5 1-2.6 2.4-.1 1.4.9 2.6 2.2 2.7 1.3.1 2.5-1 2.6-2.4.1-1.4-.8-2.6-2.2-2.7zm5.9-20.5c-1.3-.1-2.5 1-2.6 2.4-.1 1.4.9 2.6 2.2 2.7 1.3.1 2.5-1 2.6-2.4.1-1.5-.9-2.7-2.2-2.7zm1.1-14.2c-1.3-.1-2.5 1-2.6 2.4-.1 1.4.9 2.6 2.2 2.7 1.3.1 2.5-1 2.6-2.4.1-1.4-.9-2.6-2.2-2.7zm-2.2 28.3c-1.3-.1-2.5 1-2.6 2.4-.1 1.4.9 2.6 2.2 2.7 1.3.1 2.5-1 2.6-2.4.1-1.5-.8-2.6-2.2-2.7zm-1 14.1c-1.3-.1-2.5 1-2.6 2.4-.1 1.4.9 2.6 2.2 2.7 1.3.1 2.5-1 2.6-2.4.1-1.4-.9-2.6-2.2-2.7z"/><path class="st5" d="M60.2 444.9c0 1.4-1.2 2.5-2.5 2.4-1.3-.1-2.4-1.3-2.3-2.7 0-1.4 1.2-2.5 2.5-2.4 1.3.1 2.4 1.3 2.3 2.7zm-6.9 4.4c-1.3-.1-2.4 1-2.5 2.4 0 1.4 1 2.6 2.3 2.7 1.3.1 2.4-1 2.5-2.4.1-1.4-1-2.6-2.3-2.7zm8.7.6c-1.3-.1-2.4 1-2.5 2.4 0 1.4 1 2.6 2.3 2.7 1.3.1 2.4-1 2.5-2.4 0-1.4-1-2.6-2.3-2.7zm-8.2-14.7c-1.3-.1-2.4 1-2.5 2.4 0 1.4 1 2.6 2.3 2.7 1.3.1 2.4-1 2.5-2.4.1-1.4-1-2.6-2.3-2.7zm12.8 7.6c-1.3-.1-2.4 1-2.5 2.4-.1 1.4 1 2.6 2.3 2.7 1.3.1 2.4-1 2.5-2.4 0-1.5-1-2.7-2.3-2.7zm-4.1-7.1c-1.3-.1-2.5 1-2.5 2.4s1 2.6 2.3 2.7c1.3.1 2.4-1 2.5-2.4.1-1.4-1-2.6-2.3-2.7zm12.8 7.6c-1.3-.1-2.5 1-2.5 2.4-.1 1.4 1 2.6 2.3 2.7 1.3.1 2.4-1 2.5-2.4 0-1.4-1-2.6-2.3-2.7zm-4.7 7.1c-1.3-.1-2.4 1-2.5 2.4-.1 1.4 1 2.6 2.3 2.7 1.3.1 2.4-1 2.5-2.4.1-1.4-.9-2.6-2.3-2.7zm.6-14.1c-1.3-.1-2.5 1-2.5 2.4-.1 1.4 1 2.6 2.3 2.7 1.3.1 2.5-1 2.5-2.4.1-1.5-1-2.6-2.3-2.7zm12.7 7.5c-1.3-.1-2.5 1-2.5 2.4-.1 1.4 1 2.6 2.3 2.7 1.3.1 2.5-1 2.5-2.4.1-1.4-.9-2.6-2.3-2.7zm-4.6 7.2c-1.3-.1-2.4 1-2.5 2.4-.1 1.4 1 2.6 2.3 2.7 1.3.1 2.4-1 2.5-2.4.1-1.5-1-2.7-2.3-2.7zm.6-14.2c-1.3-.1-2.5 1-2.5 2.4-.1 1.4 1 2.6 2.3 2.7 1.3.1 2.5-1 2.5-2.4.1-1.4-1-2.6-2.3-2.7zm12.7 7.6c-1.3-.1-2.5 1-2.5 2.4-.1 1.4 1 2.6 2.3 2.7 1.3.1 2.5-1 2.5-2.4.1-1.4-.9-2.6-2.3-2.7zm-4.6 7.1c-1.3-.1-2.5 1-2.5 2.4-.1 1.4 1 2.6 2.3 2.7 1.3.1 2.4-1 2.5-2.4 0-1.4-1-2.6-2.3-2.7zm.6-14.1c-1.3-.1-2.5 1-2.5 2.4-.1 1.4 1 2.6 2.3 2.7 1.3.1 2.5-1 2.5-2.4.1-1.5-1-2.7-2.3-2.7zm12.7 7.5c-1.3-.1-2.5 1-2.5 2.4-.1 1.4 1 2.6 2.3 2.7 1.3.1 2.5-1 2.5-2.4.1-1.4-1-2.6-2.3-2.7zm-4.7 7.1c-1.3-.1-2.5 1-2.5 2.4s1 2.6 2.3 2.7c1.3.1 2.5-1 2.5-2.4.1-1.4-1-2.6-2.3-2.7zm.7-14.1c-1.3-.1-2.5 1-2.5 2.4-.1 1.4 1 2.6 2.3 2.7 1.3.1 2.5-1 2.5-2.4.1-1.4-1-2.6-2.3-2.7zm12.7 7.6c-1.3-.1-2.5 1-2.5 2.4-.1 1.4.9 2.6 2.3 2.7 1.3.1 2.5-1 2.5-2.4s-1-2.6-2.3-2.7zm-4.7 7.1c-1.3-.1-2.5 1-2.5 2.4-.1 1.4.9 2.6 2.3 2.7 1.3.1 2.5-1 2.5-2.4s-1-2.6-2.3-2.7zm.7-14.2c-1.3-.1-2.5 1-2.5 2.4-.1 1.4 1 2.6 2.3 2.7 1.3.1 2.5-1 2.5-2.4.1-1.4-1-2.6-2.3-2.7zm12.7 7.6c-1.3-.1-2.5 1-2.5 2.4-.1 1.4.9 2.6 2.3 2.7 1.3.1 2.5-1 2.5-2.4s-1-2.6-2.3-2.7zm-4.8 7.1c-1.3-.1-2.5 1-2.5 2.4-.1 1.4.9 2.6 2.3 2.7 1.3.1 2.5-1 2.5-2.4.1-1.4-.9-2.6-2.3-2.7zm.8-14.1c-1.3-.1-2.5 1-2.5 2.4-.1 1.4.9 2.6 2.3 2.7 1.3.1 2.5-1 2.5-2.4.1-1.4-1-2.6-2.3-2.7zm12.7 7.6c-1.3-.1-2.5 1-2.6 2.4-.1 1.4.9 2.6 2.3 2.7 1.3.1 2.5-1 2.6-2.4 0-1.5-1-2.7-2.3-2.7zm-4.8 7.1c-1.3-.1-2.5 1-2.5 2.4-.1 1.4.9 2.6 2.3 2.7 1.3.1 2.5-1 2.5-2.4 0-1.5-1-2.7-2.3-2.7zm.8-14.2c-1.3-.1-2.5 1-2.6 2.4-.1 1.4.9 2.6 2.3 2.7 1.3.1 2.5-1 2.6-2.4.1-1.4-1-2.6-2.3-2.7zm12.6 7.6c-1.3-.1-2.5 1-2.6 2.4-.1 1.4.9 2.6 2.3 2.7 1.3.1 2.5-1 2.6-2.4.1-1.4-.9-2.6-2.3-2.7zm-4.7 7.1c-1.3-.1-2.5 1-2.5 2.4-.1 1.4.9 2.6 2.2 2.7 1.3.1 2.5-1 2.5-2.4.1-1.4-.9-2.6-2.2-2.7zm.8-14.1c-1.3-.1-2.5 1-2.6 2.4-.1 1.4.9 2.6 2.3 2.7 1.3.1 2.5-1 2.6-2.4.1-1.4-1-2.6-2.3-2.7zm12.6 7.5c-1.3-.1-2.5 1-2.6 2.4-.1 1.4.9 2.6 2.2 2.7 1.3.1 2.5-1 2.6-2.4.2-1.4-.8-2.6-2.2-2.7zm-4.8 7.2c-1.3-.1-2.5 1-2.6 2.4-.1 1.4.9 2.6 2.2 2.7 1.3.1 2.5-1 2.6-2.4.2-1.5-.8-2.7-2.2-2.7zm.9-14.2c-1.3-.1-2.5 1-2.6 2.4-.1 1.4.9 2.6 2.3 2.7 1.3.1 2.5-1 2.6-2.4.1-1.4-1-2.6-2.3-2.7zm7.8 14.7c-1.3-.1-2.5 1-2.6 2.4-.1 1.4.9 2.6 2.2 2.7 1.3.1 2.5-1 2.6-2.4.1-1.4-.9-2.6-2.2-2.7zm.9-14.1c-1.3-.1-2.5 1-2.6 2.4-.1 1.4.9 2.6 2.2 2.7 1.3.1 2.5-1 2.6-2.4.2-1.5-.9-2.6-2.2-2.7zm-92.1 15.2c-1.3-.1-2.4 1-2.5 2.4 0 1.4 1 2.6 2.3 2.7 1.3.1 2.4-1 2.5-2.4.1-1.5-1-2.7-2.3-2.7zm8.7.5c-1.3-.1-2.4 1-2.5 2.4-.1 1.4 1 2.6 2.3 2.7 1.3.1 2.4-1 2.5-2.4 0-1.4-1-2.6-2.3-2.7zm8.6.5c-1.3-.1-2.4 1-2.5 2.4-.1 1.4 1 2.6 2.3 2.7 1.3.1 2.4-1 2.5-2.4 0-1.4-1-2.6-2.3-2.7zm8.6.6c-1.3-.1-2.4 1-2.5 2.4-.1 1.4 1 2.6 2.3 2.7 1.3.1 2.4-1 2.5-2.4.1-1.4-.9-2.6-2.3-2.7zm8.7.5c-1.3-.1-2.4 1-2.5 2.4-.1 1.4 1 2.6 2.3 2.7 1.3.1 2.4-1 2.5-2.4 0-1.4-1-2.6-2.3-2.7zm8.6.6c-1.3-.1-2.5 1-2.5 2.4-.1 1.4.9 2.6 2.3 2.7 1.3.1 2.4-1 2.5-2.4.1-1.5-1-2.6-2.3-2.7zm8.7.5c-1.3-.1-2.5 1-2.5 2.4-.1 1.4.9 2.6 2.3 2.7 1.3.1 2.5-1 2.5-2.4s-1-2.6-2.3-2.7zm8.6.5c-1.3-.1-2.5 1-2.5 2.4-.1 1.4.9 2.6 2.3 2.7 1.3.1 2.5-1 2.5-2.4s-1-2.6-2.3-2.7zm8.6.6c-1.3-.1-2.5 1-2.5 2.4-.1 1.4.9 2.6 2.2 2.7 1.3.1 2.5-1 2.5-2.4.2-1.4-.8-2.6-2.2-2.7zm8.7.5c-1.3-.1-2.5 1-2.5 2.4-.1 1.4.9 2.6 2.2 2.7 1.3.1 2.5-1 2.5-2.4.1-1.4-.9-2.6-2.2-2.7zm8.6.6c-1.3-.1-2.5 1-2.6 2.4-.1 1.4.9 2.6 2.2 2.7 1.3.1 2.5-1 2.6-2.4.1-1.4-.9-2.6-2.2-2.7zm-86.9 8.7c-1.3-.1-2.4 1-2.5 2.4 0 1.4 1 2.6 2.3 2.7 1.3.1 2.4-1 2.5-2.4.1-1.4-.9-2.6-2.3-2.7zm-4-7c-1.3-.1-2.4 1-2.5 2.4 0 1.4 1 2.6 2.3 2.7 1.3.1 2.4-1 2.5-2.4 0-1.4-1-2.6-2.3-2.7zm12.6 7.6c-1.3-.1-2.4 1-2.5 2.4-.1 1.4 1 2.6 2.3 2.7s2.4-1 2.5-2.4c.1-1.5-.9-2.7-2.3-2.7zm-4-7.1c-1.3-.1-2.4 1-2.5 2.4 0 1.4 1 2.6 2.3 2.7 1.3.1 2.4-1 2.5-2.4 0-1.4-1-2.6-2.3-2.7zm12.6 7.6c-1.3-.1-2.4 1-2.5 2.4-.1 1.4 1 2.6 2.3 2.7 1.3.1 2.4-1 2.5-2.4.1-1.4-.9-2.6-2.3-2.7zm-4-7c-1.3-.1-2.4 1-2.5 2.4-.1 1.4 1 2.6 2.3 2.7s2.4-1 2.5-2.4c0-1.5-1-2.7-2.3-2.7zm12.6 7.5c-1.3-.1-2.4 1-2.5 2.4-.1 1.4 1 2.6 2.3 2.7s2.4-1 2.5-2.4c.1-1.4-1-2.6-2.3-2.7zm-4-7c-1.3-.1-2.4 1-2.5 2.4-.1 1.4 1 2.6 2.3 2.7 1.3.1 2.4-1 2.5-2.4.1-1.4-1-2.6-2.3-2.7zm12.6 7.6c-1.3-.1-2.4 1-2.5 2.4-.1 1.4 1 2.6 2.3 2.7 1.3.1 2.4-1 2.5-2.4.1-1.5-1-2.7-2.3-2.7zm-4-7.1c-1.3-.1-2.4 1-2.5 2.4-.1 1.4 1 2.6 2.3 2.7 1.3.1 2.4-1 2.5-2.4.1-1.4-.9-2.6-2.3-2.7zm12.6 7.6c-1.3-.1-2.4 1-2.5 2.4-.1 1.4.9 2.6 2.3 2.7 1.3.1 2.4-1 2.5-2.4.1-1.4-1-2.6-2.3-2.7zm-3.9-7c-1.3-.1-2.4 1-2.5 2.4-.1 1.4 1 2.6 2.3 2.7 1.3.1 2.4-1 2.5-2.4 0-1.4-1-2.6-2.3-2.7zm12.5 7.5c-1.3-.1-2.4 1-2.5 2.4-.1 1.4.9 2.6 2.3 2.7 1.3.1 2.4-1 2.5-2.4.1-1.4-1-2.6-2.3-2.7zm-3.9-7c-1.3-.1-2.4 1-2.5 2.4-.1 1.4.9 2.6 2.3 2.7 1.3.1 2.4-1 2.5-2.4 0-1.4-1-2.6-2.3-2.7zm12.5 7.6c-1.3-.1-2.4 1-2.5 2.4-.1 1.4.9 2.6 2.2 2.7 1.3.1 2.4-1 2.5-2.4.1-1.4-.9-2.6-2.2-2.7zm-3.9-7c-1.3-.1-2.4 1-2.5 2.4-.1 1.4.9 2.6 2.3 2.7 1.3.1 2.4-1 2.5-2.4 0-1.5-1-2.7-2.3-2.7zm12.5 7.5c-1.3-.1-2.4 1-2.5 2.4-.1 1.4.9 2.6 2.2 2.7 1.3.1 2.4-1 2.5-2.4.1-1.4-.9-2.6-2.2-2.7zm-3.9-7c-1.3-.1-2.5 1-2.5 2.4-.1 1.4.9 2.6 2.2 2.7 1.3.1 2.5-1 2.5-2.4.1-1.4-.9-2.6-2.2-2.7zm12.5 7.6c-1.3-.1-2.5 1-2.5 2.4-.1 1.4.9 2.6 2.2 2.7 1.3.1 2.4-1 2.5-2.4.1-1.5-.9-2.7-2.2-2.7zm-3.9-7.1c-1.3-.1-2.5 1-2.5 2.4-.1 1.4.9 2.6 2.2 2.7 1.3.1 2.5-1 2.5-2.4.1-1.4-.9-2.6-2.2-2.7zm12.5 7.6c-1.3-.1-2.5 1-2.5 2.4-.1 1.4.9 2.6 2.2 2.7 1.3.1 2.5-1 2.5-2.4.1-1.4-.9-2.6-2.2-2.7zm-3.9-7c-1.3-.1-2.5 1-2.5 2.4-.1 1.4.9 2.6 2.2 2.7 1.3.1 2.5-1 2.5-2.4.2-1.4-.8-2.6-2.2-2.7zm8.7.5c-1.3-.1-2.5 1-2.6 2.4-.1 1.4.9 2.6 2.2 2.7 1.3.1 2.5-1 2.6-2.4.1-1.4-.9-2.6-2.2-2.7zm-95.3 8.2c-1.3-.1-2.4 1-2.5 2.4 0 1.4 1 2.6 2.3 2.7 1.3.1 2.4-1 2.5-2.4 0-1.4-1-2.6-2.3-2.7zm8.6.6c-1.3-.1-2.4 1-2.5 2.4 0 1.4 1 2.6 2.3 2.7 1.3.1 2.4-1 2.5-2.4 0-1.5-1-2.6-2.3-2.7zm8.6.5c-1.3-.1-2.4 1-2.5 2.4-.1 1.4 1 2.6 2.3 2.7 1.3.1 2.4-1 2.5-2.4 0-1.4-1-2.6-2.3-2.7zm8.5.5c-1.3-.1-2.4 1-2.5 2.4-.1 1.4 1 2.6 2.3 2.7 1.3.1 2.4-1 2.5-2.4.1-1.4-1-2.6-2.3-2.7zm8.6.6c-1.3-.1-2.4 1-2.5 2.4-.1 1.4 1 2.6 2.3 2.7 1.3.1 2.4-1 2.5-2.4 0-1.4-1-2.6-2.3-2.7zm8.6.5c-1.3-.1-2.4 1-2.5 2.4-.1 1.4.9 2.6 2.3 2.7 1.3.1 2.4-1 2.5-2.4 0-1.4-1-2.6-2.3-2.7zm8.6.6c-1.3-.1-2.4 1-2.5 2.4-.1 1.4.9 2.6 2.2 2.7 1.3.1 2.4-1 2.5-2.4.1-1.5-.9-2.7-2.2-2.7zm8.5.5c-1.3-.1-2.4 1-2.5 2.4-.1 1.4.9 2.6 2.2 2.7 1.3.1 2.4-1 2.5-2.4.1-1.4-.9-2.6-2.2-2.7zm8.6.5c-1.3-.1-2.4 1-2.5 2.4-.1 1.4.9 2.6 2.2 2.7 1.3.1 2.4-1 2.5-2.4.1-1.4-.9-2.6-2.2-2.7zm8.6.6c-1.3-.1-2.4 1-2.5 2.4-.1 1.4.9 2.6 2.2 2.7 1.3.1 2.4-1 2.5-2.4.1-1.5-.9-2.7-2.2-2.7zm8.6.5c-1.3-.1-2.4 1-2.5 2.4-.1 1.4.9 2.6 2.2 2.7 1.3.1 2.4-1 2.5-2.4.1-1.4-.9-2.6-2.2-2.7zm8.5.5c-1.3-.1-2.5 1-2.5 2.4-.1 1.4.9 2.6 2.2 2.7 1.3.1 2.4-1 2.5-2.4.1-1.4-.9-2.6-2.2-2.7zm6.7-35.3c-1.3-.1-2.5 1-2.6 2.4-.1 1.4.9 2.6 2.2 2.7 1.3.1 2.5-1 2.6-2.4.1-1.4-.9-2.6-2.2-2.7zm3.8 7.6c-1.3-.1-2.5 1-2.6 2.4-.1 1.4.9 2.6 2.2 2.7 1.3.1 2.5-1 2.6-2.4.2-1.4-.8-2.6-2.2-2.7zm1-14.1c-1.3-.1-2.5 1-2.6 2.4-.1 1.4.9 2.6 2.2 2.7 1.3.1 2.5-1 2.6-2.4.2-1.4-.8-2.6-2.2-2.7zm-5.7 20.6c-1.3-.1-2.5 1-2.6 2.4-.1 1.4.9 2.6 2.2 2.7 1.3.1 2.5-1 2.6-2.4.1-1.4-.9-2.6-2.2-2.7zm-1 14.1c-1.3-.1-2.5 1-2.6 2.4-.1 1.4.9 2.6 2.2 2.7s2.5-1 2.6-2.4c.1-1.4-.9-2.6-2.2-2.7zm4.8-6.4c-1.3-.1-2.5 1-2.6 2.4-.1 1.4.9 2.6 2.2 2.7 1.3.1 2.5-1 2.6-2.4.1-1.5-.9-2.7-2.2-2.7zm-1 14.1c-1.3-.1-2.5 1-2.5 2.4-.1 1.4.9 2.6 2.2 2.7 1.3.1 2.5-1 2.5-2.4.1-1.4-.9-2.6-2.2-2.7zm6.8-35.4c-1.3-.1-2.5 1-2.6 2.4-.1 1.4.9 2.6 2.2 2.7 1.3.1 2.5-1 2.6-2.4.1-1.4-.9-2.6-2.2-2.7zm-1 14.2c-1.3-.1-2.5 1-2.6 2.4-.1 1.4.9 2.6 2.2 2.7 1.3.1 2.5-1 2.6-2.4.1-1.5-.9-2.7-2.2-2.7zm-1 14.1c-1.3-.1-2.5 1-2.6 2.4-.1 1.4.9 2.6 2.2 2.7 1.3.1 2.5-1 2.6-2.4.1-1.5-.9-2.6-2.2-2.7zm5.8-20.6c-1.3-.1-2.5 1-2.6 2.4-.1 1.4.9 2.6 2.2 2.7 1.3.1 2.5-1 2.6-2.4.1-1.4-.9-2.6-2.2-2.7zm1-14.1c-1.3-.1-2.5 1-2.6 2.4-.1 1.4.9 2.6 2.2 2.7 1.3.1 2.5-1 2.6-2.4.2-1.5-.8-2.7-2.2-2.7zm-2 28.2c-1.3-.1-2.5 1-2.6 2.4-.1 1.4.9 2.6 2.2 2.7s2.5-1 2.6-2.4c.1-1.4-.9-2.6-2.2-2.7zm-1 14.1c-1.3-.1-2.5 1-2.6 2.4-.1 1.4.9 2.6 2.2 2.7 1.3.1 2.5-1 2.6-2.4.1-1.4-.9-2.6-2.2-2.7zm6.9-35.3c-1.3-.1-2.5 1-2.6 2.4-.1 1.4.9 2.6 2.2 2.7 1.3.1 2.5-1 2.6-2.4.1-1.4-.9-2.6-2.2-2.7zm-1.1 14.1c-1.3-.1-2.5 1-2.6 2.4-.1 1.4.9 2.6 2.2 2.7 1.3.1 2.5-1 2.6-2.4.2-1.4-.8-2.6-2.2-2.7zm-1 14.1c-1.3-.1-2.5 1-2.6 2.4-.1 1.4.9 2.6 2.2 2.7 1.3.1 2.5-1 2.6-2.4.1-1.4-.9-2.6-2.2-2.7zm5.9-20.6c-1.3-.1-2.5 1-2.6 2.4-.1 1.4.9 2.6 2.2 2.7 1.3.1 2.5-1 2.6-2.4.1-1.4-.9-2.6-2.2-2.7zm1-14.1c-1.3-.1-2.5 1-2.6 2.4-.1 1.4.9 2.6 2.2 2.7 1.3.1 2.5-1 2.6-2.4.2-1.4-.8-2.6-2.2-2.7zm-2.1 28.2c-1.3-.1-2.5 1-2.6 2.4-.1 1.4.9 2.6 2.2 2.7 1.3.1 2.5-1 2.6-2.4.1-1.4-.9-2.6-2.2-2.7zm-1 14.1c-1.3-.1-2.5 1-2.6 2.4-.1 1.4.9 2.6 2.2 2.7 1.3.1 2.5-1 2.6-2.4.1-1.4-.9-2.6-2.2-2.7z"/><linearGradient id="SVGID_5_" gradientUnits="userSpaceOnUse" x1="214.732" y1="446.616" x2="229.281" y2="493.762" gradientTransform="matrix(.998 .06247 -.06247 .998 21.32 -12.452)"><stop offset="0" stop-color="#131f49"/><stop offset=".614" stop-color="#22567d"/><stop offset=".691" stop-color="#255b7f"/><stop offset=".781" stop-color="#2c6986"/><stop offset=".879" stop-color="#388191"/><stop offset=".982" stop-color="#4aa2a0"/><stop offset="1" stop-color="#4da9a3"/></linearGradient><path d="M225.4 493.5l-29.1-1.8 3.9-47.4c9.8.6 19.7 1.2 29.5 1.8-1.3 15.9-2.8 31.6-4.3 47.4z" fill="url(#SVGID_5_)"/><path class="st5" d="M200.3 444.3l-3.9 47.4c.5-.4 1.1-.8 1.6-1.2l4.8-42.6c8.1.4 16.3.7 24.4 1.1.9-1 1.8-1.9 2.6-2.9-9.8-.5-19.6-1.1-29.5-1.8z"/><path class="st10" d="M227.2 449c-1.2 14.3-2.3 28.6-3.5 42.9l-25.8-1.5c-.5.4-1.1.8-1.6 1.2l29.1 1.8c1.5-15.8 3-31.5 4.4-47.3-.8 1-1.7 2-2.6 2.9z"/><path d="M207.5 485.6l-5.5-.3 1.3-20.9 5.5.3-1.3 20.9zm14.3-20.1l-5.5-.3-1.3 20.9 5.5.3 1.3-20.9zm-6.5-.4l-5.5-.3-.8 13.1 5.5.3.8-13.1zm-.9 14.6l-5.5-.3-.4 6 5.5.3.4-6z" fill="#20d134"/><defs><filter id="Adobe_OpacityMaskFilter_2_" filterUnits="userSpaceOnUse" x="35.1" y="496.8" width="150.9" height="12.9"><feFlood result="back" flood-color="#fff" flood-opacity="1"/><feBlend in="SourceGraphic" in2="back"/></filter></defs><mask maskUnits="userSpaceOnUse" x="35.1" y="496.8" width="150.9" height="12.9" id="SVGID_6_"><g filter="url(#Adobe_OpacityMaskFilter_2_)"><defs><filter id="Adobe_OpacityMaskFilter_3_" filterUnits="userSpaceOnUse" x="35.1" y="496.8" width="150.9" height="12.9"><feFlood result="back" flood-color="#fff" flood-opacity="1"/><feBlend in="SourceGraphic" in2="back"/></filter></defs><linearGradient id="SVGID_7_" gradientUnits="userSpaceOnUse" x1="27.225" y1="509.135" x2="219.124" y2="509.135" gradientTransform="matrix(.998 .06247 -.06247 .998 21.32 -12.452)"><stop offset="0" stop-color="#fff"/><stop offset=".111" stop-color="#fafafa"/><stop offset=".242" stop-color="#ececec"/><stop offset=".384" stop-color="#d4d4d4"/><stop offset=".533" stop-color="#b2b2b2"/><stop offset=".688" stop-color="#878787"/><stop offset=".845" stop-color="#545454"/><stop offset="1" stop-color="#1a1a1a"/></linearGradient><path d="M110 505l-74.9-4.7.2-3.5 74.9 4.7-.2 3.5zm38.4-1.1l-28.8-1.8-.2 3.5 28.8 1.8.2-3.5zm25.4 1.6l-15.8-1-.2 3.5 15.8 1 .2-3.5zm12.3.7l-6.1-.4-.2 3.5 6.1.4.2-3.5z" mask="url(#SVGID_6_)" fill="url(#SVGID_7_)"/></g></mask><linearGradient id="SVGID_8_" gradientUnits="userSpaceOnUse" x1="27.225" y1="509.135" x2="219.124" y2="509.135" gradientTransform="matrix(.998 .06247 -.06247 .998 21.32 -12.452)"><stop offset="0" stop-color="#247696"/><stop offset=".279" stop-color="#297899"/><stop offset=".608" stop-color="#3780a1"/><stop offset=".963" stop-color="#4f8cad"/><stop offset="1" stop-color="#528daf"/></linearGradient><path d="M110 505l-74.9-4.7.2-3.5 74.9 4.7-.2 3.5zm38.4-1.1l-28.8-1.8-.2 3.5 28.8 1.8.2-3.5zm25.4 1.6l-15.8-1-.2 3.5 15.8 1 .2-3.5zm12.3.7l-6.1-.4-.2 3.5 6.1.4.2-3.5z" fill="url(#SVGID_8_)"/><linearGradient id="SVGID_9_" gradientUnits="userSpaceOnUse" x1="266.015" y1="591.35" x2="10.034" y2="517.944" gradientTransform="matrix(.998 .06247 -.06247 .998 21.32 -12.452)"><stop offset=".06" stop-color="#22567d"/><stop offset=".619" stop-color="#14466a"/><stop offset="1" stop-color="#131f49"/></linearGradient><path fill="url(#SVGID_9_)" d="M241.1 582.7L23.6 569.1l.5-45.2 222.2 13.9z"/><ellipse transform="matrix(.06247 -.998 .998 .06247 -379.9 693.214)" class="st5" cx="179" cy="548.8" rx="4.6" ry="4.6"/><ellipse transform="matrix(.06247 -.998 .998 .06247 -379.9 693.213)" class="st17" cx="179" cy="548.8" rx="3.7" ry="3.7"/><ellipse transform="matrix(.06247 -.998 .998 .06247 -368.064 707.509)" class="st5" cx="192.6" cy="549.7" rx="4.6" ry="4.6"/><defs><filter id="Adobe_OpacityMaskFilter_4_" filterUnits="userSpaceOnUse" x="188.9" y="546" width="7.4" height="7.4"><feFlood result="back" flood-color="#fff" flood-opacity="1"/><feBlend in="SourceGraphic" in2="back"/></filter></defs><mask maskUnits="userSpaceOnUse" x="188.9" y="546" width="7.4" height="7.4" id="SVGID_10_"><g filter="url(#Adobe_OpacityMaskFilter_4_)"><defs><filter id="Adobe_OpacityMaskFilter_5_" filterUnits="userSpaceOnUse" x="188.9" y="546" width="7.4" height="7.4"><feFlood result="back" flood-color="#fff" flood-opacity="1"/><feBlend in="SourceGraphic" in2="back"/></filter></defs><linearGradient id="SVGID_11_" gradientUnits="userSpaceOnUse" x1="209.678" y1="553.012" x2="202.986" y2="548.097" gradientTransform="matrix(.998 .06247 -.06247 .998 21.32 -12.452)"><stop offset="0" stop-color="#fff"/><stop offset=".111" stop-color="#fafafa"/><stop offset=".242" stop-color="#ececec"/><stop offset=".384" stop-color="#d4d4d4"/><stop offset=".533" stop-color="#b2b2b2"/><stop offset=".688" stop-color="#878787"/><stop offset=".845" stop-color="#545454"/><stop offset="1" stop-color="#1a1a1a"/></linearGradient><circle cx="192.6" cy="549.7" r="3.7" mask="url(#SVGID_10_)" fill="url(#SVGID_11_)"/></g></mask><ellipse transform="matrix(.06247 -.998 .998 .06247 -368.063 707.508)" class="st21" cx="192.6" cy="549.7" rx="3.7" ry="3.7"/><ellipse transform="matrix(.06247 -.998 .998 .06247 -356.226 721.804)" class="st5" cx="206.1" cy="550.5" rx="4.6" ry="4.6"/><defs><filter id="Adobe_OpacityMaskFilter_6_" filterUnits="userSpaceOnUse" x="202.4" y="546.8" width="7.4" height="7.4"><feFlood result="back" flood-color="#fff" flood-opacity="1"/><feBlend in="SourceGraphic" in2="back"/></filter></defs><mask maskUnits="userSpaceOnUse" x="202.4" y="546.8" width="7.4" height="7.4" id="SVGID_12_"><g filter="url(#Adobe_OpacityMaskFilter_6_)"><defs><filter id="Adobe_OpacityMaskFilter_7_" filterUnits="userSpaceOnUse" x="202.4" y="546.8" width="7.4" height="7.4"><feFlood result="back" flood-color="#fff" flood-opacity="1"/><feBlend in="SourceGraphic" in2="back"/></filter></defs><linearGradient id="SVGID_13_" gradientUnits="userSpaceOnUse" x1="221.94" y1="553.938" x2="215.823" y2="544.605" gradientTransform="matrix(.998 .06247 -.06247 .998 21.32 -12.452)"><stop offset="0" stop-color="#fff"/><stop offset=".111" stop-color="#fafafa"/><stop offset=".242" stop-color="#ececec"/><stop offset=".384" stop-color="#d4d4d4"/><stop offset=".533" stop-color="#b2b2b2"/><stop offset=".688" stop-color="#878787"/><stop offset=".845" stop-color="#545454"/><stop offset="1" stop-color="#1a1a1a"/></linearGradient><circle cx="206.1" cy="550.5" r="3.7" mask="url(#SVGID_12_)" fill="url(#SVGID_13_)"/></g></mask><ellipse transform="matrix(.06247 -.998 .998 .06247 -356.225 721.803)" class="st21" cx="206.1" cy="550.5" rx="3.7" ry="3.7"/><ellipse transform="matrix(.06247 -.998 .998 .06247 -344.388 736.1)" class="st5" cx="219.6" cy="551.4" rx="4.6" ry="4.6"/><ellipse transform="matrix(.06247 -.998 .998 .06247 -344.388 736.099)" class="st17" cx="219.6" cy="551.4" rx="3.7" ry="3.7"/><ellipse transform="matrix(.06247 -.998 .998 .06247 -390.116 701.673)" class="st5" cx="178.4" cy="558.5" rx="4.6" ry="4.6"/><ellipse transform="matrix(.06247 -.998 .998 .06247 -390.115 701.672)" class="st25" cx="178.4" cy="558.5" rx="3.7" ry="3.7"/><ellipse transform="matrix(.06247 -.998 .998 .06247 -378.279 715.968)" class="st5" cx="192" cy="559.3" rx="4.6" ry="4.6"/><defs><filter id="Adobe_OpacityMaskFilter_8_" filterUnits="userSpaceOnUse" x="188.3" y="555.6" width="7.4" height="7.4"><feFlood result="back" flood-color="#fff" flood-opacity="1"/><feBlend in="SourceGraphic" in2="back"/></filter></defs><mask maskUnits="userSpaceOnUse" x="188.3" y="555.6" width="7.4" height="7.4" id="SVGID_14_"><g filter="url(#Adobe_OpacityMaskFilter_8_)"><defs><filter id="Adobe_OpacityMaskFilter_9_" filterUnits="userSpaceOnUse" x="188.3" y="555.6" width="7.4" height="7.4"><feFlood result="back" flood-color="#fff" flood-opacity="1"/><feBlend in="SourceGraphic" in2="back"/></filter></defs><linearGradient id="SVGID_15_" gradientUnits="userSpaceOnUse" x1="210.661" y1="562.846" x2="203.133" y2="558.245" gradientTransform="matrix(.998 .06247 -.06247 .998 21.32 -12.452)"><stop offset="0" stop-color="#fff"/><stop offset=".111" stop-color="#fafafa"/><stop offset=".242" stop-color="#ececec"/><stop offset=".384" stop-color="#d4d4d4"/><stop offset=".533" stop-color="#b2b2b2"/><stop offset=".688" stop-color="#878787"/><stop offset=".845" stop-color="#545454"/><stop offset="1" stop-color="#1a1a1a"/></linearGradient><circle cx="192" cy="559.3" r="3.7" mask="url(#SVGID_14_)" fill="url(#SVGID_15_)"/></g></mask><ellipse transform="matrix(.06247 -.998 .998 .06247 -378.278 715.967)" class="st21" cx="192" cy="559.3" rx="3.7" ry="3.7"/><ellipse transform="matrix(.06247 -.998 .998 .06247 -366.44 730.263)" class="st5" cx="205.5" cy="560.2" rx="4.6" ry="4.6"/><ellipse transform="matrix(.06247 -.998 .998 .06247 -366.44 730.262)" class="st25" cx="205.5" cy="560.2" rx="3.7" ry="3.7"/><ellipse transform="matrix(.06247 -.998 .998 .06247 -354.603 744.559)" class="st5" cx="219" cy="561" rx="4.6" ry="4.6"/><defs><filter id="Adobe_OpacityMaskFilter_10_" filterUnits="userSpaceOnUse" x="215.3" y="557.3" width="7.4" height="7.4"><feFlood result="back" flood-color="#fff" flood-opacity="1"/><feBlend in="SourceGraphic" in2="back"/></filter></defs><mask maskUnits="userSpaceOnUse" x="215.3" y="557.3" width="7.4" height="7.4" id="SVGID_16_"><g filter="url(#Adobe_OpacityMaskFilter_10_)"><defs><filter id="Adobe_OpacityMaskFilter_11_" filterUnits="userSpaceOnUse" x="215.3" y="557.3" width="7.4" height="7.4"><feFlood result="back" flood-color="#fff" flood-opacity="1"/><feBlend in="SourceGraphic" in2="back"/></filter></defs><linearGradient id="SVGID_17_" gradientUnits="userSpaceOnUse" x1="240.861" y1="565.029" x2="228.94" y2="557.291" gradientTransform="matrix(.998 .06247 -.06247 .998 21.32 -12.452)"><stop offset="0" stop-color="#fff"/><stop offset=".111" stop-color="#fafafa"/><stop offset=".242" stop-color="#ececec"/><stop offset=".384" stop-color="#d4d4d4"/><stop offset=".533" stop-color="#b2b2b2"/><stop offset=".688" stop-color="#878787"/><stop offset=".845" stop-color="#545454"/><stop offset="1" stop-color="#1a1a1a"/></linearGradient><circle cx="219" cy="561" r="3.7" mask="url(#SVGID_16_)" fill="url(#SVGID_17_)"/></g></mask><ellipse transform="matrix(.06247 -.998 .998 .06247 -354.602 744.558)" class="st21" cx="219" cy="561" rx="3.7" ry="3.7"/><ellipse transform="matrix(.06247 -.998 .998 .06247 -400.33 710.132)" class="st5" cx="177.8" cy="568.2" rx="4.6" ry="4.6"/><defs><filter id="Adobe_OpacityMaskFilter_12_" filterUnits="userSpaceOnUse" x="174.1" y="564.5" width="7.4" height="7.4"><feFlood result="back" flood-color="#fff" flood-opacity="1"/><feBlend in="SourceGraphic" in2="back"/></filter></defs><mask maskUnits="userSpaceOnUse" x="174.1" y="564.5" width="7.4" height="7.4" id="SVGID_18_"><g filter="url(#Adobe_OpacityMaskFilter_12_)"><defs><filter id="Adobe_OpacityMaskFilter_13_" filterUnits="userSpaceOnUse" x="174.1" y="564.5" width="7.4" height="7.4"><feFlood result="back" flood-color="#fff" flood-opacity="1"/><feBlend in="SourceGraphic" in2="back"/></filter></defs><linearGradient id="SVGID_19_" gradientUnits="userSpaceOnUse" x1="196.48" y1="571.997" x2="188.638" y2="567.5" gradientTransform="matrix(.998 .06247 -.06247 .998 21.32 -12.452)"><stop offset="0" stop-color="#fff"/><stop offset=".111" stop-color="#fafafa"/><stop offset=".242" stop-color="#ececec"/><stop offset=".384" stop-color="#d4d4d4"/><stop offset=".533" stop-color="#b2b2b2"/><stop offset=".688" stop-color="#878787"/><stop offset=".845" stop-color="#545454"/><stop offset="1" stop-color="#1a1a1a"/></linearGradient><circle cx="177.8" cy="568.2" r="3.7" mask="url(#SVGID_18_)" fill="url(#SVGID_19_)"/></g></mask><ellipse transform="matrix(.06247 -.998 .998 .06247 -400.33 710.13)" class="st21" cx="177.8" cy="568.2" rx="3.7" ry="3.7"/><ellipse transform="matrix(.06247 -.998 .998 .06247 -388.493 724.426)" class="st5" cx="191.3" cy="569" rx="4.6" ry="4.6"/><ellipse transform="matrix(.06247 -.998 .998 .06247 -388.493 724.426)" class="st35" cx="191.3" cy="569" rx="3.7" ry="3.7"/><ellipse transform="matrix(.06247 -.998 .998 .06247 -376.655 738.722)" class="st5" cx="204.9" cy="569.8" rx="4.6" ry="4.6"/><ellipse transform="matrix(.06247 -.998 .998 .06247 -376.655 738.721)" class="st35" cx="204.9" cy="569.8" rx="3.7" ry="3.7"/><ellipse transform="matrix(.06247 -.998 .998 .06247 -364.817 753.017)" class="st5" cx="218.4" cy="570.7" rx="4.6" ry="4.6"/><ellipse transform="matrix(.06247 -.998 .998 .06247 -364.817 753.016)" class="st35" cx="218.4" cy="570.7" rx="3.7" ry="3.7"/><linearGradient id="SVGID_20_" gradientUnits="userSpaceOnUse" x1="9.754" y1="24.987" x2="273.074" y2="77.876" gradientTransform="matrix(.998 .06247 -.06247 .998 21.32 -12.452)"><stop offset=".06" stop-color="#22567d"/><stop offset=".619" stop-color="#14466a"/><stop offset="1" stop-color="#131f49"/></linearGradient><path d="M275.4 78.6c-74.3-4.7-148.7-9.3-223-14 .2-14.7.3-29.5.5-44.2 75.8 4.7 151.7 9.5 227.5 14.2-1.6 14.7-3.3 29.3-5 44z" fill="url(#SVGID_20_)"/><path class="st37" d="M114.2 59.6c.2-4.1.3-8.1.5-12.2 16.2 1 32.3 2 48.5 3-.3 4.1-.5 8.1-.8 12.2-16.1-1-32.2-2-48.2-3zm-51.9-3.3c.1-4.1.1-8.2.2-12.2 16.2 1 32.3 2 48.5 3-.2 4.1-.3 8.1-.5 12.2-16.1-1-32.1-2-48.2-3zm52.4-10.5c.2-4.1.3-8.1.5-12.2 16.3 1 32.5 2 48.8 3.1-.3 4.1-.5 8.1-.8 12.2-16.2-1.1-32.3-2.1-48.5-3.1zm-52.2-3.2c.1-4.1.1-8.2.2-12.2 16.3 1 32.5 2 48.8 3.1-.2 4.1-.3 8.1-.5 12.2-16.1-1.1-32.3-2.1-48.5-3.1z"/><path class="st38" d="M53.8 63.3c.2-13.8.3-27.6.5-41.4C129.1 26.6 204 31.3 278.8 36c-73.9-3.7-147.7-7.3-221.4-11-1.2 12.7-2.4 25.5-3.6 38.3z"/><defs><filter id="Adobe_OpacityMaskFilter_14_" filterUnits="userSpaceOnUse" x="53.8" y="21.9" width="225" height="41.4"><feFlood result="back" flood-color="#fff" flood-opacity="1"/><feBlend in="SourceGraphic" in2="back"/></filter></defs><mask maskUnits="userSpaceOnUse" x="53.8" y="21.9" width="225" height="41.4" id="SVGID_21_"><g filter="url(#Adobe_OpacityMaskFilter_14_)"><defs><filter id="Adobe_OpacityMaskFilter_15_" filterUnits="userSpaceOnUse" x="53.8" y="21.9" width="225" height="41.4"><feFlood result="back" flood-color="#fff" flood-opacity="1"/><feBlend in="SourceGraphic" in2="back"/></filter></defs><linearGradient id="SVGID_22_" gradientUnits="userSpaceOnUse" x1="258.396" y1="72.767" x2="28.374" y2="31.131" gradientTransform="matrix(.998 .06247 -.06247 .998 21.32 -12.452)"><stop offset="0" stop-color="#fff"/><stop offset=".111" stop-color="#fafafa"/><stop offset=".242" stop-color="#ececec"/><stop offset=".384" stop-color="#d4d4d4"/><stop offset=".533" stop-color="#b2b2b2"/><stop offset=".688" stop-color="#878787"/><stop offset=".845" stop-color="#545454"/><stop offset="1" stop-color="#1a1a1a"/></linearGradient><path d="M62.3 56.3c.1-4.1.1-8.2.2-12.2 16.2 1 32.3 2 48.5 3 0 1.2-.1 2.4-.1 3.6 1.2-.2 2.5-.5 3.7-.7 0-.9.1-1.8.1-2.7 3.8.2 7.6.5 11.5.7 2.3-.4 4.5-.8 6.8-1.1-6.1-.4-12.1-.8-18.2-1.1.2-4.1.3-8.1.5-12.2 16.3 1 32.5 2 48.8 3.1-.1 2-.3 4.1-.4 6.1 36.5-4.4 74.9-6.7 115.2-6.8-74.9-4.7-149.7-9.4-224.6-14.1-.2 13.8-.3 27.6-.5 41.4 8-2.1 16.2-4.1 24.5-6-5.3-.3-10.6-.6-16-1zm.4-26c16.3 1 32.5 2 48.8 3.1-.2 4.1-.3 8.1-.5 12.2-16.2-1-32.3-2-48.5-3 .1-4.1.2-8.2.2-12.3z" mask="url(#SVGID_21_)" fill="url(#SVGID_22_)"/></g></mask><path class="st42" d="M62.3 56.3c.1-4.1.1-8.2.2-12.2 16.2 1 32.3 2 48.5 3 0 1.2-.1 2.4-.1 3.6 1.2-.2 2.5-.5 3.7-.7 0-.9.1-1.8.1-2.7 3.8.2 7.6.5 11.5.7 2.3-.4 4.5-.8 6.8-1.1-6.1-.4-12.1-.8-18.2-1.1.2-4.1.3-8.1.5-12.2 16.3 1 32.5 2 48.8 3.1-.1 2-.3 4.1-.4 6.1 36.5-4.4 74.9-6.7 115.2-6.8-74.9-4.7-149.7-9.4-224.6-14.1-.2 13.8-.3 27.6-.5 41.4 8-2.1 16.2-4.1 24.5-6-5.3-.3-10.6-.6-16-1zm.4-26c16.3 1 32.5 2 48.8 3.1-.2 4.1-.3 8.1-.5 12.2-16.2-1-32.3-2-48.5-3 .1-4.1.2-8.2.2-12.3z"/><linearGradient id="SVGID_23_" gradientUnits="userSpaceOnUse" x1="46.386" y1="48.149" x2="87.719" y2="69.572" gradientTransform="matrix(.998 .06247 -.06247 .998 21.32 -12.452)"><stop offset="0" stop-color="#131f49"/><stop offset=".199" stop-color="#1a3962"/><stop offset=".404" stop-color="#204e76"/><stop offset=".54" stop-color="#22567d"/><stop offset="1" stop-color="#2568a5"/></linearGradient><path d="M109.6 58.3c-15.4-1-30.8-1.9-46.2-2.9.1-3.4.1-6.9.2-10.3 15.5 1 31 1.9 46.5 2.9-.3 3.5-.4 6.9-.5 10.3z" fill="url(#SVGID_23_)"/><linearGradient id="SVGID_24_" gradientUnits="userSpaceOnUse" x1="51.539" y1="37.323" x2="93.102" y2="58.865" gradientTransform="matrix(.998 .06247 -.06247 .998 21.32 -12.452)"><stop offset="0" stop-color="#131f49"/><stop offset=".199" stop-color="#1a3962"/><stop offset=".404" stop-color="#204e76"/><stop offset=".54" stop-color="#22567d"/><stop offset="1" stop-color="#2568a5"/></linearGradient><path d="M110.5 34.3c-15.6-1-31.2-2-46.8-2.9-.1 3.4-.1 6.9-.2 10.3 15.5 1 31 1.9 46.5 2.9.2-3.5.3-6.9.5-10.3z" fill="url(#SVGID_24_)"/><linearGradient id="SVGID_25_" gradientUnits="userSpaceOnUse" x1="101.274" y1="43.406" x2="140.518" y2="62.406" gradientTransform="matrix(.998 .06247 -.06247 .998 21.32 -12.452)"><stop offset="0" stop-color="#131f49"/><stop offset=".199" stop-color="#1a3962"/><stop offset=".404" stop-color="#204e76"/><stop offset=".54" stop-color="#22567d"/><stop offset="1" stop-color="#2568a5"/></linearGradient><path d="M162.1 51.3c-15.5-1-31-1.9-46.5-2.9-.1 3.4-.3 6.8-.4 10.3 15.4 1 30.8 1.9 46.2 2.9.3-3.5.5-6.9.7-10.3zm.8-13.7c-15.6-1-31.2-2-46.8-2.9-.1 3.4-.3 6.8-.4 10.3 15.5 1 31 1.9 46.5 2.9.3-3.5.5-6.9.7-10.3z" fill="url(#SVGID_25_)"/><path class="st17" d="M109.6 58.3l-10.2-.6c.1-3.4.2-6.8.3-10.3l10.2.6c-.1 3.5-.2 6.9-.3 10.3zm51.8 3.3l-10.2-.6c.2-3.4.4-6.8.6-10.3l10.2.6c-.1 3.4-.3 6.8-.6 10.3zm-51.3-17L99.9 44c.1-3.4.2-6.8.3-10.3 3.4.2 6.8.4 10.3.6-.2 3.4-.3 6.8-.4 10.3zm52.2 3.2l-10.2-.6c.2-3.4.4-6.8.6-10.3 3.4.2 6.8.4 10.3.6-.3 3.5-.5 6.9-.7 10.3z"/><path class="st37" d="M179.1 63.5c.3-4.2.6-8.3.9-12.5 29.4 1.8 58.9 3.7 88.3 5.5-.5 4.2-.9 8.3-1.4 12.5-29.2-1.8-58.5-3.6-87.8-5.5z"/><linearGradient id="SVGID_26_" gradientUnits="userSpaceOnUse" x1="160.052" y1="48.468" x2="251.671" y2="71.196" gradientTransform="matrix(.998 .06247 -.06247 .998 21.32 -12.452)"><stop offset="0" stop-color="#131f49"/><stop offset=".199" stop-color="#1a3962"/><stop offset=".404" stop-color="#204e76"/><stop offset=".54" stop-color="#22567d"/><stop offset="1" stop-color="#2568a5"/></linearGradient><path d="M265.7 68.1c-28.5-1.8-56.9-3.6-85.4-5.3.2-3.4.5-6.8.7-10.2l85.8 5.4c-.3 3.3-.7 6.7-1.1 10.1z" fill="url(#SVGID_26_)"/><path class="st37" d="M268.5 50c-6.6-.4-13.1-.8-19.7-1.2.2-2.2.4-4.3.7-6.5l19.8 1.2c-.3 2.2-.6 4.4-.8 6.5z"/><path class="st35" d="M267.8 49.3c-6-.4-12.1-.8-18.1-1.1.2-1.7.3-3.4.5-5.1 6.1.4 12.1.8 18.2 1.1l-.6 5.1z"/><path class="st47" d="M101.2 42.5c.1-2.4.1-4.7.2-7.1 2.7.2 5.4.3 8.1.5-.3.3-.6.6-1 .9l-6-.3c-.1 1.8-.3 3.6-.4 5.4l-.9.6z"/><path class="st8" d="M109.5 35.9c-.2 2.4-.5 4.7-.7 7.1-2.5-.2-5-.3-7.5-.5.3-.2.6-.4.8-.5 2 .1 4 .2 6.1.3.1-1.8.3-3.6.4-5.4.2-.4.5-.7.9-1z"/><path class="st47" d="M153.3 45.8c.1-2.4.2-4.7.3-7.1 2.7.2 5.4.3 8.1.5-.3.3-.7.6-1 .9l-6-.3c-.2 1.8-.3 3.6-.5 5.4l-.9.6z"/><path class="st8" d="M161.7 39.2c-.3 2.4-.6 4.7-.9 7.1-2.5-.2-5-.3-7.5-.5.3-.2.6-.4.9-.5 2 .1 4 .2 6.1.3.2-1.8.3-3.6.5-5.4.3-.4.6-.7.9-1z"/><path class="st47" d="M100.8 56.2c.1-2.4.1-4.7.2-7.1 2.7.2 5.4.3 8 .5-.3.3-.6.6-1 .9l-6-.3c-.1 1.8-.3 3.6-.4 5.4-.3.2-.6.4-.8.6z"/><path class="st8" d="M109 49.6c-.2 2.4-.5 4.7-.7 7.1-2.5-.2-5-.3-7.5-.5.3-.2.6-.4.8-.5l6 .3c.1-1.8.2-3.6.4-5.4.3-.4.6-.7 1-1z"/><path class="st47" d="M152.5 59.4c.1-2.4.2-4.7.3-7.1 2.7.2 5.4.3 8 .5-.3.3-.7.6-1 .9l-6-.3c-.2 1.8-.3 3.6-.5 5.4-.2.3-.5.4-.8.6z"/><path class="st8" d="M160.9 52.8c-.3 2.4-.6 4.7-.9 7.1-2.5-.2-5-.3-7.5-.5.3-.2.6-.4.9-.5l6 .3c.2-1.8.3-3.6.5-5.4.3-.4.7-.7 1-1z"/><path class="st48" d="M64.6 40.7c0-2.9.1-5.7.1-8.6 11.4.7 22.8 1.4 34.3 2.1-10.6 0-21.3.1-31.9.1-.4 2.2-.8 4.3-1.3 6.5-.4-.1-.8-.1-1.2-.1zm-.3 13.9c0-2.9.1-5.7.1-8.6 11.3.7 22.7 1.4 34 2.1-10.6 0-21.1.1-31.7.1-.4 2.2-.8 4.3-1.3 6.5-.2 0-.7 0-1.1-.1zm52.6-10.7c.1-2.9.2-5.7.3-8.6 11.4.7 22.8 1.4 34.3 2.1-10.7 0-21.3.1-31.9.1-.5 2.2-1 4.3-1.4 6.5-.4 0-.8 0-1.3-.1zm-.5 14c.1-2.9.2-5.7.3-8.6 11.3.7 22.7 1.4 34 2.1-10.6 0-21.2.1-31.7.1-.5 2.2-.9 4.3-1.4 6.5-.4 0-.8-.1-1.2-.1zm65.2 4.1c.2-2.9.4-5.7.6-8.6 25 1.6 50 3.1 74.9 4.7-24.3-.8-48.5-1.6-72.7-2.5-.5 2.1-1.1 4.3-1.6 6.4h-1.2z"/><path class="st49" d="M275.4 78.6l-223-14 222.1 12.6 4.2-27.5-3.1 27.5z"/><linearGradient id="SVGID_27_" gradientUnits="userSpaceOnUse" x1="9.754" y1="69.14" x2="273.074" y2="122.029" gradientTransform="matrix(.998 .06247 -.06247 .998 21.32 -12.452)"><stop offset=".06" stop-color="#22567d"/><stop offset=".619" stop-color="#14466a"/><stop offset="1" stop-color="#131f49"/></linearGradient><path d="M272.7 122.6c-74.3-4.7-148.7-9.3-223-14 .2-14.7.3-29.5.5-44.2C126 69.2 201.8 74 277.7 78.7c-1.7 14.7-3.4 29.3-5 43.9z" fill="url(#SVGID_27_)"/><path class="st37" d="M111.4 103.6c.2-4.1.3-8.1.5-12.2 16.2 1 32.3 2 48.5 3-.3 4.1-.5 8.1-.8 12.2-16.1-1-32.1-2-48.2-3zm-51.8-3.2c.1-4.1.1-8.2.2-12.2 16.2 1 32.3 2 48.5 3-.2 4.1-.3 8.1-.5 12.2-16.1-1-32.2-2-48.2-3zM112 89.9c.2-4.1.3-8.1.5-12.2 16.3 1 32.5 2 48.8 3.1-.3 4.1-.5 8.1-.8 12.2-16.2-1.1-32.4-2.1-48.5-3.1zm-52.2-3.3c.1-4.1.1-8.2.2-12.2 16.3 1 32.5 2 48.8 3.1-.2 4.1-.3 8.1-.5 12.2-16.2-1.1-32.4-2.1-48.5-3.1z"/><path class="st38" d="M51.1 107.4c.2-13.8.3-27.6.5-41.4 74.8 4.7 149.7 9.4 224.5 14.1-73.9-3.7-147.7-7.3-221.4-11-1.2 12.7-2.4 25.5-3.6 38.3z"/><defs><filter id="Adobe_OpacityMaskFilter_16_" filterUnits="userSpaceOnUse" x="51.1" y="66" width="225" height="41.4"><feFlood result="back" flood-color="#fff" flood-opacity="1"/><feBlend in="SourceGraphic" in2="back"/></filter></defs><mask maskUnits="userSpaceOnUse" x="51.1" y="66" width="225" height="41.4" id="SVGID_28_"><g filter="url(#Adobe_OpacityMaskFilter_16_)"><defs><filter id="Adobe_OpacityMaskFilter_17_" filterUnits="userSpaceOnUse" x="51.1" y="66" width="225" height="41.4"><feFlood result="back" flood-color="#fff" flood-opacity="1"/><feBlend in="SourceGraphic" in2="back"/></filter></defs><linearGradient id="SVGID_29_" gradientUnits="userSpaceOnUse" x1="258.396" y1="116.92" x2="28.374" y2="75.284" gradientTransform="matrix(.998 .06247 -.06247 .998 21.32 -12.452)"><stop offset="0" stop-color="#fff"/><stop offset=".111" stop-color="#fafafa"/><stop offset=".242" stop-color="#ececec"/><stop offset=".384" stop-color="#d4d4d4"/><stop offset=".533" stop-color="#b2b2b2"/><stop offset=".688" stop-color="#878787"/><stop offset=".845" stop-color="#545454"/><stop offset="1" stop-color="#1a1a1a"/></linearGradient><path d="M59.6 100.4c.1-4.1.1-8.2.2-12.2 16.2 1 32.3 2 48.5 3 0 1.2-.1 2.4-.1 3.6 1.2-.2 2.5-.5 3.7-.7 0-.9.1-1.8.1-2.7 3.8.2 7.6.5 11.5.7 2.3-.4 4.5-.8 6.8-1.1-6.1-.4-12.1-.8-18.2-1.1.2-4.1.3-8.1.5-12.2 16.3 1 32.5 2 48.8 3.1-.1 2-.3 4.1-.4 6.1 36.5-4.4 74.9-6.7 115.2-6.8-75-4.8-149.8-9.5-224.6-14.1-.2 13.8-.3 27.6-.5 41.4 8-2.1 16.2-4.1 24.5-6-5.4-.3-10.7-.7-16-1zm.4-26c16.3 1 32.5 2 48.8 3.1-.2 4.1-.3 8.1-.5 12.2-16.2-1-32.3-2-48.5-3 0-4.2.1-8.2.2-12.3z" mask="url(#SVGID_28_)" fill="url(#SVGID_29_)"/></g></mask><path class="st42" d="M59.6 100.4c.1-4.1.1-8.2.2-12.2 16.2 1 32.3 2 48.5 3 0 1.2-.1 2.4-.1 3.6 1.2-.2 2.5-.5 3.7-.7 0-.9.1-1.8.1-2.7 3.8.2 7.6.5 11.5.7 2.3-.4 4.5-.8 6.8-1.1-6.1-.4-12.1-.8-18.2-1.1.2-4.1.3-8.1.5-12.2 16.3 1 32.5 2 48.8 3.1-.1 2-.3 4.1-.4 6.1 36.5-4.4 74.9-6.7 115.2-6.8-75-4.8-149.8-9.5-224.6-14.1-.2 13.8-.3 27.6-.5 41.4 8-2.1 16.2-4.1 24.5-6-5.4-.3-10.7-.7-16-1zm.4-26c16.3 1 32.5 2 48.8 3.1-.2 4.1-.3 8.1-.5 12.2-16.2-1-32.3-2-48.5-3 0-4.2.1-8.2.2-12.3z"/><linearGradient id="SVGID_30_" gradientUnits="userSpaceOnUse" x1="46.386" y1="92.303" x2="87.719" y2="113.725" gradientTransform="matrix(.998 .06247 -.06247 .998 21.32 -12.452)"><stop offset="0" stop-color="#131f49"/><stop offset=".199" stop-color="#1a3962"/><stop offset=".404" stop-color="#204e76"/><stop offset=".54" stop-color="#22567d"/><stop offset="1" stop-color="#2568a5"/></linearGradient><path d="M106.8 102.4c-15.4-1-30.8-1.9-46.2-2.9.1-3.4.1-6.9.2-10.3 15.5 1 31 1.9 46.5 2.9-.2 3.4-.4 6.8-.5 10.3z" fill="url(#SVGID_30_)"/><linearGradient id="SVGID_31_" gradientUnits="userSpaceOnUse" x1="51.539" y1="81.477" x2="93.102" y2="103.018" gradientTransform="matrix(.998 .06247 -.06247 .998 21.32 -12.452)"><stop offset="0" stop-color="#131f49"/><stop offset=".199" stop-color="#1a3962"/><stop offset=".404" stop-color="#204e76"/><stop offset=".54" stop-color="#22567d"/><stop offset=".976" stop-color="#4ba5a1"/><stop offset="1" stop-color="#4da9a3"/></linearGradient><path d="M107.7 78.4c-15.6-1-31.2-2-46.8-2.9-.1 3.4-.1 6.9-.2 10.3 15.5 1 31 1.9 46.5 2.9.2-3.5.4-6.9.5-10.3z" fill="url(#SVGID_31_)"/><linearGradient id="SVGID_32_" gradientUnits="userSpaceOnUse" x1="101.274" y1="87.559" x2="140.518" y2="106.559" gradientTransform="matrix(.998 .06247 -.06247 .998 21.32 -12.452)"><stop offset="0" stop-color="#131f49"/><stop offset=".199" stop-color="#1a3962"/><stop offset=".404" stop-color="#204e76"/><stop offset=".54" stop-color="#22567d"/><stop offset="1" stop-color="#2568a5"/></linearGradient><path d="M159.3 95.4c-15.5-1-31-1.9-46.5-2.9-.1 3.4-.3 6.8-.4 10.3 15.4 1 30.8 1.9 46.2 2.9.3-3.5.5-6.9.7-10.3zm.9-13.8c-15.6-1-31.2-2-46.8-2.9-.1 3.4-.3 6.8-.4 10.3 15.5 1 31 1.9 46.5 2.9.2-3.4.4-6.8.7-10.3z" fill="url(#SVGID_32_)"/><path class="st17" d="M106.8 102.4l-10.2-.6c.1-3.4.2-6.8.3-10.3l10.2.6c0 3.4-.2 6.8-.3 10.3zm51.9 3.2l-10.2-.6c.2-3.4.4-6.8.6-10.3l10.2.6c-.2 3.5-.4 6.9-.6 10.3zm-51.4-17L97.1 88c.1-3.4.2-6.8.3-10.3 3.4.2 6.8.4 10.3.6-.1 3.5-.3 6.9-.4 10.3zm52.2 3.3l-10.2-.6c.2-3.4.4-6.8.6-10.3 3.4.2 6.8.4 10.3.6-.3 3.5-.5 6.9-.7 10.3z"/><path class="st37" d="M176.4 107.6c.3-4.2.6-8.3.9-12.5 29.4 1.8 58.9 3.7 88.3 5.5-.5 4.2-.9 8.3-1.4 12.5-29.3-1.8-58.5-3.7-87.8-5.5z"/><linearGradient id="SVGID_33_" gradientUnits="userSpaceOnUse" x1="160.052" y1="92.621" x2="251.671" y2="115.349" gradientTransform="matrix(.998 .06247 -.06247 .998 21.32 -12.452)"><stop offset="0" stop-color="#131f49"/><stop offset=".199" stop-color="#1a3962"/><stop offset=".404" stop-color="#204e76"/><stop offset=".54" stop-color="#22567d"/><stop offset="1" stop-color="#2568a5"/></linearGradient><path d="M263 112.1c-28.5-1.8-56.9-3.6-85.4-5.3.2-3.4.5-6.8.7-10.2l85.8 5.4c-.4 3.3-.8 6.7-1.1 10.1z" fill="url(#SVGID_33_)"/><path class="st37" d="M265.7 94.1c-6.6-.4-13.1-.8-19.7-1.2.2-2.2.4-4.3.7-6.5l19.8 1.2c-.3 2.2-.5 4.3-.8 6.5z"/><path class="st35" d="M265 93.4c-6-.4-12.1-.8-18.1-1.1.2-1.7.3-3.4.5-5.1 6.1.4 12.1.8 18.2 1.1-.2 1.6-.4 3.3-.6 5.1z"/><path class="st47" d="M98.5 86.6c.1-2.4.1-4.7.2-7.1 2.7.2 5.4.3 8.1.5-.3.3-.6.6-1 .9l-6-.3c-.1 1.8-.3 3.6-.4 5.4-.4.2-.7.4-.9.6z"/><path class="st8" d="M106.7 80c-.2 2.4-.5 4.7-.7 7.1-2.5-.2-5-.3-7.5-.5.3-.2.6-.4.8-.5 2 .1 4 .2 6.1.3.1-1.8.3-3.6.4-5.4.3-.4.6-.7.9-1z"/><path class="st47" d="M150.5 89.8c.1-2.4.2-4.7.3-7.1 2.7.2 5.4.3 8.1.5-.3.3-.7.6-1 .9l-6-.3c-.2 1.8-.3 3.6-.5 5.4-.3.3-.6.5-.9.6z"/><path class="st8" d="M159 83.2c-.3 2.4-.6 4.7-.9 7.1-2.5-.2-5-.3-7.5-.5.3-.2.6-.4.9-.5 2 .1 4 .2 6.1.3.2-1.8.3-3.6.5-5.4.2-.3.5-.7.9-1z"/><path class="st47" d="M98 100.2c.1-2.4.1-4.7.2-7.1 2.7.2 5.4.3 8 .5-.3.3-.6.6-1 .9l-6-.3c-.1 1.8-.3 3.6-.4 5.4-.2.3-.5.5-.8.6z"/><path class="st8" d="M106.2 93.6c-.2 2.4-.5 4.7-.7 7.1-2.5-.2-5-.3-7.5-.5.3-.2.6-.4.8-.5l6 .3c.1-1.8.2-3.6.4-5.4.4-.3.7-.7 1-1z"/><path class="st47" d="M149.8 103.5c.1-2.4.2-4.7.3-7.1 2.7.2 5.4.3 8 .5-.3.3-.7.6-1 .9l-6-.3c-.2 1.8-.3 3.6-.5 5.4-.3.2-.5.4-.8.6z"/><path class="st8" d="M158.1 96.9c-.3 2.4-.6 4.7-.9 7.1-2.5-.2-5-.3-7.5-.5.3-.2.6-.4.9-.5l6 .3c.2-1.8.3-3.6.5-5.4l1-1z"/><path class="st48" d="M61.8 84.7c0-2.9.1-5.7.1-8.6 11.4.7 22.8 1.4 34.3 2.1-10.6 0-21.3.1-31.9.1-.4 2.2-.8 4.3-1.3 6.5-.4 0-.8 0-1.2-.1zm-.2 14c0-2.9.1-5.7.1-8.6 11.3.7 22.7 1.4 34 2.1-10.6 0-21.1.1-31.7.1-.4 2.2-.8 4.3-1.3 6.5-.3 0-.7-.1-1.1-.1zM114.2 88c.1-2.9.2-5.7.3-8.6 11.4.7 22.8 1.4 34.3 2.1-10.7 0-21.3.1-31.9.1-.5 2.2-1 4.3-1.4 6.5-.5 0-.9-.1-1.3-.1zm-.6 14c.1-2.9.2-5.7.3-8.6 11.3.7 22.7 1.4 34 2.1-10.6 0-21.2.1-31.7.1-.5 2.2-.9 4.3-1.4 6.5-.4-.1-.8-.1-1.2-.1zm65.2 4c.2-2.9.4-5.7.6-8.6 25 1.6 50 3.1 74.9 4.7-24.3-.8-48.5-1.6-72.7-2.5-.5 2.1-1.1 4.3-1.6 6.4-.4.1-.8.1-1.2 0z"/><path class="st49" d="M272.7 122.6L49.6 108.7l222.1 12.6 4.2-27.5-3.1 27.4z"/><linearGradient id="SVGID_34_" gradientUnits="userSpaceOnUse" x1="9.754" y1="113.293" x2="273.074" y2="166.182" gradientTransform="matrix(.998 .06247 -.06247 .998 21.32 -12.452)"><stop offset=".06" stop-color="#22567d"/><stop offset=".619" stop-color="#14466a"/><stop offset="1" stop-color="#131f49"/></linearGradient><path d="M269.9 166.7c-74.3-4.7-148.7-9.3-223-14 .2-14.7.3-29.5.5-44.2 75.8 4.7 151.7 9.5 227.5 14.2-1.7 14.7-3.3 29.4-5 44z" fill="url(#SVGID_34_)"/><path class="st37" d="M108.7 147.7c.2-4.1.3-8.1.5-12.2 16.2 1 32.3 2 48.5 3-.3 4.1-.5 8.1-.8 12.2-16.1-1-32.2-2-48.2-3zm-51.9-3.2c.1-4.1.1-8.2.2-12.2 16.2 1 32.3 2 48.5 3-.2 4.1-.3 8.1-.5 12.2-16.1-1-32.1-2-48.2-3zm52.4-10.5c.2-4.1.3-8.1.5-12.2 16.3 1 32.5 2 48.8 3.1-.3 4.1-.5 8.1-.8 12.2-16.2-1.1-32.3-2.1-48.5-3.1zM57 130.7c.1-4.1.1-8.2.2-12.2 16.3 1 32.5 2 48.8 3.1-.2 4.1-.3 8.1-.5 12.2-16.1-1.1-32.3-2.1-48.5-3.1z"/><path class="st38" d="M48.3 151.4c.2-13.8.3-27.6.5-41.4 74.8 4.7 149.7 9.4 224.5 14.1-73.9-3.7-147.7-7.3-221.4-11-1.2 12.8-2.4 25.5-3.6 38.3z"/><defs><filter id="Adobe_OpacityMaskFilter_18_" filterUnits="userSpaceOnUse" x="48.3" y="110" width="225" height="41.4"><feFlood result="back" flood-color="#fff" flood-opacity="1"/><feBlend in="SourceGraphic" in2="back"/></filter></defs><mask maskUnits="userSpaceOnUse" x="48.3" y="110" width="225" height="41.4" id="SVGID_35_"><g filter="url(#Adobe_OpacityMaskFilter_18_)"><defs><filter id="Adobe_OpacityMaskFilter_19_" filterUnits="userSpaceOnUse" x="48.3" y="110" width="225" height="41.4"><feFlood result="back" flood-color="#fff" flood-opacity="1"/><feBlend in="SourceGraphic" in2="back"/></filter></defs><linearGradient id="SVGID_36_" gradientUnits="userSpaceOnUse" x1="258.396" y1="161.073" x2="28.374" y2="119.437" gradientTransform="matrix(.998 .06247 -.06247 .998 21.32 -12.452)"><stop offset="0" stop-color="#fff"/><stop offset=".111" stop-color="#fafafa"/><stop offset=".242" stop-color="#ececec"/><stop offset=".384" stop-color="#d4d4d4"/><stop offset=".533" stop-color="#b2b2b2"/><stop offset=".688" stop-color="#878787"/><stop offset=".845" stop-color="#545454"/><stop offset="1" stop-color="#1a1a1a"/></linearGradient><path d="M56.8 144.5c.1-4.1.1-8.2.2-12.2 16.2 1 32.3 2 48.5 3 0 1.2-.1 2.4-.1 3.6 1.2-.2 2.5-.5 3.7-.7 0-.9.1-1.8.1-2.7 3.8.2 7.6.5 11.5.7 2.3-.4 4.5-.8 6.8-1.1-6.1-.4-12.1-.8-18.2-1.1.2-4.1.3-8.1.5-12.2 16.3 1 32.5 2 48.8 3.1-.1 2-.3 4.1-.4 6.1 36.5-4.4 74.9-6.7 115.2-6.8-74.8-4.7-149.7-9.4-224.5-14.1-.2 13.8-.3 27.6-.5 41.4 8-2.1 16.2-4.1 24.5-6-5.4-.4-10.8-.7-16.1-1zm.4-26c16.3 1 32.5 2 48.8 3.1-.2 4.1-.3 8.1-.5 12.2-16.2-1-32.3-2-48.5-3 .1-4.2.1-8.3.2-12.3z" mask="url(#SVGID_35_)" fill="url(#SVGID_36_)"/></g></mask><path class="st42" d="M56.8 144.5c.1-4.1.1-8.2.2-12.2 16.2 1 32.3 2 48.5 3 0 1.2-.1 2.4-.1 3.6 1.2-.2 2.5-.5 3.7-.7 0-.9.1-1.8.1-2.7 3.8.2 7.6.5 11.5.7 2.3-.4 4.5-.8 6.8-1.1-6.1-.4-12.1-.8-18.2-1.1.2-4.1.3-8.1.5-12.2 16.3 1 32.5 2 48.8 3.1-.1 2-.3 4.1-.4 6.1 36.5-4.4 74.9-6.7 115.2-6.8-74.8-4.7-149.7-9.4-224.5-14.1-.2 13.8-.3 27.6-.5 41.4 8-2.1 16.2-4.1 24.5-6-5.4-.4-10.8-.7-16.1-1zm.4-26c16.3 1 32.5 2 48.8 3.1-.2 4.1-.3 8.1-.5 12.2-16.2-1-32.3-2-48.5-3 .1-4.2.1-8.3.2-12.3z"/><linearGradient id="SVGID_37_" gradientUnits="userSpaceOnUse" x1="46.386" y1="136.456" x2="87.719" y2="157.878" gradientTransform="matrix(.998 .06247 -.06247 .998 21.32 -12.452)"><stop offset="0" stop-color="#131f49"/><stop offset=".199" stop-color="#1a3962"/><stop offset=".404" stop-color="#204e76"/><stop offset=".54" stop-color="#22567d"/><stop offset="1" stop-color="#2568a5"/></linearGradient><path d="M104 146.4c-15.4-1-30.8-1.9-46.2-2.9.1-3.4.1-6.9.2-10.3 15.5 1 31 1.9 46.5 2.9-.2 3.5-.3 6.9-.5 10.3z" fill="url(#SVGID_37_)"/><linearGradient id="SVGID_38_" gradientUnits="userSpaceOnUse" x1="51.539" y1="125.629" x2="93.102" y2="147.171" gradientTransform="matrix(.998 .06247 -.06247 .998 21.32 -12.452)"><stop offset="0" stop-color="#131f49"/><stop offset=".199" stop-color="#1a3962"/><stop offset=".404" stop-color="#204e76"/><stop offset=".54" stop-color="#22567d"/><stop offset="1" stop-color="#2568a5"/></linearGradient><path d="M104.9 122.4c-15.6-1-31.2-2-46.8-2.9-.1 3.4-.1 6.9-.2 10.3 15.5 1 31 1.9 46.5 2.9.3-3.4.4-6.9.5-10.3z" fill="url(#SVGID_38_)"/><linearGradient id="SVGID_39_" gradientUnits="userSpaceOnUse" x1="101.274" y1="131.712" x2="140.518" y2="150.712" gradientTransform="matrix(.998 .06247 -.06247 .998 21.32 -12.452)"><stop offset="0" stop-color="#131f49"/><stop offset=".199" stop-color="#1a3962"/><stop offset=".404" stop-color="#204e76"/><stop offset=".54" stop-color="#22567d"/><stop offset="1" stop-color="#2568a5"/></linearGradient><path d="M156.6 139.4c-15.5-1-31-1.9-46.5-2.9-.1 3.4-.3 6.8-.4 10.3 15.4 1 30.8 1.9 46.2 2.9.2-3.4.4-6.8.7-10.3zm.8-13.7c-15.6-1-31.2-2-46.8-2.9-.1 3.4-.3 6.8-.4 10.3 15.5 1 31 1.9 46.5 2.9.3-3.5.5-6.9.7-10.3z" fill="url(#SVGID_39_)"/><path class="st17" d="M104 146.4l-10.2-.6c.1-3.4.2-6.8.3-10.3l10.2.6c0 3.5-.1 6.9-.3 10.3zm51.9 3.3l-10.2-.6c.2-3.4.4-6.8.6-10.3l10.2.6c-.2 3.5-.4 6.9-.6 10.3zm-51.3-17l-10.2-.6c.1-3.4.2-6.8.3-10.3 3.4.2 6.8.4 10.3.6-.2 3.4-.3 6.9-.4 10.3zm52.2 3.3l-10.2-.6c.2-3.4.4-6.8.6-10.3 3.4.2 6.8.4 10.3.6-.3 3.4-.5 6.8-.7 10.3z"/><path class="st37" d="M173.6 151.7c.3-4.2.6-8.3.9-12.5 29.4 1.8 58.9 3.7 88.3 5.5-.5 4.2-.9 8.3-1.4 12.5-29.2-1.9-58.5-3.7-87.8-5.5z"/><linearGradient id="SVGID_40_" gradientUnits="userSpaceOnUse" x1="160.052" y1="136.774" x2="251.671" y2="159.502" gradientTransform="matrix(.998 .06247 -.06247 .998 21.32 -12.452)"><stop offset="0" stop-color="#131f49"/><stop offset=".199" stop-color="#1a3962"/><stop offset=".404" stop-color="#204e76"/><stop offset=".54" stop-color="#22567d"/><stop offset="1" stop-color="#2568a5"/></linearGradient><path d="M260.2 156.2c-28.5-1.8-56.9-3.6-85.4-5.3.2-3.4.5-6.8.7-10.2l85.8 5.4c-.3 3.3-.7 6.7-1.1 10.1z" fill="url(#SVGID_40_)"/><path class="st37" d="M263 138.2c-6.6-.4-13.1-.8-19.7-1.2.2-2.2.4-4.3.7-6.5l19.8 1.2c-.3 2.1-.6 4.3-.8 6.5z"/><path class="st35" d="M262.3 137.4c-6-.4-12.1-.8-18.1-1.1.2-1.7.3-3.4.5-5.1 6.1.4 12.1.8 18.2 1.1-.3 1.7-.4 3.4-.6 5.1z"/><path class="st47" d="M95.7 130.6c.1-2.4.1-4.7.2-7.1 2.7.2 5.4.3 8.1.5-.3.3-.6.6-1 .9l-6-.3c-.1 1.8-.3 3.6-.4 5.4-.3.3-.6.5-.9.6z"/><path class="st8" d="M104 124c-.2 2.4-.5 4.7-.7 7.1-2.5-.2-5-.3-7.5-.5.3-.2.6-.4.8-.5 2 .1 4 .2 6.1.3.1-1.8.3-3.6.4-5.4.2-.4.5-.7.9-1z"/><path class="st47" d="M147.8 133.9c.1-2.4.2-4.7.3-7.1 2.7.2 5.4.3 8.1.5-.3.3-.7.6-1 .9l-6-.3c-.2 1.8-.3 3.6-.5 5.4l-.9.6z"/><path class="st8" d="M156.2 127.3c-.3 2.4-.6 4.7-.9 7.1-2.5-.2-5-.3-7.5-.5.3-.2.6-.4.9-.5 2 .1 4 .2 6.1.3.2-1.8.3-3.6.5-5.4.2-.4.6-.7.9-1z"/><path class="st47" d="M95.2 144.3c.1-2.4.1-4.7.2-7.1 2.7.2 5.4.3 8 .5-.3.3-.6.6-1 .9l-6-.3c-.1 1.8-.3 3.6-.4 5.4-.2.2-.5.4-.8.6z"/><path class="st8" d="M103.4 137.7c-.2 2.4-.5 4.7-.7 7.1-2.5-.2-5-.3-7.5-.5.3-.2.6-.4.8-.5l6 .3c.1-1.8.2-3.6.4-5.4l1-1z"/><path class="st47" d="M147 147.5c.1-2.4.2-4.7.3-7.1 2.7.2 5.4.3 8 .5-.3.3-.7.6-1 .9l-6-.3c-.2 1.8-.3 3.6-.5 5.4-.2.3-.5.5-.8.6z"/><path class="st8" d="M155.4 140.9c-.3 2.4-.6 4.7-.9 7.1-2.5-.2-5-.3-7.5-.5.3-.2.6-.4.9-.5l6 .3c.2-1.8.3-3.6.5-5.4.3-.3.7-.6 1-1z"/><path class="st48" d="M59 128.8c0-2.9.1-5.7.1-8.6 11.4.7 22.8 1.4 34.3 2.1-10.6 0-21.3.1-31.9.1-.4 2.2-.8 4.3-1.3 6.5-.3-.1-.7-.1-1.2-.1zm-.2 14c0-2.9.1-5.7.1-8.6 11.3.7 22.7 1.4 34 2.1-10.6 0-21.1.1-31.7.1-.4 2.2-.8 4.3-1.3 6.5-.3-.1-.7-.1-1.1-.1zm52.6-10.7c.1-2.9.2-5.7.3-8.6 11.4.7 22.8 1.4 34.3 2.1-10.7 0-21.3.1-31.9.1-.5 2.2-1 4.3-1.4 6.5-.4-.1-.9-.1-1.3-.1zm-.5 13.9c.1-2.9.2-5.7.3-8.6 11.3.7 22.7 1.4 34 2.1-10.6 0-21.2.1-31.7.1-.5 2.2-.9 4.3-1.4 6.5-.4 0-.8 0-1.2-.1zm65.1 4.1c.2-2.9.4-5.7.6-8.6 25 1.6 50 3.1 74.9 4.7-24.3-.8-48.5-1.6-72.7-2.5-.5 2.1-1.1 4.3-1.6 6.4-.3.1-.8 0-1.2 0z"/><path class="st49" d="M269.9 166.7l-223-14L269 165.3l4.2-27.4-3.1 27.4z"/><linearGradient id="SVGID_41_" gradientUnits="userSpaceOnUse" x1="9.754" y1="157.446" x2="273.074" y2="210.335" gradientTransform="matrix(.998 .06247 -.06247 .998 21.32 -12.452)"><stop offset=".06" stop-color="#22567d"/><stop offset=".619" stop-color="#14466a"/><stop offset="1" stop-color="#131f49"/></linearGradient><path d="M267.1 210.8c-74.3-4.7-148.7-9.3-223-14 .2-14.7.3-29.5.5-44.2 75.8 4.7 151.7 9.5 227.5 14.2-1.6 14.7-3.3 29.3-5 44z" fill="url(#SVGID_41_)"/><path class="st37" d="M105.9 191.8c.2-4.1.3-8.1.5-12.2 16.2 1 32.3 2 48.5 3-.3 4.1-.5 8.1-.8 12.2-16.1-1-32.1-2-48.2-3zM54 188.5c.1-4.1.1-8.2.2-12.2 16.2 1 32.3 2 48.5 3-.2 4.1-.3 8.1-.5 12.2-16-1-32.1-2-48.2-3zm52.4-10.5c.2-4.1.3-8.1.5-12.2 16.3 1 32.5 2 48.8 3.1-.3 4.1-.5 8.1-.8 12.2-16.1-1.1-32.3-2.1-48.5-3.1zm-52.1-3.2c.1-4.1.1-8.2.2-12.2 16.3 1 32.5 2 48.8 3.1-.2 4.1-.3 8.1-.5 12.2-16.2-1.1-32.4-2.1-48.5-3.1z"/><path class="st38" d="M45.6 195.5c.2-13.8.3-27.6.5-41.4 74.8 4.7 149.7 9.4 224.5 14.1-73.9-3.7-147.7-7.3-221.4-11-1.3 12.7-2.5 25.5-3.6 38.3z"/><defs><filter id="Adobe_OpacityMaskFilter_20_" filterUnits="userSpaceOnUse" x="45.6" y="154.1" width="225" height="41.4"><feFlood result="back" flood-color="#fff" flood-opacity="1"/><feBlend in="SourceGraphic" in2="back"/></filter></defs><mask maskUnits="userSpaceOnUse" x="45.6" y="154.1" width="225" height="41.4" id="SVGID_42_"><g filter="url(#Adobe_OpacityMaskFilter_20_)"><defs><filter id="Adobe_OpacityMaskFilter_21_" filterUnits="userSpaceOnUse" x="45.6" y="154.1" width="225" height="41.4"><feFlood result="back" flood-color="#fff" flood-opacity="1"/><feBlend in="SourceGraphic" in2="back"/></filter></defs><linearGradient id="SVGID_43_" gradientUnits="userSpaceOnUse" x1="258.396" y1="205.226" x2="28.374" y2="163.59" gradientTransform="matrix(.998 .06247 -.06247 .998 21.32 -12.452)"><stop offset="0" stop-color="#fff"/><stop offset=".111" stop-color="#fafafa"/><stop offset=".242" stop-color="#ececec"/><stop offset=".384" stop-color="#d4d4d4"/><stop offset=".533" stop-color="#b2b2b2"/><stop offset=".688" stop-color="#878787"/><stop offset=".845" stop-color="#545454"/><stop offset="1" stop-color="#1a1a1a"/></linearGradient><path d="M54 188.5c.1-4.1.1-8.2.2-12.2 16.2 1 32.3 2 48.5 3 0 1.2-.1 2.4-.1 3.6 1.2-.2 2.5-.5 3.7-.7 0-.9.1-1.8.1-2.7 3.8.2 7.6.5 11.5.7 2.3-.4 4.5-.8 6.8-1.1-6.1-.4-12.1-.8-18.2-1.1.2-4.1.3-8.1.5-12.2 16.3 1 32.5 2 48.8 3.1-.1 2-.3 4.1-.4 6.1 36.5-4.4 74.9-6.7 115.2-6.8-74.8-4.7-149.7-9.4-224.5-14.1-.2 13.8-.3 27.6-.5 41.4 8-2.1 16.2-4.1 24.5-6-5.4-.3-10.7-.6-16.1-1zm.5-26c16.3 1 32.5 2 48.8 3.1-.2 4.1-.3 8.1-.5 12.2-16.2-1-32.3-2-48.5-3 0-4.1.1-8.2.2-12.3z" mask="url(#SVGID_42_)" fill="url(#SVGID_43_)"/></g></mask><path class="st42" d="M54 188.5c.1-4.1.1-8.2.2-12.2 16.2 1 32.3 2 48.5 3 0 1.2-.1 2.4-.1 3.6 1.2-.2 2.5-.5 3.7-.7 0-.9.1-1.8.1-2.7 3.8.2 7.6.5 11.5.7 2.3-.4 4.5-.8 6.8-1.1-6.1-.4-12.1-.8-18.2-1.1.2-4.1.3-8.1.5-12.2 16.3 1 32.5 2 48.8 3.1-.1 2-.3 4.1-.4 6.1 36.5-4.4 74.9-6.7 115.2-6.8-74.8-4.7-149.7-9.4-224.5-14.1-.2 13.8-.3 27.6-.5 41.4 8-2.1 16.2-4.1 24.5-6-5.4-.3-10.7-.6-16.1-1zm.5-26c16.3 1 32.5 2 48.8 3.1-.2 4.1-.3 8.1-.5 12.2-16.2-1-32.3-2-48.5-3 0-4.1.1-8.2.2-12.3z"/><linearGradient id="SVGID_44_" gradientUnits="userSpaceOnUse" x1="46.386" y1="180.609" x2="87.719" y2="202.031" gradientTransform="matrix(.998 .06247 -.06247 .998 21.32 -12.452)"><stop offset="0" stop-color="#131f49"/><stop offset=".199" stop-color="#1a3962"/><stop offset=".404" stop-color="#204e76"/><stop offset=".54" stop-color="#22567d"/><stop offset="1" stop-color="#2568a5"/></linearGradient><path d="M101.3 190.5c-15.4-1-30.8-1.9-46.2-2.9.1-3.4.1-6.9.2-10.3 15.5 1 31 1.9 46.5 2.9-.3 3.5-.4 6.9-.5 10.3z" fill="url(#SVGID_44_)"/><linearGradient id="SVGID_45_" gradientUnits="userSpaceOnUse" x1="51.539" y1="169.783" x2="93.102" y2="191.324" gradientTransform="matrix(.998 .06247 -.06247 .998 21.32 -12.452)"><stop offset="0" stop-color="#131f49"/><stop offset=".199" stop-color="#1a3962"/><stop offset=".404" stop-color="#204e76"/><stop offset=".54" stop-color="#22567d"/><stop offset="1" stop-color="#2568a5"/></linearGradient><path d="M102.2 166.5c-15.6-1-31.2-2-46.8-2.9-.1 3.4-.1 6.9-.2 10.3 15.5 1 31 1.9 46.5 2.9.2-3.5.4-6.9.5-10.3z" fill="url(#SVGID_45_)"/><linearGradient id="SVGID_46_" gradientUnits="userSpaceOnUse" x1="101.274" y1="175.865" x2="140.518" y2="194.865" gradientTransform="matrix(.998 .06247 -.06247 .998 21.32 -12.452)"><stop offset="0" stop-color="#131f49"/><stop offset=".199" stop-color="#1a3962"/><stop offset=".404" stop-color="#204e76"/><stop offset=".54" stop-color="#22567d"/><stop offset="1" stop-color="#2568a5"/></linearGradient><path d="M153.8 183.5c-15.5-1-31-1.9-46.5-2.9-.1 3.4-.3 6.8-.4 10.3 15.4 1 30.8 1.9 46.2 2.9.3-3.5.5-6.9.7-10.3zm.8-13.7c-15.6-1-31.2-2-46.8-2.9-.1 3.4-.3 6.8-.4 10.3 15.5 1 31 1.9 46.5 2.9.3-3.5.5-6.9.7-10.3z" fill="url(#SVGID_46_)"/><path class="st17" d="M101.3 190.5l-10.2-.6c.1-3.4.2-6.8.3-10.3l10.2.6c-.1 3.5-.2 6.9-.3 10.3zm51.9 3.3l-10.2-.6c.2-3.4.4-6.8.6-10.3l10.2.6c-.2 3.4-.4 6.8-.6 10.3zm-51.4-17l-10.2-.6c.1-3.4.2-6.8.3-10.3 3.4.2 6.8.4 10.3.6-.1 3.4-.3 6.8-.4 10.3zM154 180l-10.2-.6c.2-3.4.4-6.8.6-10.3 3.4.2 6.8.4 10.3.6-.3 3.5-.5 6.9-.7 10.3z"/><path class="st37" d="M170.9 195.7c.3-4.2.6-8.3.9-12.5 29.4 1.8 58.9 3.7 88.3 5.5-.5 4.2-.9 8.3-1.4 12.5-29.3-1.8-58.6-3.6-87.8-5.5z"/><linearGradient id="SVGID_47_" gradientUnits="userSpaceOnUse" x1="160.052" y1="180.927" x2="251.671" y2="203.655" gradientTransform="matrix(.998 .06247 -.06247 .998 21.32 -12.452)"><stop offset="0" stop-color="#131f49"/><stop offset=".199" stop-color="#1a3962"/><stop offset=".404" stop-color="#204e76"/><stop offset=".54" stop-color="#22567d"/><stop offset="1" stop-color="#2568a5"/></linearGradient><path d="M257.5 200.3c-28.5-1.8-56.9-3.6-85.4-5.3.2-3.4.5-6.8.7-10.2l85.8 5.4c-.4 3.3-.8 6.7-1.1 10.1z" fill="url(#SVGID_47_)"/><path class="st37" d="M260.2 182.2c-6.6-.4-13.1-.8-19.7-1.2.2-2.2.4-4.3.7-6.5l19.8 1.2c-.3 2.2-.5 4.4-.8 6.5z"/><path class="st35" d="M259.5 181.5c-6-.4-12.1-.8-18.1-1.1.2-1.7.3-3.4.5-5.1 6.1.4 12.1.8 18.2 1.1l-.6 5.1z"/><path class="st47" d="M92.9 174.7c.1-2.4.1-4.7.2-7.1 2.7.2 5.4.3 8.1.5-.3.3-.6.6-1 .9l-6-.3c-.1 1.8-.3 3.6-.4 5.4l-.9.6z"/><path class="st8" d="M101.2 168.1c-.2 2.4-.5 4.7-.7 7.1-2.5-.2-5-.3-7.5-.5.3-.2.6-.4.8-.5 2 .1 4 .2 6.1.3.1-1.8.3-3.6.4-5.4.2-.4.6-.7.9-1z"/><path class="st47" d="M145 178c.1-2.4.2-4.7.3-7.1 2.7.2 5.4.3 8.1.5-.3.3-.7.6-1 .9l-6-.3c-.2 1.8-.3 3.6-.5 5.4l-.9.6z"/><path class="st8" d="M153.5 171.4c-.3 2.4-.6 4.7-.9 7.1-2.5-.2-5-.3-7.5-.5.3-.2.6-.4.9-.5 2 .1 4 .2 6.1.3.2-1.8.3-3.6.5-5.4.2-.4.5-.7.9-1z"/><path class="st47" d="M92.5 188.4c.1-2.4.1-4.7.2-7.1 2.7.2 5.4.3 8 .5-.3.3-.6.6-1 .9l-6-.3c-.1 1.8-.3 3.6-.4 5.4-.3.2-.5.4-.8.6z"/><path class="st8" d="M100.7 181.8c-.2 2.4-.5 4.7-.7 7.1-2.5-.2-5-.3-7.5-.5.3-.2.6-.4.8-.5l6 .3c.1-1.8.2-3.6.4-5.4.3-.4.7-.7 1-1z"/><path class="st47" d="M144.3 191.6c.1-2.4.2-4.7.3-7.1 2.7.2 5.4.3 8 .5-.3.3-.7.6-1 .9l-6-.3c-.2 1.8-.3 3.6-.5 5.4-.3.3-.6.4-.8.6z"/><path class="st8" d="M152.6 185c-.3 2.4-.6 4.7-.9 7.1-2.5-.2-5-.3-7.5-.5.3-.2.6-.4.9-.5l6 .3c.2-1.8.3-3.6.5-5.4l1-1z"/><path class="st48" d="M56.3 172.9c0-2.9.1-5.7.1-8.6 11.4.7 22.8 1.4 34.3 2.1-10.6 0-21.3.1-31.9.1-.4 2.2-.8 4.3-1.3 6.5-.4-.1-.8-.1-1.2-.1zm-.2 13.9c0-2.9.1-5.7.1-8.6 11.3.7 22.7 1.4 34 2.1-10.6 0-21.1.1-31.7.1-.4 2.2-.8 4.3-1.3 6.5-.3 0-.7 0-1.1-.1zm52.6-10.7c.1-2.9.2-5.7.3-8.6 11.4.7 22.8 1.4 34.3 2.1-10.7 0-21.3.1-31.9.1-.5 2.2-1 4.3-1.4 6.5-.5 0-.9 0-1.3-.1zm-.6 14c.1-2.9.2-5.7.3-8.6 11.3.7 22.7 1.4 34 2.1-10.6 0-21.2.1-31.7.1-.5 2.2-.9 4.3-1.4 6.5-.4 0-.8-.1-1.2-.1zm65.2 4.1c.2-2.9.4-5.7.6-8.6 25 1.6 50 3.1 74.9 4.7-24.3-.8-48.5-1.6-72.7-2.5-.5 2.1-1.1 4.3-1.6 6.4h-1.2z"/><path class="st49" d="M267.1 210.8l-223-14 222.1 12.6 4.2-27.4-3.1 27.4z"/><linearGradient id="SVGID_48_" gradientUnits="userSpaceOnUse" x1="9.754" y1="201.6" x2="273.074" y2="254.488" gradientTransform="matrix(.998 .06247 -.06247 .998 21.32 -12.452)"><stop offset=".06" stop-color="#22567d"/><stop offset=".619" stop-color="#14466a"/><stop offset="1" stop-color="#131f49"/></linearGradient><path d="M264.4 254.8c-74.3-4.7-148.7-9.3-223-14 .2-14.7.3-29.5.5-44.2 75.8 4.7 151.7 9.5 227.5 14.2-1.7 14.8-3.4 29.4-5 44z" fill="url(#SVGID_48_)"/><path class="st37" d="M103.1 235.8c.2-4.1.3-8.1.5-12.2 16.2 1 32.3 2 48.5 3-.3 4.1-.5 8.1-.8 12.2-16-1-32.1-2-48.2-3zm-51.8-3.2c.1-4.1.1-8.2.2-12.2 16.2 1 32.3 2 48.5 3-.2 4.1-.3 8.1-.5 12.2-16.1-1-32.1-2-48.2-3zm52.4-10.5c.2-4.1.3-8.1.5-12.2 16.3 1 32.5 2 48.8 3.1-.3 4.1-.5 8.1-.8 12.2-16.2-1.1-32.3-2.1-48.5-3.1zm-52.2-3.3c.1-4.1.1-8.2.2-12.2 16.3 1 32.5 2 48.8 3.1-.2 4.1-.3 8.1-.5 12.2-16.2-1.1-32.3-2.1-48.5-3.1z"/><path class="st38" d="M42.8 239.6c.2-13.8.3-27.6.5-41.4 74.8 4.7 149.7 9.4 224.5 14.1-73.9-3.7-147.7-7.3-221.4-11-1.2 12.7-2.4 25.5-3.6 38.3z"/><defs><filter id="Adobe_OpacityMaskFilter_22_" filterUnits="userSpaceOnUse" x="42.8" y="198.2" width="225" height="41.4"><feFlood result="back" flood-color="#fff" flood-opacity="1"/><feBlend in="SourceGraphic" in2="back"/></filter></defs><mask maskUnits="userSpaceOnUse" x="42.8" y="198.2" width="225" height="41.4" id="SVGID_49_"><g filter="url(#Adobe_OpacityMaskFilter_22_)"><defs><filter id="Adobe_OpacityMaskFilter_23_" filterUnits="userSpaceOnUse" x="42.8" y="198.2" width="225" height="41.4"><feFlood result="back" flood-color="#fff" flood-opacity="1"/><feBlend in="SourceGraphic" in2="back"/></filter></defs><linearGradient id="SVGID_50_" gradientUnits="userSpaceOnUse" x1="258.396" y1="249.379" x2="28.374" y2="207.743" gradientTransform="matrix(.998 .06247 -.06247 .998 21.32 -12.452)"><stop offset="0" stop-color="#fff"/><stop offset=".111" stop-color="#fafafa"/><stop offset=".242" stop-color="#ececec"/><stop offset=".384" stop-color="#d4d4d4"/><stop offset=".533" stop-color="#b2b2b2"/><stop offset=".688" stop-color="#878787"/><stop offset=".845" stop-color="#545454"/><stop offset="1" stop-color="#1a1a1a"/></linearGradient><path d="M51.3 232.6c.1-4.1.1-8.2.2-12.2 16.2 1 32.3 2 48.5 3 0 1.2-.1 2.4-.1 3.6 1.2-.2 2.5-.5 3.7-.7 0-.9.1-1.8.1-2.7 3.8.2 7.6.5 11.5.7 2.3-.4 4.5-.8 6.8-1.1-6.1-.4-12.1-.8-18.2-1.1.2-4.1.3-8.1.5-12.2 16.3 1 32.5 2 48.8 3.1-.1 2-.3 4.1-.4 6.1 36.5-4.4 74.9-6.7 115.2-6.8-74.8-4.7-149.7-9.4-224.5-14.1-.2 13.8-.3 27.6-.5 41.4 8-2.1 16.2-4.1 24.5-6-5.4-.3-10.8-.7-16.1-1zm.4-26c16.3 1 32.5 2 48.8 3.1-.2 4.1-.3 8.1-.5 12.2-16.2-1-32.3-2-48.5-3 .1-4.2.1-8.2.2-12.3z" mask="url(#SVGID_49_)" fill="url(#SVGID_50_)"/></g></mask><path class="st42" d="M51.3 232.6c.1-4.1.1-8.2.2-12.2 16.2 1 32.3 2 48.5 3 0 1.2-.1 2.4-.1 3.6 1.2-.2 2.5-.5 3.7-.7 0-.9.1-1.8.1-2.7 3.8.2 7.6.5 11.5.7 2.3-.4 4.5-.8 6.8-1.1-6.1-.4-12.1-.8-18.2-1.1.2-4.1.3-8.1.5-12.2 16.3 1 32.5 2 48.8 3.1-.1 2-.3 4.1-.4 6.1 36.5-4.4 74.9-6.7 115.2-6.8-74.8-4.7-149.7-9.4-224.5-14.1-.2 13.8-.3 27.6-.5 41.4 8-2.1 16.2-4.1 24.5-6-5.4-.3-10.8-.7-16.1-1zm.4-26c16.3 1 32.5 2 48.8 3.1-.2 4.1-.3 8.1-.5 12.2-16.2-1-32.3-2-48.5-3 .1-4.2.1-8.2.2-12.3z"/><linearGradient id="SVGID_51_" gradientUnits="userSpaceOnUse" x1="46.386" y1="224.762" x2="87.719" y2="246.184" gradientTransform="matrix(.998 .06247 -.06247 .998 21.32 -12.452)"><stop offset="0" stop-color="#131f49"/><stop offset=".199" stop-color="#1a3962"/><stop offset=".404" stop-color="#204e76"/><stop offset=".54" stop-color="#22567d"/><stop offset="1" stop-color="#2568a5"/></linearGradient><path d="M98.5 234.6c-15.4-1-30.8-1.9-46.2-2.9.1-3.4.1-6.9.2-10.3 15.5 1 31 1.9 46.5 2.9-.2 3.4-.3 6.8-.5 10.3z" fill="url(#SVGID_51_)"/><linearGradient id="SVGID_52_" gradientUnits="userSpaceOnUse" x1="51.539" y1="213.936" x2="93.102" y2="235.477" gradientTransform="matrix(.998 .06247 -.06247 .998 21.32 -12.452)"><stop offset="0" stop-color="#131f49"/><stop offset=".199" stop-color="#1a3962"/><stop offset=".404" stop-color="#204e76"/><stop offset=".54" stop-color="#22567d"/><stop offset="1" stop-color="#2568a5"/></linearGradient><path d="M99.4 210.6c-15.6-1-31.2-2-46.8-2.9-.1 3.4-.1 6.9-.2 10.3 15.5 1 31 1.9 46.5 2.9.3-3.5.4-6.9.5-10.3z" fill="url(#SVGID_52_)"/><linearGradient id="SVGID_53_" gradientUnits="userSpaceOnUse" x1="101.274" y1="220.018" x2="140.518" y2="239.018" gradientTransform="matrix(.998 .06247 -.06247 .998 21.32 -12.452)"><stop offset="0" stop-color="#131f49"/><stop offset=".199" stop-color="#1a3962"/><stop offset=".404" stop-color="#204e76"/><stop offset=".54" stop-color="#22567d"/><stop offset="1" stop-color="#2568a5"/></linearGradient><path d="M151 227.6c-15.5-1-31-1.9-46.5-2.9-.1 3.4-.3 6.8-.4 10.3 15.4 1 30.8 1.9 46.2 2.9.3-3.5.5-6.9.7-10.3zm.9-13.8c-15.6-1-31.2-2-46.8-2.9-.1 3.4-.3 6.8-.4 10.3 15.5 1 31 1.9 46.5 2.9.3-3.4.5-6.8.7-10.3z" fill="url(#SVGID_53_)"/><path class="st17" d="M98.5 234.6l-10.2-.6c.1-3.4.2-6.8.3-10.3l10.2.6c0 3.4-.1 6.8-.3 10.3zm51.9 3.2l-10.2-.6c.2-3.4.4-6.8.6-10.3l10.2.6c-.2 3.5-.4 6.9-.6 10.3zm-51.4-17l-10.2-.6c.1-3.4.2-6.8.3-10.3 3.4.2 6.8.4 10.3.6-.1 3.5-.2 6.9-.4 10.3zm52.3 3.3l-10.2-.6c.2-3.4.4-6.8.6-10.3 3.4.2 6.8.4 10.3.6-.3 3.5-.5 6.9-.7 10.3z"/><path class="st37" d="M168.1 239.8c.3-4.2.6-8.3.9-12.5 29.4 1.8 58.9 3.7 88.3 5.5-.5 4.2-.9 8.3-1.4 12.5-29.2-1.8-58.5-3.7-87.8-5.5z"/><linearGradient id="SVGID_54_" gradientUnits="userSpaceOnUse" x1="160.052" y1="225.08" x2="251.671" y2="247.808" gradientTransform="matrix(.998 .06247 -.06247 .998 21.32 -12.452)"><stop offset="0" stop-color="#131f49"/><stop offset=".199" stop-color="#1a3962"/><stop offset=".404" stop-color="#204e76"/><stop offset=".54" stop-color="#22567d"/><stop offset="1" stop-color="#2568a5"/></linearGradient><path d="M254.7 244.3c-28.5-1.8-56.9-3.6-85.4-5.3.2-3.4.5-6.8.7-10.2l85.8 5.4c-.4 3.3-.7 6.7-1.1 10.1z" fill="url(#SVGID_54_)"/><path class="st37" d="M257.5 226.3c-6.6-.4-13.1-.8-19.7-1.2.2-2.2.4-4.3.7-6.5l19.8 1.2c-.4 2.2-.6 4.3-.8 6.5z"/><path class="st35" d="M256.7 225.6c-6-.4-12.1-.8-18.1-1.1.2-1.7.3-3.4.5-5.1 6.1.4 12.1.8 18.2 1.1-.2 1.6-.4 3.3-.6 5.1z"/><path class="st47" d="M90.2 218.8c.1-2.4.1-4.7.2-7.1 2.7.2 5.4.3 8.1.5-.3.3-.6.6-1 .9l-6-.3c-.1 1.8-.3 3.6-.4 5.4-.4.2-.6.4-.9.6z"/><path class="st8" d="M98.4 212.2c-.2 2.4-.5 4.7-.7 7.1-2.5-.2-5-.3-7.5-.5.3-.2.6-.4.8-.5 2 .1 4 .2 6.1.3.1-1.8.3-3.6.4-5.4.3-.4.6-.7.9-1z"/><path class="st47" d="M142.3 222c.1-2.4.2-4.7.3-7.1 2.7.2 5.4.3 8.1.5-.3.3-.7.6-1 .9l-6-.3c-.2 1.8-.3 3.6-.5 5.4-.4.3-.6.5-.9.6z"/><path class="st8" d="M150.7 215.4c-.3 2.4-.6 4.7-.9 7.1-2.5-.2-5-.3-7.5-.5.3-.2.6-.4.9-.5 2 .1 4 .2 6.1.3.2-1.8.3-3.6.5-5.4.2-.3.6-.7.9-1z"/><path class="st47" d="M89.7 232.4c.1-2.4.1-4.7.2-7.1 2.7.2 5.4.3 8 .5-.3.3-.6.6-1 .9l-6-.3c-.1 1.8-.3 3.6-.4 5.4-.2.3-.5.5-.8.6z"/><path class="st8" d="M97.9 225.8c-.2 2.4-.5 4.7-.7 7.1-2.5-.2-5-.3-7.5-.5.3-.2.6-.4.8-.5l6 .3c.1-1.8.2-3.6.4-5.4.4-.3.7-.7 1-1z"/><path class="st47" d="M141.5 235.7c.1-2.4.2-4.7.3-7.1 2.7.2 5.4.3 8 .5-.3.3-.7.6-1 .9l-6-.3c-.2 1.8-.3 3.6-.5 5.4-.2.2-.5.4-.8.6z"/><path class="st8" d="M149.9 229.1c-.3 2.4-.6 4.7-.9 7.1-2.5-.2-5-.3-7.5-.5.3-.2.6-.4.9-.5l6 .3c.2-1.8.3-3.6.5-5.4.3-.4.6-.7 1-1z"/><path class="st48" d="M53.5 216.9c0-2.9.1-5.7.1-8.6 11.4.7 22.8 1.4 34.3 2.1-10.6 0-21.3.1-31.9.1-.4 2.2-.8 4.3-1.3 6.5-.3 0-.8 0-1.2-.1zm-.2 14c0-2.9.1-5.7.1-8.6 11.3.7 22.7 1.4 34 2.1-10.6 0-21.1.1-31.7.1-.4 2.2-.8 4.3-1.3 6.5-.3 0-.7-.1-1.1-.1zm52.6-10.7c.1-2.9.2-5.7.3-8.6 11.4.7 22.8 1.4 34.3 2.1-10.7 0-21.3.1-31.9.1-.5 2.2-1 4.3-1.4 6.5-.5 0-.9-.1-1.3-.1zm-.6 14c.1-2.9.2-5.7.3-8.6 11.3.7 22.7 1.4 34 2.1-10.6 0-21.2.1-31.7.1-.5 2.2-.9 4.3-1.4 6.5-.3-.1-.7-.1-1.2-.1zm65.2 4c.2-2.9.4-5.7.6-8.6 25 1.6 50 3.1 74.9 4.7-24.3-.8-48.5-1.6-72.7-2.5-.5 2.1-1.1 4.3-1.6 6.4-.4.1-.8.1-1.2 0z"/><path class="st49" d="M264.4 254.8l-223-13.9 222 12.6 4.3-27.5-3.2 27.5z"/><path class="st5" d="M58.6 650.6L16.8 648l-1.5-5 45.4 2.8-2.1 4.8zm180.2 6.4l-45.4-2.8 1.5 5 41.8 2.6 2.1-4.8zm-62.2 1l-41.8-2.6-1.5-5 45.4 2.8-2.1 4.8zm180.2 6.4l-45.4-2.8 1.5 5 41.8 2.6 2.1-4.8z"/><path transform="matrix(.998 .06247 -.06247 .998 30.605 -.865)" class="st82" d="M25 408.7h8.4v160.6H25z"/><path class="st82" d="M279.8 32.2L63.5 18.6 53.1 18l-.4 6-13.6 216.7 10.4.6L62.9 27l216.5 12.1z"/><path transform="matrix(.998 .06247 -.06247 .998 38.547 -6.925)" class="st42" d="M2.1 575.9H258v74.3H2.1z"/><path class="st48" d="M21.9 635l-4.5-.3 2.9-54.1 5.4.3-3.8 54.1zm14.8-53.3l-5.4-.3-2.9 54.1 4.5.3 3.8-54.1zm11 .7l-5.4-.3-2.9 54.1 4.5.3 3.8-54.1zm10.9.7l-5.4-.3-2.9 54.1 4.5.3 3.8-54.1zm11 .7l-5.4-.3-2.9 54.1 4.5.3 3.8-54.1zm11 .6l-5.4-.3-2.9 54.1 4.5.3 3.8-54.1zm10.9.7l-5.4-.3-2.9 54.1 4.5.3 3.8-54.1zm11 .7l-5.4-.3-2.9 54.1 4.5.3 3.8-54.1zm11 .7l-5.4-.3-2.9 54.1 4.5.3 3.8-54.1zm10.9.7l-5.4-.3-2.9 54.1 4.5.3 3.8-54.1zm11 .7l-5.4-.3-2.9 54.1 4.5.3 3.8-54.1zm11 .7l-5.4-.3-2.9 54.1 4.5.3 3.8-54.1zm10.9.7l-5.4-.3-2.9 54 4.5.3 3.8-54zm11 .6l-5.4-.3-2.9 54.1 4.5.3 3.8-54.1zm11 .7l-5.4-.3-2.9 54.1 4.5.3 3.8-54.1zm10.9.7l-5.4-.3-2.9 54.1 4.5.3 3.8-54.1zm11 .7l-5.4-.3-2.9 54.1 4.5.3 3.8-54.1zm11 .7l-5.4-.3-2.9 54.1 4.5.3 3.8-54.1zm11 .7l-5.4-.3-2.9 54.1 4.5.3 3.8-54.1zm10.9.7l-5.4-.3-2.9 54.1 4.5.3 3.8-54.1zm11 .6l-5.4-.3-2.9 54.1 4.5.3 3.8-54.1z"/><linearGradient id="SVGID_55_" gradientUnits="userSpaceOnUse" x1="128.266" y1="641.062" x2="131.648" y2="587.024"><stop offset=".06" stop-color="#22567d"/><stop offset=".619" stop-color="#14466a"/><stop offset="1" stop-color="#131f49"/></linearGradient><path d="M20.8 634.3l-4.5-.3 2.9-54.1 5.4.3-3.8 54.1zM35.7 581l-5.4-.3-2.9 54.1 4.5.3 3.8-54.1zm10.9.7l-5.4-.3-2.9 54.1 4.5.3 3.8-54.1zm11 .7l-5.4-.3-2.9 54.1 4.5.3 3.8-54.1zm11 .7l-5.4-.3-2.9 54.1 4.5.3 3.8-54.1zm10.9.7l-5.4-.3-2.9 54.1 4.5.3 3.8-54.1zm11 .6l-5.4-.3-2.9 54.1 4.5.3 3.8-54.1zm11 .7l-5.4-.3-2.9 54.1 4.5.3 3.8-54.1zm10.9.7l-5.4-.3-2.9 54.1 4.5.3 3.8-54.1zm11 .7l-5.4-.3-2.9 54.1 4.5.3 3.8-54.1zm11 .7l-5.4-.3-2.9 54.1 4.5.3 3.8-54.1zm10.9.7l-5.4-.3-2.9 54.1 4.5.3 3.8-54.1zm11 .7l-5.4-.3-2.9 54.1 4.5.3 3.8-54.1zm11 .7l-5.4-.3-2.9 54.1 4.5.3 3.8-54.1zm10.9.6l-5.4-.3-2.9 54.1 4.5.3 3.8-54.1zm11 .7l-5.4-.3-2.9 54.1 4.5.3 3.8-54.1zm11 .7l-5.4-.3-2.9 54.1 4.5.3 3.8-54.1zm10.9.7l-5.4-.3-2.9 54.1 4.5.3 3.8-54.1zm11 .7l-5.4-.3-2.9 54.1 4.5.3 3.8-54.1zm11 .7l-5.4-.3-2.9 54.1 4.5.3 3.8-54.1zm10.9.7l-5.4-.3-2.9 54.1 4.5.3 3.8-54.1z" fill="url(#SVGID_55_)"/><path class="st48" d="M0 642.1l4.6-74.2 255.4 16-3 48.9-.2-46.2L7.7 571.5z"/><linearGradient id="SVGID_56_" gradientUnits="userSpaceOnUse" x1="147.939" y1="38.919" x2="147.939" y2="592.572" gradientTransform="matrix(.998 .06247 -.06247 .998 21.32 -12.452)"><stop offset="0" stop-color="#2477a0"/><stop offset="1" stop-color="#247696"/></linearGradient><path d="M256.2 583.7l-13.2-.8L277.9 26l12.4.8-34.1 556.9zM57.2 12.2L44 11.4 9.2 568.2l13.2.8L57.2 12.2z" fill="url(#SVGID_56_)"/><linearGradient id="SVGID_57_" gradientUnits="userSpaceOnUse" x1="27.973" y1="9.14" x2="327.806" y2="37.393" gradientTransform="matrix(.998 .06247 -.06247 .998 21.32 -12.452)"><stop offset="0" stop-color="#2477a0"/><stop offset="1" stop-color="#247696"/></linearGradient><path fill="url(#SVGID_57_)" d="M289.8 35.2L43.5 19.8 44.8 0l246.3 14.5z"/><linearGradient id="SVGID_58_" gradientUnits="userSpaceOnUse" x1="243.603" y1="43.096" x2="98.188" y2="9.313" gradientTransform="matrix(.998 .06247 -.06247 .998 21.32 -12.452)"><stop offset="0" stop-color="#247696"/><stop offset=".279" stop-color="#297899"/><stop offset=".608" stop-color="#3780a1"/><stop offset=".963" stop-color="#4f8cad"/><stop offset="1" stop-color="#528daf"/></linearGradient><path d="M45.9 17.7l1-15.4 242.7 15.2c-95.9-1.1-185.6-1.7-243.7.2z" fill="url(#SVGID_58_)"/><path class="st5" d="M243.3 260.3l-12.6 133.3 6 .3L254.1 261z"/><linearGradient id="SVGID_59_" gradientUnits="userSpaceOnUse" x1="260.147" y1="403.263" x2="-42.425" y2="195.162" gradientTransform="matrix(.998 .06247 -.06247 .998 21.32 -12.452)"><stop offset=".083" stop-color="#22567d"/><stop offset=".575" stop-color="#174a6e"/><stop offset=".695" stop-color="#14466a"/><stop offset=".79" stop-color="#143f64"/><stop offset=".925" stop-color="#132c54"/><stop offset="1" stop-color="#131f49"/></linearGradient><path fill="url(#SVGID_59_)" d="M232.6 393.7L50.7 382.3l5.2-133.7 188.2 11.8z"/><path transform="matrix(.998 .06247 -.06247 .998 24.416 -8.103)" class="st10" d="M50.7 384.9H233v3.1H50.7z"/><path fill="#ef1b3f" d="M59.1 371.7L63.5 257l172 10.8-9.9 114.4z"/><defs><filter id="Adobe_OpacityMaskFilter_24_" filterUnits="userSpaceOnUse" x="63.3" y="271.5" width="168" height="106.5"><feFlood result="back" flood-color="#fff" flood-opacity="1"/><feBlend in="SourceGraphic" in2="back"/></filter></defs><mask maskUnits="userSpaceOnUse" x="63.3" y="271.5" width="168" height="106.5" id="SVGID_60_"><g filter="url(#Adobe_OpacityMaskFilter_24_)"><defs><filter id="Adobe_OpacityMaskFilter_25_" filterUnits="userSpaceOnUse" x="63.3" y="271.5" width="168" height="106.5"><feFlood result="back" flood-color="#fff" flood-opacity="1"/><feBlend in="SourceGraphic" in2="back"/></filter></defs><linearGradient id="SVGID_61_" gradientUnits="userSpaceOnUse" x1="239.741" y1="378.545" x2="90.495" y2="290.793" gradientTransform="matrix(.998 .06247 -.06247 .998 21.32 -12.452)"><stop offset="0" stop-color="#fff"/><stop offset="1"/></linearGradient><path mask="url(#SVGID_60_)" fill="url(#SVGID_61_)" d="M63.3 368l156.3 7.4 11.6-103.9L222 378z"/></g></mask><linearGradient id="SVGID_62_" gradientUnits="userSpaceOnUse" x1="239.741" y1="378.545" x2="90.495" y2="290.793" gradientTransform="matrix(.998 .06247 -.06247 .998 21.32 -12.452)"><stop offset="0" stop-color="#ef808d"/><stop offset=".997" stop-color="#ef1b3f"/></linearGradient><path fill="url(#SVGID_62_)" d="M63.3 368l156.3 7.4 11.6-103.9L222 378z"/><defs><filter id="Adobe_OpacityMaskFilter_26_" filterUnits="userSpaceOnUse" x="63.3" y="261.2" width="168" height="106.8"><feFlood result="back" flood-color="#fff" flood-opacity="1"/><feBlend in="SourceGraphic" in2="back"/></filter></defs><mask maskUnits="userSpaceOnUse" x="63.3" y="261.2" width="168" height="106.8" id="SVGID_63_"><g filter="url(#Adobe_OpacityMaskFilter_26_)"><defs><filter id="Adobe_OpacityMaskFilter_27_" filterUnits="userSpaceOnUse" x="63.3" y="261.2" width="168" height="106.8"><feFlood result="back" flood-color="#fff" flood-opacity="1"/><feBlend in="SourceGraphic" in2="back"/></filter></defs><linearGradient id="SVGID_64_" gradientUnits="userSpaceOnUse" x1="31.168" y1="246.759" x2="149.587" y2="325.787" gradientTransform="matrix(.998 .06247 -.06247 .998 21.32 -12.452)"><stop offset="0" stop-color="#fff"/><stop offset="1"/></linearGradient><path mask="url(#SVGID_63_)" fill="url(#SVGID_64_)" d="M63.3 368l4-106.8 163.9 10.3-158.8-3.3z"/></g></mask><linearGradient id="SVGID_65_" gradientUnits="userSpaceOnUse" x1="31.168" y1="246.759" x2="149.587" y2="325.787" gradientTransform="matrix(.998 .06247 -.06247 .998 21.32 -12.452)"><stop offset="0" stop-color="#ef808d"/><stop offset=".997" stop-color="#ef1b3f"/></linearGradient><path fill="url(#SVGID_65_)" d="M63.3 368l4-106.8 163.9 10.3-158.8-3.3z"/><path class="st5" d="M59.1 371.7L63.5 257l172 10.8-2 2-168.9-11.2-4.7 112.3z"/><path class="st8" d="M233.5 269.8l2-2-9.9 114.4-166.5-10.5.8-.8L224.5 381z"/><linearGradient id="SVGID_66_" gradientUnits="userSpaceOnUse" x1="25.46" y1="408.383" x2="225.946" y2="408.383" gradientTransform="matrix(.998 .06247 -.06247 .998 21.32 -12.452)"><stop offset=".083" stop-color="#22567d"/><stop offset=".575" stop-color="#174a6e"/><stop offset=".695" stop-color="#14466a"/><stop offset=".79" stop-color="#143f64"/><stop offset=".925" stop-color="#132c54"/><stop offset="1" stop-color="#131f49"/></linearGradient><path fill="url(#SVGID_66_)" d="M221.1 412.2L23.9 399.8l-2.5-6 198.2 12.4z"/><path class="st5" d="M219.6 406.2l17.5-12.2-2 19-14-.8z"/><path class="st10" d="M237.1 394L51.5 382.3l-30.1 11.5 198.2 12.4z"/><path class="st5" d="M180.4 391.8L56.2 384l-14.8 5.9-.1 1.9 127.6 8 11.4-6.1zm40.5 2.5l-36.8-2.3-9.9 6.2-.1 1.9 38.9 2.4 7.7-6.3z"/><path d="M169 397.9l-127.7-8 14.8-5.9 124.2 7.8-11.3 6.1zm15.1-5.9l-9.9 6.2 39 2.4 7.7-6.3-36.8-2.3z" fill="#1d5682"/><defs><filter id="Adobe_OpacityMaskFilter_28_" filterUnits="userSpaceOnUse" x="79.7" y="262" width="79.2" height="113.3"><feFlood result="back" flood-color="#fff" flood-opacity="1"/><feBlend in="SourceGraphic" in2="back"/></filter></defs><linearGradient id="SVGID_68_" gradientUnits="userSpaceOnUse" x1="650.863" y1="239.006" x2="583.661" y2="363.625" gradientTransform="matrix(-.998 -.06247 -.06247 .998 757.994 33.655)"><stop offset="0" stop-color="#ef767d"/><stop offset=".997" stop-color="#ef1b3f"/></linearGradient><path d="M96.8 263.1l38.6 110.8-7.8-.5L79.7 262l17.1 1.1zm9.4.5l37.3 110.7 15.4 1-18.4-109.5-34.3-2.2z" mask="url(#SVGID_67_)" fill="url(#SVGID_68_)"/><path class="st101" d="M130.6 339.4l-57.4-3.6.2-2.6 57.4 3.6-.2 2.6zm24.5-1.1l-18.3-1.1-.2 2.6 18.3 1.1.2-2.6zm28.3 1.8l-24.1-1.5-.2 2.6 24.1 1.5.2-2.6zm-93.7 13L72.2 352l.2-2.6 17.6 1.1-.3 2.6zm31.1-.6l-24.9-1.6-.2 2.6 24.9 1.6.2-2.6zm26 1.6l-21.7-1.4-.2 2.6 21.7 1.4.2-2.6zm-31.3-10.2l-42.6-2.7.2-2.6 42.6 2.7-.2 2.6zm18.2-1.5l-13.6-.9-.2 2.6 13.6.9.2-2.6zm21 1.3l-21-1.3-.2 2.6 21 1.3.2-2.6zm-27.5 6.3l-54.6-3.4.2-2.6 54.6 3.4-.2 2.6zm38.3-.2l-32.1-2-.2 2.6 32.1 2 .2-2.6z"/><path class="st8" d="M323.1 115.6l-4.4-.3 4-64.7 4.4.3-4 64.7zm-.3 5.5l-4.4-.3-1.8 29.2 4.4.3 1.8-29.2zm13.7-69.5l-4.4-.3-4 64.7 4.4.3 4-64.7zm-4.3 70.1l-4.4-.3-1.8 29.2 4.4.3 1.8-29.2zm13.7-69.5l-4.4-.3-4 64.7 4.4.3 4-64.7zm-4.4 70.1l-4.4-.3-1.8 29.2 4.4.3 1.8-29.2zm13.8-69.6l-4.4-.3-4 64.7 4.4.3 4-64.7zm-4.4 70.2l-4.4-.3-1.8 29.2 4.4.3 1.8-29.2zm13.8-69.6l-4.4-.3-4 64.7 4.4.3 4-64.7zm-4.4 70.1l-4.4-.3-1.8 29.2 4.4.3 1.8-29.2zM374 53.9l-4.4-.3-4 64.7 4.4.3 4-64.7zm-4.3 70.1l-4.4-.3-1.8 29.2 4.4.3 1.8-29.2zm13.7-69.5l-4.4-.3-4 64.7 4.4.3 4-64.7zm-4.4 70.1l-4.4-.3-1.8 29.2 4.4.3 1.8-29.2zm13.8-69.5l-4.4-.3-4 64.7 4.4.3 4-64.7zm-4.4 70.1l-4.4-.3-1.8 29.2 4.4.3 1.8-29.2zm13.8-69.5l-4.4-.3-4 64.7 4.4.3 4-64.7zm-4.4 70.1l-4.4-.3-1.8 29.2 4.4.3 1.8-29.2z"/><path class="st5" d="M322.6 115l-4.4-.3 4-64.7 4.4.3-4 64.7zm-.3 5.5l-4.4-.3-1.8 29.2 4.4.3 1.8-29.2zM336 51l-4.4-.3-4 64.7 4.4.3 4-64.7zm-4.4 70.1l-4.4-.3-1.8 29.2 4.4.3 1.8-29.2zm13.8-69.5l-4.4-.3-4 64.7 4.4.3 4-64.7zm-4.4 70.1l-4.4-.3-1.8 29.2 4.4.3 1.8-29.2zm13.8-69.5l-4.4-.3-4 64.7 4.4.3 4-64.7zm-4.4 70.1l-4.4-.3-1.8 29.2 4.4.3 1.8-29.2zm13.7-69.6l-4.4-.3-4 64.7 4.4.3 4-64.7zm-4.3 70.2l-4.4-.3-1.8 29.2 4.4.3 1.8-29.2zm13.7-69.6l-4.4-.3-4 64.7 4.4.3 4-64.7zm-4.4 70.1l-4.4-.3-1.8 29.2 4.4.3 1.8-29.2zm13.8-69.5l-4.4-.3-4 64.7 4.4.3 4-64.7zm-4.4 70.1l-4.4-.3-1.8 29.2 4.4.3 1.8-29.2zm13.8-69.5l-4.4-.3-4 64.7 4.4.3 4-64.7zm-4.4 70.1l-4.4-.3-1.8 29.2 4.4.3 1.8-29.2zm13.7-69.5l-4.4-.3-4 64.7 4.4.3 4-64.7zm-4.3 70.1l-4.4-.3-1.8 29.2 4.4.3 1.8-29.2z"/><text transform="matrix(.9981 .06247 -.06247 .9981 72.577 319.6)" class="st101" font-size="47.334" font-family="Nikoleta">ERORR!!!</text></svg>