<?xml version="1.0" encoding="utf-8"?>
<!-- Generator: Adobe Illustrator 21.0.2, SVG Export Plug-In . SVG Version: 6.00 Build 0)  -->
<svg version="1.1" id="Слой_2" xmlns="http://www.w3.org/2000/svg" xmlns:xlink="http://www.w3.org/1999/xlink" x="0px" y="0px"
	 viewBox="0 0 337.2 213" style="enable-background:new 0 0 337.2 213;" xml:space="preserve">
<style type="text/css">
	.st0{fill:#272666;}
</style>
<g>
	<path class="st0" d="M199.1,115c-6.5-5.1-11.9-11.5-18.5-16.4c-6.9-3.8-13.9-6.4-21.2-5.1c-7.1-0.6-14.4,2.2-21.3,5
		c-4.5,0.9-11.4-1.9-13.4,6.7c-0.2,3.6,0.8,6.8,2.3,9.4c-6.4,2.8-12.2-5.6-18.6-5.2c-1.7-1-4.1-0.2-5.9-0.9
		c-1.4,3.9,1.6,7.8,2.6,11.4c1,0,1.4,1.5,1.8,2.5c0.8,1.8-0.5,2.6-0.4,4.3c-1,5.1-2.4,10.5-0.8,16c1.4,1.8,3.6,0.4,5.1-0.7
		c5.8-3.8,10.6-10.9,17.6-11.3c-0.4,1.1-1.3,3.1-1.1,4.5c0.2,1.9,1.2,2.8,1.9,4.2c2.1,1.2,4.5-1.5,6.6-0.3
		c5.6,0.5,10.2-4.9,15.9-3.1l0.3-0.4l5.8,1.4c3.1,2.5,6,8.9,9.6,6.2c1.9-2,1.5-5.6,2.4-8.1c9-1.8,17-7,26.1-9.9
		c1.3-0.8,2.7-1.9,2.9-4.3C198.2,118.6,200.5,117,199.1,115z"/>
	<path class="st0" d="M337.2,196.2l-0.1,0.2c0,0.2-0.1,0.4-0.3,0.5l-1.7,1.1c-0.9,0.9-2.2,1.1-3.1,2.2c-2.3,0.9-4.2,2.4-6.4,3.6
		c-3.2,1.2-5.9,3.4-9.6,3.5c-0.4,1.1-1.4,1.7-2.2,2.7c-0.5,0.9-1.3,1.5-2.1,2.1c-0.5,0.2-1.1,0.5-1.6,0.8c-0.6,0.2-1.4,0.6-1.9-0.1
		c-0.2-0.4-0.3-0.9,0.1-1.2c-0.4-2.1,2.2-2.3,3-3.7c-2.1,0.2-3.7-0.2-5.6-0.5c-1.2-0.4-2.6-0.6-3.8-1c-0.7-0.2-1.4-0.3-2-0.5l0,0.3
		c0.1,0.2,0.2,0.4,0.1,0.6c-0.2,0.4-0.5,0.7-0.8,0.9c-1.7,0.7-3.3,1.7-5.3,1.7l-0.2-0.1c-0.7-0.1-1.3-0.5-1.9-1
		c-0.1-0.1-0.3-0.2-0.4-0.4c0,0,0,0,0,0c0,0,0,0,0,0c0-0.1-0.1-0.1-0.1-0.2c-0.7-1.2,0-2.5,0.5-3.5c-0.2,0-0.3,0-0.5,0
		c-0.2,0-0.3,0.1-0.3,0.1l-0.6,0.2c-1,0.5-1.7,1.5-2.7,2.1c-0.3,0.2-0.6,0.4-0.9,0.7l-0.4,0.3l-0.1,0c-0.4,0.2-0.8,0.3-1.3,0.1
		c-0.7-0.2-0.5-1.2-1-1.6c0.2-0.4-0.2-0.9-0.1-1.3c0.3-0.9-0.9-0.9-1.3-1.3c-0.1-0.5-0.6-0.6-0.7-1.1c-0.6-0.4-0.9-1-1.3-1.6
		c-0.1-0.1-0.1-0.2-0.2-0.3c-0.9-0.5-1.3-1.5-1.6-2.5c-0.1-0.2,0.3-0.3,0.1-0.6c-0.1-0.4,0.4-0.4,0.6-0.5c1.9-0.2,3.8-0.3,5.5,0.2
		c0.6,0,1.3,0.2,1.9,0.4c0.4,0.1,0.8,0.2,1.2,0.3c0.3,0,0.6,0.1,0.8,0c-0.5-0.9-1.1-2.1-0.9-3.2c0.2-1,0.8-1.7,1.4-2.5
		c1.2-0.7,2.4-1.5,3.9-1.7c0.2-0.2,0.6-0.4,0.8-0.4l0.1-0.1c-0.1-0.5,0.5-0.2,0.5-0.6c0.1-0.3,0.5-0.1,0.7-0.2
		c0.2-0.4,0.7-0.1,1-0.4c0.7,0.2,0.8-0.6,1.5-0.3c0-0.5,0.6-0.3,0.9-0.4c0-0.1-0.1-0.2-0.1-0.3c0.3-0.4,0.8-0.2,1.3-0.3
		c-0.1-0.1-0.2-0.2-0.2-0.4c0.1-0.3,0.7-0.2,0.9-0.3l-0.1-0.3c0.2-0.4,0.7,0,1.1-0.3l-0.4-0.4c0.3-0.3,0.8-0.1,1.2-0.2
		c-0.1-0.2-0.4-0.2-0.4-0.4c0.1-0.5,0.7-0.2,1.1-0.4c0-0.8,0.9-0.4,1.3-0.8c3.9-1,7.6,0.1,11.3,0.6c2,0.6,4.2,0.8,6.2,1.5
		c4.9,1.5,9.2,4.7,13.8,7c-0.1,0.2,0.4,0.5,0.3,0.9c0,0.3-0.4,0.4-0.4,0.7c0.2-0.1,0.4,0,0.6,0c0.4,0.1,0.8,0.5,0.9,0.9c0,0,0,0,0,0
		C337.1,195.7,337.2,196,337.2,196.2C337.2,196.2,337.2,196.2,337.2,196.2z"/>
</g>
<path class="st0" d="M169.6,196.2l-0.1,0.2c0,0.2-0.1,0.4-0.3,0.5l-1.7,1.1c-0.9,0.9-2.2,1.1-3.1,2.2c-2.3,0.9-4.2,2.4-6.4,3.6
	c-3.2,1.2-5.9,3.4-9.6,3.5c-0.4,1.1-1.4,1.7-2.2,2.7c-0.5,0.9-1.3,1.5-2.1,2.1c-0.5,0.2-1.1,0.5-1.6,0.8c-0.6,0.2-1.4,0.6-1.9-0.1
	c-0.2-0.4-0.3-0.9,0.1-1.2c-0.4-2.1,2.2-2.3,3-3.7c-2.1,0.2-3.7-0.2-5.6-0.5c-1.2-0.4-2.6-0.6-3.8-1c-0.7-0.2-1.4-0.3-2-0.5l0,0.3
	c0.1,0.2,0.2,0.4,0.1,0.6c-0.2,0.4-0.5,0.7-0.8,0.9c-1.7,0.7-3.3,1.7-5.3,1.7l-0.2-0.1c-0.7-0.1-1.3-0.5-1.9-1
	c-0.1-0.1-0.3-0.2-0.4-0.4c0,0,0,0,0,0c0,0,0,0,0,0c0-0.1-0.1-0.1-0.1-0.2c-0.7-1.2,0-2.5,0.5-3.5c-0.2,0-0.3,0-0.5,0
	c-0.2,0-0.3,0.1-0.3,0.1l-0.6,0.2c-1,0.5-1.7,1.5-2.7,2.1c-0.3,0.2-0.6,0.4-0.9,0.7l-0.4,0.3l-0.1,0c-0.4,0.2-0.8,0.3-1.3,0.1
	c-0.7-0.2-0.5-1.2-1-1.6c0.2-0.4-0.2-0.9-0.1-1.3c0.3-0.9-0.9-0.9-1.3-1.3c-0.1-0.5-0.6-0.6-0.7-1.1c-0.6-0.4-0.9-1-1.3-1.6
	c-0.1-0.1-0.1-0.2-0.2-0.3c-0.9-0.5-1.3-1.5-1.6-2.5c-0.1-0.2,0.3-0.3,0.1-0.6c-0.1-0.4,0.4-0.4,0.6-0.5c1.9-0.2,3.8-0.3,5.5,0.2
	c0.6,0,1.3,0.2,1.9,0.4c0.4,0.1,0.8,0.2,1.2,0.3c0.3,0,0.6,0.1,0.8,0c-0.5-0.9-1.1-2.1-0.9-3.2c0.2-1,0.8-1.7,1.4-2.5
	c1.2-0.7,2.4-1.5,3.9-1.7c0.2-0.2,0.6-0.4,0.8-0.4l0.1-0.1c-0.1-0.5,0.5-0.2,0.5-0.6c0.1-0.3,0.5-0.1,0.7-0.2c0.2-0.4,0.7-0.1,1-0.4
	c0.7,0.2,0.8-0.6,1.5-0.3c0-0.5,0.6-0.3,0.9-0.4c0-0.1-0.1-0.2-0.1-0.3c0.3-0.4,0.8-0.2,1.3-0.3c-0.1-0.1-0.2-0.2-0.2-0.4
	c0.1-0.3,0.7-0.2,0.9-0.3l-0.1-0.3c0.2-0.4,0.7,0,1.1-0.3l-0.4-0.4c0.3-0.3,0.8-0.1,1.2-0.2c-0.1-0.2-0.4-0.2-0.4-0.4
	c0.1-0.5,0.7-0.2,1.1-0.4c0-0.8,0.9-0.4,1.3-0.8c3.9-1,7.6,0.1,11.3,0.6c2,0.6,4.2,0.8,6.2,1.5c4.9,1.5,9.2,4.7,13.8,7
	c-0.1,0.2,0.4,0.5,0.3,0.9c0,0.3-0.4,0.4-0.4,0.7c0.2-0.1,0.4,0,0.6,0c0.4,0.1,0.8,0.5,0.9,0.9c0,0,0,0,0,0
	C169.4,195.7,169.5,196,169.6,196.2C169.5,196.2,169.6,196.2,169.6,196.2z"/>
<path class="st0" d="M58.2,48.5l-0.1,0.2c0,0.2-0.1,0.4-0.3,0.5l-1.7,1.1c-0.9,0.9-2.2,1.1-3.1,2.2c-2.3,0.9-4.2,2.4-6.4,3.6
	c-3.2,1.2-5.9,3.4-9.6,3.5c-0.4,1.1-1.4,1.7-2.2,2.7c-0.5,0.9-1.3,1.5-2.1,2.1c-0.5,0.2-1.1,0.5-1.6,0.8c-0.6,0.2-1.4,0.6-1.9-0.1
	c-0.2-0.4-0.3-0.9,0.1-1.2c-0.4-2.1,2.2-2.3,3-3.7c-2.1,0.2-3.7-0.2-5.6-0.5c-1.2-0.4-2.6-0.6-3.8-1c-0.7-0.2-1.4-0.3-2-0.5l0,0.3
	c0.1,0.2,0.2,0.4,0.1,0.6c-0.2,0.4-0.5,0.7-0.8,0.9c-1.7,0.7-3.3,1.7-5.3,1.7l-0.2-0.1c-0.7-0.1-1.3-0.5-1.9-1
	c-0.1-0.1-0.3-0.2-0.4-0.4c0,0,0,0,0,0c0,0,0,0,0,0c0-0.1-0.1-0.1-0.1-0.2c-0.7-1.2,0-2.5,0.5-3.5c-0.2,0-0.3,0-0.5,0
	c-0.2,0-0.3,0.1-0.3,0.1l-0.6,0.2c-1,0.5-1.7,1.5-2.7,2.1c-0.3,0.2-0.6,0.4-0.9,0.7L7.6,60l-0.1,0c-0.4,0.2-0.8,0.3-1.3,0.1
	c-0.7-0.2-0.5-1.2-1-1.6C5.4,58,5,57.6,5.1,57.2c0.3-0.9-0.9-0.9-1.3-1.3c-0.1-0.5-0.6-0.6-0.7-1.1c-0.6-0.4-0.9-1-1.3-1.6
	c-0.1-0.1-0.1-0.2-0.2-0.3c-0.9-0.5-1.3-1.5-1.6-2.5c-0.1-0.2,0.3-0.3,0.1-0.6c-0.1-0.4,0.4-0.4,0.6-0.5c1.9-0.2,3.8-0.3,5.5,0.2
	c0.6,0,1.3,0.2,1.9,0.4C8.6,50,9,50.1,9.4,50.2c0.3,0,0.6,0.1,0.8,0c-0.5-0.9-1.1-2.1-0.9-3.2c0.2-1,0.8-1.7,1.4-2.5
	c1.2-0.7,2.4-1.5,3.9-1.7c0.2-0.2,0.6-0.4,0.8-0.4l0.1-0.1c-0.1-0.5,0.5-0.2,0.5-0.6c0.1-0.3,0.5-0.1,0.7-0.2c0.2-0.4,0.7-0.1,1-0.4
	c0.7,0.2,0.8-0.6,1.5-0.3c0-0.5,0.6-0.3,0.9-0.4c0-0.1-0.1-0.2-0.1-0.3c0.3-0.4,0.8-0.2,1.3-0.3c-0.1-0.1-0.2-0.2-0.2-0.4
	c0.1-0.3,0.7-0.2,0.9-0.3l-0.1-0.3c0.2-0.4,0.7,0,1.1-0.3L22.4,38c0.3-0.3,0.8-0.1,1.2-0.2c-0.1-0.2-0.4-0.2-0.4-0.4
	c0.1-0.5,0.7-0.2,1.1-0.4c0-0.8,0.9-0.4,1.3-0.8c3.9-1,7.6,0.1,11.3,0.6c2,0.6,4.2,0.8,6.2,1.5c4.9,1.5,9.2,4.7,13.8,7
	c-0.1,0.2,0.4,0.5,0.3,0.9c0,0.3-0.4,0.4-0.4,0.7c0.2-0.1,0.4,0,0.6,0c0.4,0.1,0.8,0.5,0.9,0.9c0,0,0,0,0,0
	C58.1,48.1,58.2,48.3,58.2,48.5C58.2,48.6,58.2,48.5,58.2,48.5z"/>
<path class="st0" d="M214.9,12.7l-0.1,0.2c0,0.2-0.1,0.4-0.3,0.5l-1.7,1.1c-0.9,0.9-2.2,1.1-3.1,2.2c-2.3,0.9-4.2,2.4-6.4,3.6
	c-3.2,1.2-5.9,3.4-9.6,3.5c-0.4,1.1-1.4,1.7-2.2,2.7c-0.5,0.9-1.3,1.5-2.1,2.1c-0.5,0.2-1.1,0.5-1.6,0.8c-0.6,0.2-1.4,0.6-1.9-0.1
	c-0.2-0.4-0.3-0.9,0.1-1.2c-0.4-2.1,2.2-2.3,3-3.7c-2.1,0.2-3.7-0.2-5.6-0.5c-1.2-0.4-2.6-0.6-3.8-1c-0.7-0.2-1.4-0.3-2-0.5l0,0.3
	c0.1,0.2,0.2,0.4,0.1,0.6c-0.2,0.4-0.5,0.7-0.8,0.9c-1.7,0.7-3.3,1.7-5.3,1.7l-0.2-0.1c-0.7-0.1-1.3-0.5-1.9-1
	c-0.1-0.1-0.3-0.2-0.4-0.4c0,0,0,0,0,0c0,0,0,0,0,0c0-0.1-0.1-0.1-0.1-0.2c-0.7-1.2,0-2.5,0.5-3.5c-0.2,0-0.3,0-0.5,0
	c-0.2,0-0.3,0.1-0.3,0.1l-0.6,0.2c-1,0.5-1.7,1.5-2.7,2.1c-0.3,0.2-0.6,0.4-0.9,0.7l-0.4,0.3l-0.1,0c-0.4,0.2-0.8,0.3-1.3,0.1
	c-0.7-0.2-0.5-1.2-1-1.6c0.2-0.4-0.2-0.9-0.1-1.3c0.3-0.9-0.9-0.9-1.3-1.3c-0.1-0.5-0.6-0.6-0.7-1.1c-0.6-0.4-0.9-1-1.3-1.6
	c-0.1-0.1-0.1-0.2-0.2-0.3c-0.9-0.5-1.3-1.5-1.6-2.5c-0.1-0.2,0.3-0.3,0.1-0.6c-0.1-0.4,0.4-0.4,0.6-0.5c1.9-0.2,3.8-0.3,5.5,0.2
	c0.6,0,1.3,0.2,1.9,0.4c0.4,0.1,0.8,0.2,1.2,0.3c0.3,0,0.6,0.1,0.8,0c-0.5-0.9-1.1-2.1-0.9-3.2c0.2-1,0.8-1.7,1.4-2.5
	c1.2-0.7,2.4-1.5,3.9-1.7c0.2-0.2,0.6-0.4,0.8-0.4l0.1-0.1c-0.1-0.5,0.5-0.2,0.5-0.6c0.1-0.3,0.5-0.1,0.7-0.2c0.2-0.4,0.7-0.1,1-0.4
	c0.7,0.2,0.8-0.6,1.5-0.3c0-0.5,0.6-0.3,0.9-0.4c0-0.1-0.1-0.2-0.1-0.3c0.3-0.4,0.8-0.2,1.3-0.3c-0.1-0.1-0.2-0.2-0.2-0.4
	c0.1-0.3,0.7-0.2,0.9-0.3l-0.1-0.3c0.2-0.4,0.7,0,1.1-0.3l-0.4-0.4c0.3-0.3,0.8-0.1,1.2-0.2c-0.1-0.2-0.4-0.2-0.4-0.4
	c0.1-0.5,0.7-0.2,1.1-0.4c0-0.8,0.9-0.4,1.3-0.8c3.9-1,7.6,0.1,11.3,0.6c2,0.6,4.2,0.8,6.2,1.5c4.9,1.5,9.2,4.7,13.8,7
	c-0.1,0.2,0.4,0.5,0.3,0.9c0,0.3-0.4,0.4-0.4,0.7c0.2-0.1,0.4,0,0.6,0c0.4,0.1,0.8,0.5,0.9,0.9c0,0,0,0,0,0
	C214.8,12.3,214.8,12.5,214.9,12.7C214.9,12.7,214.9,12.7,214.9,12.7z"/>
</svg>
