<?xml version="1.0" encoding="utf-8"?>
<!-- Generator: Adobe Illustrator 21.0.2, SVG Export Plug-In . SVG Version: 6.00 Build 0)  -->
<svg version="1.1" id="Слой_2" xmlns="http://www.w3.org/2000/svg" xmlns:xlink="http://www.w3.org/1999/xlink" x="0px" y="0px"
	 viewBox="0 0 566.3 152.5" style="enable-background:new 0 0 566.3 152.5;" xml:space="preserve">
<style type="text/css">
	.st0{fill:#272666;}
</style>
<g>
	<path class="st0" d="M349,12.3c5.8-3,10.6-6.8,16.6-9.8c6.2-2.3,12.5-3.9,19.1-3.2c6.4-0.4,13.1,1.1,19.3,2.7
		c4.1,0.5,10.3-1.2,12.2,3.8c0.2,2.1-0.6,4-1.9,5.5c5.9,1.6,11-3.4,16.8-3.2c1.6-0.6,3.7-0.2,5.3-0.6c1.3,2.3-1.4,4.6-2.2,6.7
		c-0.9,0-1.2,0.9-1.6,1.5c-0.7,1,0.5,1.5,0.4,2.5c1,3,2.3,6.1,1,9.4c-1.2,1.1-3.3,0.3-4.6-0.4c-5.3-2.2-9.8-6.3-16.1-6.4
		c0.4,0.7,1.2,1.8,1.1,2.7c-0.1,1.1-1.1,1.7-1.7,2.5c-1.9,0.7-4.1-0.8-6-0.1c-5.1,0.3-9.3-2.8-14.4-1.7l-0.3-0.2l-5.2,0.9
		c-2.7,1.5-5.3,5.3-8.6,3.7c-1.7-1.1-1.4-3.3-2.3-4.7c-8.2-1-15.5-4-23.8-5.5c-1.2-0.4-2.4-1.1-2.7-2.5
		C349.8,14.4,347.8,13.4,349,12.3z"/>
	<path class="st0" d="M159.5,21.8c6.5-5.1,11.9-11.5,18.5-16.4c6.9-3.8,13.9-6.4,21.2-5.1c7.1-0.6,14.4,2.2,21.3,5
		c4.5,0.9,11.4-1.9,13.4,6.7c0.2,3.6-0.8,6.8-2.3,9.4c6.4,2.8,12.2-5.6,18.6-5.2c1.7-1,4.1-0.2,5.9-0.9c1.4,3.9-1.6,7.8-2.6,11.4
		c-1,0-1.4,1.5-1.8,2.5c-0.8,1.8,0.5,2.6,0.4,4.3c1,5.1,2.4,10.5,0.8,16c-1.4,1.8-3.6,0.4-5.1-0.7c-5.8-3.8-10.6-10.9-17.6-11.3
		c0.4,1.1,1.3,3.1,1.1,4.5c-0.2,1.9-1.2,2.8-1.9,4.2c-2.1,1.2-4.5-1.5-6.6-0.3c-5.6,0.5-10.2-4.9-15.9-3.1l-0.3-0.4l-5.8,1.4
		c-3.1,2.5-6,8.9-9.6,6.2c-1.9-2-1.5-5.6-2.4-8.1c-9-1.8-17-7-26.1-9.9c-1.3-0.8-2.7-1.9-2.9-4.3C160.4,25.4,158.1,23.8,159.5,21.8z
		"/>
	<path class="st0" d="M469.3,124.1c6.5-5.1,11.8-11.5,18.5-16.4c6.9-3.9,13.9-6.4,21.2-5.1c7.1-0.6,14.4,2.1,21.3,5
		c4.5,0.9,11.4-2,13.4,6.7c0.2,3.6-0.8,6.8-2.3,9.4c6.4,2.8,12.2-5.7,18.6-5.3c1.7-1,4.1-0.2,5.9-1c1.4,3.9-1.6,7.8-2.6,11.4
		c-1,0-1.4,1.5-1.8,2.5c-0.8,1.8,0.5,2.6,0.4,4.2c1,5.1,2.4,10.5,0.9,15.9c-1.4,1.8-3.6,0.4-5.1-0.7c-5.8-3.8-10.7-10.9-17.6-11.2
		c0.4,1.1,1.3,3.1,1.1,4.5c-0.1,1.9-1.2,2.8-1.9,4.2c-2.1,1.2-4.5-1.5-6.6-0.2c-5.6,0.5-10.3-4.8-15.9-3.1l-0.3-0.4l-5.8,1.4
		c-3.1,2.5-5.9,9-9.6,6.2c-1.9-2-1.5-5.6-2.4-8.1c-9-1.8-17-7-26.1-9.8c-1.3-0.8-2.7-1.9-2.9-4.3C470.2,127.6,468,126,469.3,124.1z"
		/>
	<path class="st0" d="M0.1,107.7c0-0.3,0.1-0.7,0-1c0,0,0,0,0-0.1c0.2-0.5,0.6-1.1,1.2-1.2c0.3,0.1,0.5-0.1,0.8,0
		c-0.1-0.4-0.5-0.5-0.5-1c-0.1-0.5,0.6-0.9,0.4-1.2c6.3-3.2,12.2-7.5,18.8-9.5c2.8-0.9,5.7-1.3,8.5-2c5.1-0.8,10.1-2.2,15.4-0.9
		c0.5,0.6,1.8,0.1,1.8,1.1c0.4,0.3,1.3-0.1,1.4,0.5c0,0.3-0.4,0.3-0.6,0.5c0.5,0.2,1.2-0.2,1.6,0.3l-0.5,0.6
		c0.5,0.3,1.1-0.2,1.4,0.4l-0.1,0.4c0.3,0.1,1.1-0.1,1.3,0.4c0,0.2-0.2,0.4-0.3,0.6c0.6,0.1,1.3-0.1,1.7,0.4
		c-0.1,0.1-0.1,0.3-0.2,0.4c0.4,0.1,1.2-0.1,1.2,0.6c1-0.4,1.2,0.7,2.1,0.5c0.3,0.5,1.1,0,1.3,0.6c0.3,0.1,0.8-0.1,0.9,0.3
		c-0.1,0.7,0.9,0.2,0.7,0.9l0.1,0.1c0.3,0,0.7,0.3,1,0.6c2,0.3,3.6,1.3,5.3,2.3c0.8,1.2,1.7,2.1,1.9,3.5c0.3,1.5-0.5,3.1-1.2,4.3
		c0.4,0,0.8,0,1.2,0c0.5-0.1,1.1-0.2,1.7-0.3c0.8-0.2,1.7-0.4,2.6-0.5c2.3-0.7,5-0.6,7.5-0.3c0.3,0.1,1,0.1,0.9,0.6
		c-0.2,0.4,0.2,0.5,0.2,0.8c-0.4,1.3-0.8,2.7-2.1,3.4c-0.1,0.1-0.2,0.3-0.3,0.4c-0.5,0.8-0.9,1.6-1.7,2.2c-0.2,0.7-0.8,0.8-1,1.6
		c-0.6,0.5-2.2,0.6-1.8,1.7c0.1,0.5-0.5,1.1-0.2,1.8c-0.7,0.6-0.4,1.8-1.4,2.1c-0.6,0.3-1.2,0.2-1.8-0.1l-0.1,0l-0.5-0.4
		c-0.4-0.3-0.9-0.7-1.3-0.9c-1.3-0.8-2.3-2.2-3.7-2.9l-0.8-0.3c0,0-0.2,0-0.4-0.1c-0.2,0-0.4,0-0.7,0c0.7,1.4,1.6,3.2,0.7,4.8
		c0,0.1-0.1,0.2-0.2,0.2c0,0,0,0,0,0c0,0,0,0,0,0c-0.1,0.2-0.3,0.3-0.5,0.5c-0.7,0.7-1.6,1.1-2.5,1.3l-0.3,0.2
		c-2.8,0.1-5-1.3-7.3-2.3c-0.5-0.3-0.8-0.7-1.1-1.2c-0.1-0.3,0-0.6,0.2-0.9l0.1-0.4c-0.8,0.2-1.7,0.4-2.7,0.6
		c-1.7,0.5-3.5,0.8-5.2,1.3c-2.7,0.4-4.8,1-7.7,0.7c1.1,1.8,4.7,2.1,4.1,5c0.6,0.4,0.4,1.1,0.2,1.6c-0.7,0.9-1.8,0.4-2.7,0.1
		c-0.7-0.5-1.5-0.7-2.2-1.1c-1.1-0.9-2.1-1.7-2.9-2.9c-1-1.3-2.4-2.1-2.9-3.6c-5-0.1-8.8-3-13.1-4.7c-3-1.6-5.6-3.6-8.7-4.9
		c-1.2-1.4-3-1.7-4.2-3l-2.3-1.5c-0.3-0.2-0.4-0.5-0.5-0.7L0,107.7C0,107.7,0,107.7,0.1,107.7z"/>
</g>
</svg>
