<?xml version="1.0" encoding="UTF-8"?>
<svg data-name="Layer 1" viewBox="0 0 172 200" xmlns="http://www.w3.org/2000/svg">
<defs>
<style>.cls-1{fill:#fff;}.cls-2{fill:#737a8d;}</style>
</defs>
<title>my-new-logo</title>
<rect class="cls-1" width="172" height="200"/>
<path class="cls-2" transform="translate(-.08 .26)" d="M20.08,173.78V158.27h3l4.3,12,4.42-12h2.73v15.51H32.51v-12.6l-4.27,11.56H26.11L22,161.15v12.63Z"/>
<path class="cls-2" transform="translate(-.08 .26)" d="m38.11 173.78v-15.51h2.2v15.51z"/>
<path class="cls-2" transform="translate(-.08 .26)" d="M43.86,173.78V158.27h2.06v7.63l6.28-7.63h2.21l-6.07,7.4,7.14,8.11H52.7l-6.78-7.86v7.86Z"/>
<path class="cls-2" transform="translate(-.08 .26)" d="M57.5,173.78V158.27h8.66v1.65H59.7v5h5.42v1.62H59.7v5.62h6.91v1.64Z"/>
<path class="cls-2" transform="translate(-.08 .26)" d="m75.91 173.78v-15.51h2.2v15.51z"/>
<path class="cls-2" transform="translate(-.08 .26)" d="m86 173.78-5.86-15.51h2.2l4.78 12.73 4.64-12.7h1.93l-5.63 15.51z"/>
<path class="cls-2" transform="translate(-.08 .26)" d="m92.54 173.78 6.15-15.51h2.18l6 15.51h-2.37l-1.69-4.28h-6.52l-1.71 4.28zm4.38-5.93h5.3l-2.65-6.7z"/>
<path class="cls-2" transform="translate(-.08 .26)" d="M108.88,173.78V158.27H111l7.8,12v-12h1.89v15.51h-2.15l-7.82-12v12Z"/>
<path class="cls-2" transform="translate(-.08 .26)" d="m130.74 174.17a6.73 6.73 0 0 1-5.28-2.22 9.9 9.9 0 0 1 0-11.85 7.4 7.4 0 0 1 10.55 0 9.86 9.86 0 0 1-0.01 11.9 6.69 6.69 0 0 1-5.26 2.17zm0-1.65a4.25 4.25 0 0 0 3.61-1.72 9.44 9.44 0 0 0 0-9.56 4.68 4.68 0 0 0-7.23 0 9.44 9.44 0 0 0 0 9.56 4.27 4.27 0 0 0 3.62 1.72z"/>
<path class="cls-2" transform="translate(-.08 .26)" d="m144.38 173.78-5.86-15.51h2.2l4.79 12.7 4.64-12.7h1.93l-5.62 15.51z"/>
<rect class="cls-2" x="20" y="20.1" width="132" height="132"/>
<rect class="cls-2" x="20" y="179.65" width="132" height=".25"/>
<path class="cls-1" transform="translate(-.08 .26)" d="M30.08,141.85V68H44.54L65,125.13,86.08,68h13v73.85H89.25v-60l-20.33,55H58.8L39.06,81.72v60.13Z"/>
<path class="cls-1" transform="translate(-.08 .26)" d="M118,141.85V68h10.48v73.85Z"/>
</svg>
